<svg width="57" height="63" viewBox="0 0 57 63" fill="none" xmlns="http://www.w3.org/2000/svg">
<path d="M27.016 40.4935C24.9819 38.8231 22.766 38.4594 20.3682 39.4023" stroke="#834FF6" stroke-width="2"/>
<path d="M27.6426 0C28.828 0 30.0067 0 31.1787 0C38.197 0.740898 45.0268 2.27658 51.6679 4.60704C54.8066 5.71165 56.5713 7.69187 56.962 10.5477C57.0697 11.3559 56.9485 13.7605 56.5983 17.7613C55.0222 35.3004 46.879 49.721 32.1688 61.0231C30 62.7069 27.7773 62.781 25.5007 61.2453C9.94187 50.7785 1.44848 34.4114 0.0205719 12.144C-0.181491 9.05916 1.10498 6.82973 3.87999 5.4557C10.4672 2.19575 18.3881 0.377185 27.6426 0ZM50.1726 7.88046C34.7754 1.75121 19.614 2.17555 4.68823 9.15346C4.12245 9.43635 3.75875 9.98192 3.73854 10.6083C3.05153 30.6799 10.7771 46.5553 26.9152 58.2346C27.7436 58.8408 28.8752 58.8408 29.7238 58.2548C44.7573 47.7475 52.7927 32.8555 53.83 13.5786C53.9647 10.8036 52.7456 8.90425 50.1726 7.88046Z" fill="#133D7A"/>
<path d="M20.9744 30.5924C19.7014 30.067 18.974 28.7536 19.1962 27.3998C20.22 21.1628 23.0826 16.4682 27.7839 13.316C28.3766 12.9119 29.0165 12.7233 29.7035 12.7502C32.1687 12.858 32.2697 13.6865 30.0066 15.2356C29.4409 15.6195 29.0367 16.1449 28.8549 16.7309C27.7233 20.4488 27.0565 24.2611 26.8544 28.1677C26.6928 31.3064 24.7328 32.1146 20.9744 30.5924Z" fill="#B33EED" fill-opacity="0.996"/>
<path d="M43.2215 33.9264C40.9314 37.6039 39.49 37.7858 38.8973 34.4719C38.7963 33.9263 39.1398 33.401 39.7056 33.1989C41.2008 32.6601 42.1371 31.6902 42.5142 30.2892C42.6557 29.7234 42.3728 29.097 41.807 28.7535C39.3284 27.3122 36.6679 26.4702 33.8255 26.2277C31.8049 26.0526 30.4376 25.7495 29.7236 25.3185C27.7569 24.1465 27.8243 22.5435 29.9257 20.5094C30.3905 20.0648 31.0168 19.8021 31.6837 19.8223C34.4721 19.8897 36.9575 20.698 39.1398 22.2471C41.3625 23.8232 42.9116 25.2983 43.7872 26.6723C45.1209 28.7603 44.9323 31.1783 43.2215 33.9264Z" fill="#EE344E"/>
<path d="M27.0162 40.4934C24.9821 38.823 22.7662 38.4593 20.3684 39.4023C19.8026 38.6344 18.3545 37.2469 16.024 35.2398C11.4978 31.3332 11.262 27.2717 15.3168 23.0554C15.7815 22.5704 16.4079 22.3279 17.0343 22.4087C19.6611 22.7051 18.9472 24.2004 14.8924 26.8946C13.8417 27.5816 13.8619 29.1375 14.9127 29.8245C19.6275 32.8554 24.8474 34.1217 30.5725 33.6233C36.6075 33.0844 37.8805 34.8087 34.3915 38.7961C34.0076 39.2204 33.4216 39.5235 32.7144 39.6245L27.0162 40.4934Z" fill="#5460FF"/>
<path d="M27.016 40.4935C27.501 43.1877 28.9491 44.2384 31.3604 43.6457C31.9464 43.5042 32.4717 43.5446 32.7546 43.7467C33.2396 44.0835 32.9163 44.4606 31.7847 44.8782C26.3425 46.8719 22.537 45.0466 20.3682 39.4023C22.766 38.4594 24.9819 38.8231 27.016 40.4935Z" fill="#B33EED" fill-opacity="0.996"/>
</svg>
