<svg width="160" height="51" viewBox="0 0 160 51" fill="none" xmlns="http://www.w3.org/2000/svg">
<path d="M79.25 20.0401C78.2433 19.2135 77.1466 19.0335 75.96 19.5001" stroke="#834FF6" stroke-width="2"/>
<path d="M79.5601 0C80.1467 0 80.7301 0 81.3101 0C84.7834 0.366667 88.1634 1.12667 91.4501 2.28C93.0034 2.82667 93.8767 3.80667 94.0701 5.22C94.1234 5.62 94.0634 6.81 93.8901 8.79C93.1101 17.47 89.0801 24.6067 81.8001 30.2C80.7267 31.0333 79.6267 31.07 78.5001 30.31C70.8001 25.13 66.5967 17.03 65.8901 6.01C65.7901 4.48333 66.4267 3.38 67.8001 2.7C71.0601 1.08667 74.9801 0.186667 79.5601 0ZM90.7101 3.9C83.0901 0.866667 75.5867 1.07667 68.2001 4.53C67.9201 4.67 67.7401 4.94 67.7301 5.25C67.3901 15.1833 71.2134 23.04 79.2001 28.82C79.6101 29.12 80.1701 29.12 80.5901 28.83C88.0301 23.63 92.0067 16.26 92.5201 6.72C92.5867 5.34667 91.9834 4.40667 90.7101 3.9Z" fill="#133D7A"/>
<path d="M76.26 15.1398C75.63 14.8798 75.27 14.2298 75.38 13.5598C75.8867 10.4732 77.3033 8.14984 79.63 6.58984C79.9233 6.38984 80.24 6.29651 80.58 6.30984C81.8 6.36318 81.85 6.77318 80.73 7.53984C80.45 7.72984 80.25 7.98984 80.16 8.27984C79.6 10.1198 79.27 12.0065 79.17 13.9398C79.09 15.4932 78.12 15.8932 76.26 15.1398Z" fill="#B33EED" fill-opacity="0.996"/>
<path d="M87.27 16.7901C86.1366 18.6101 85.4233 18.7001 85.13 17.0601C85.08 16.7901 85.25 16.5301 85.53 16.4301C86.27 16.1634 86.7333 15.6834 86.92 14.9901C86.99 14.7101 86.85 14.4001 86.57 14.2301C85.3433 13.5168 84.0267 13.1001 82.62 12.9801C81.62 12.8934 80.9433 12.7434 80.59 12.5301C79.6166 11.9501 79.65 11.1568 80.69 10.1501C80.92 9.93011 81.23 9.80011 81.56 9.81011C82.94 9.84344 84.17 10.2434 85.25 11.0101C86.35 11.7901 87.1167 12.5201 87.55 13.2001C88.21 14.2334 88.1166 15.4301 87.27 16.7901Z" fill="#EE344E"/>
<path d="M79.25 20.0401C78.2434 19.2134 77.1467 19.0334 75.96 19.5001C75.68 19.1201 74.9634 18.4334 73.81 17.4401C71.57 15.5068 71.4534 13.4968 73.46 11.4101C73.69 11.1701 74 11.0501 74.31 11.0901C75.61 11.2368 75.2567 11.9768 73.25 13.3101C72.73 13.6501 72.74 14.4201 73.26 14.7601C75.5934 16.2601 78.1767 16.8868 81.01 16.6401C83.9967 16.3734 84.6267 17.2268 82.9 19.2001C82.71 19.4101 82.42 19.5601 82.07 19.6101L79.25 20.0401Z" fill="#5460FF"/>
<path d="M79.25 20.0401C79.49 21.3735 80.2066 21.8935 81.4 21.6001C81.69 21.5301 81.95 21.5501 82.09 21.6501C82.33 21.8168 82.17 22.0035 81.61 22.2101C78.9166 23.1968 77.0333 22.2935 75.96 19.5001C77.1466 19.0335 78.2433 19.2135 79.25 20.0401Z" fill="#B33EED" fill-opacity="0.996"/>
<path d="M0 37.6901C0 37.0235 0 36.3568 0 35.6901C1.98667 34.5768 2.97333 34.9935 2.96 36.9401C2.96 37.2901 2.84 37.6101 2.62 37.8301C1.88 38.5835 1.00667 38.5368 0 37.6901Z" fill="#EE344E"/>
<path d="M91.8 39.4202C93.3533 39.4202 93.81 40.1102 93.17 41.4902C93.05 41.7302 92.77 41.8902 92.44 41.8802C91.6733 41.8602 91.33 42.2402 91.41 43.0202C91.47 43.5935 91.5 43.9135 91.5 43.9802C91.5 45.3935 91.5 46.8068 91.5 48.2202C91.5 48.2735 91.5266 48.6235 91.58 49.2702C91.6933 50.5835 90.9033 51.0568 89.21 50.6902C88.79 50.6002 88.5 50.2302 88.5 49.8002L88.45 42.8102C88.45 42.5402 88.27 42.2702 87.97 42.1102C87.23 41.7102 87.02 41.0968 87.34 40.2702C87.43 40.0502 87.67 39.8102 88.01 39.6102C88.5766 39.2768 88.8566 38.7568 88.85 38.0502C88.85 37.6602 88.92 37.3302 89.05 37.1202C89.8233 35.8402 90.9933 35.2602 92.56 35.3802C92.88 35.4002 93.15 35.6102 93.24 35.9002C93.56 36.9202 93.2433 37.5968 92.29 37.9302C91.86 38.0802 91.55 38.2802 91.5 38.4402L91.31 38.9402C91.23 39.1802 91.48 39.4202 91.8 39.4202Z" fill="#133D7A"/>
<path d="M27.1901 39.5198C29.3301 40.0132 29.3068 40.9698 27.1201 42.3898C26.8901 42.5398 26.7501 42.7998 26.7501 43.0698C26.7501 44.8965 26.7501 46.7398 26.7501 48.5998C26.7501 48.6598 26.7701 48.9232 26.8101 49.3898C26.9034 50.6298 26.1001 51.0565 24.4001 50.6698C24.1201 50.6098 23.9201 50.3398 23.9201 50.0398L23.9601 43.0598C23.9601 42.7798 23.8101 42.4898 23.5401 42.2598C22.5534 41.4332 22.5001 40.5465 23.3801 39.5998C23.6201 39.3498 23.7701 39.0598 23.8401 38.7698C24.1068 37.5898 24.7034 36.6865 25.6301 36.0598C26.2501 35.6398 26.9101 35.4732 27.6101 35.5598C29.0101 35.7265 28.7901 36.7765 26.9501 38.7098C26.5568 39.1232 26.6368 39.3932 27.1901 39.5198Z" fill="#133D7A"/>
<path d="M118.31 48.1699L119.47 48.3699C119.75 48.4099 120.01 48.6599 120.15 49.0199C120.59 50.1399 120.127 50.7599 118.76 50.8799C116.82 51.0399 115.587 50.2265 115.06 48.4399C114.687 47.1532 114.66 45.8599 114.98 44.5599C115.333 43.1665 114.943 42.2099 113.81 41.6899C112.717 41.1832 112.677 40.6832 113.69 40.1899C114.683 39.6965 115.157 38.8999 115.11 37.7999C115.1 37.4699 115.25 37.1899 115.5 37.0799C116.32 36.7132 116.963 36.8532 117.43 37.4999C117.58 37.7099 117.64 38.0499 117.58 38.4299C117.427 39.4899 117.907 39.8932 119.02 39.6399C119.36 39.5599 119.69 39.6399 119.88 39.8399C120.533 40.5132 120.463 41.1432 119.67 41.7299C119.47 41.8799 119.14 41.9399 118.76 41.8999C117.833 41.7932 117.39 42.2432 117.43 43.2499C117.49 44.7299 117.6 46.2099 117.76 47.6899C117.78 47.9199 118.01 48.1199 118.31 48.1699Z" fill="#133D7A"/>
<path d="M10.87 43.7799L10.88 49.6999C10.88 50.0499 10.75 50.3499 10.53 50.4799C9.92338 50.8533 9.31672 50.8566 8.71005 50.4899C8.45005 50.3299 8.30005 50.0299 8.30005 49.6899V40.0599C8.30005 39.7899 8.54005 39.5699 8.82005 39.5899C9.58005 39.6366 10.34 39.6766 11.1 39.7099C11.64 39.7299 12.39 39.6333 13.35 39.4199C15.15 39.0266 16.5534 39.4699 17.56 40.7499C18.1934 41.5566 18.51 42.8099 18.51 44.5099C18.5167 46.3166 18.4967 48.1266 18.45 49.9399C18.44 50.2599 18.27 50.5399 18 50.6699C17.2934 51.0166 16.79 51.0566 16.49 50.7899C15.59 49.9899 15.2334 48.9966 15.42 47.8099C16.0934 43.6033 15.25 41.5899 12.89 41.7699C11.5434 41.8699 10.87 42.5399 10.87 43.7799Z" fill="#133D7A"/>
<path d="M0 50.4402C0 46.9402 0 43.4402 0 39.9402C0.866667 39.3535 1.71 39.2968 2.53 39.7702C2.79 39.9202 2.95 40.2302 2.95 40.5602V49.9302C2.95 50.2502 2.76 50.5402 2.48 50.6402C1.65333 50.9402 0.826667 50.8735 0 50.4402Z" fill="#133D7A"/>
<path d="M41.04 39.9999C41.87 40.2299 42.44 40.9899 42.43 41.8499C42.39 45.3699 41.02 48.2065 38.32 50.3599C37.62 50.9099 36.63 50.8999 35.95 50.3199C33.4634 48.2132 32.14 45.3499 31.98 41.7299C31.94 40.9699 32.44 40.2799 33.17 40.0799C35.89 39.3265 38.5134 39.2999 41.04 39.9999ZM38.22 46.7899C41.0534 42.8099 40.0267 41.2332 35.14 42.0599C34.65 42.1399 34.34 42.5999 34.5 42.9999L35.98 46.7199C36.5267 48.0932 37.2734 48.1165 38.22 46.7899Z" fill="#133D7A"/>
<path d="M52.19 47.0602C51.2567 46.5869 50.2967 46.1869 49.31 45.8602C47.99 45.4336 47.1134 44.9469 46.68 44.4002C45.9 43.4202 45.8534 42.3802 46.54 41.2802C47.0134 40.5202 47.7534 39.9702 48.76 39.6302C51.3734 38.7569 53.3 39.5602 54.54 42.0402C54.68 42.3202 54.6 42.6602 54.36 42.8202C53.58 43.3269 52.69 43.1569 51.69 42.3102C50.2834 41.1236 49.3634 41.2536 48.93 42.7002C48.85 42.9802 48.99 43.2802 49.27 43.3902L53.34 45.0202C54.4534 45.4602 55.0067 46.2636 55 47.4302C54.9867 49.3902 54.0934 50.4936 52.32 50.7402C51.0667 50.9069 50.0267 50.8802 49.2 50.6602C48.2534 50.4069 47.3334 49.7902 46.44 48.8102C45.3 47.5769 45.7834 47.0702 47.89 47.2902C48.23 47.3302 48.55 47.4702 48.8 47.6902C49.8 48.5702 50.8867 48.7769 52.06 48.3102C53.0267 47.9302 53.07 47.5136 52.19 47.0602Z" fill="#133D7A"/>
<path d="M64.69 50.9999C64.1033 50.9999 63.52 50.9999 62.94 50.9999C59.42 49.7465 58.0967 47.2265 58.97 43.4399C59.2767 42.1065 59.94 41.1065 60.96 40.4399C61.7933 39.8865 62.8733 39.6165 64.2 39.6299C67.5733 39.6499 69.26 41.5199 69.26 45.2399C69.26 45.5299 69.04 45.7799 68.75 45.8299C66.99 46.0965 65.22 46.1532 63.44 45.9999C61.52 45.8332 61.1933 46.5532 62.46 48.1599C62.99 48.8399 63.97 48.9699 64.67 48.4499C65.53 47.8099 66.5 47.4065 67.58 47.2399C68.76 47.0532 69.0667 47.4865 68.5 48.5399C67.7667 49.8865 66.4967 50.7065 64.69 50.9999ZM65.56 42.4399C64.04 41.0465 62.9367 40.9832 62.25 42.2499C61.41 43.7899 61.83 44.4899 63.51 44.3499C64.0967 44.3032 64.59 44.2732 64.99 44.2599C66.6433 44.2065 66.8333 43.5999 65.56 42.4399Z" fill="#133D7A"/>
<path d="M79.19 51.0002C78.6034 51.0002 78.02 51.0002 77.44 51.0002C74.5867 50.0602 73.1067 48.3135 73 45.7602C72.9134 43.7402 73.5234 42.0868 74.83 40.8002C76.3434 39.3135 78.38 39.0668 80.94 40.0602C82.1667 40.5402 82.9134 41.4368 83.18 42.7502C83.24 43.0402 83.06 43.3302 82.77 43.4102C81.5434 43.7368 80.53 43.4202 79.73 42.4602C79.5 42.1802 79.21 42.0102 78.93 41.9702C77.13 41.7435 76.1334 42.6668 75.94 44.7402C75.7 47.3868 76.7234 48.5802 79.01 48.3202C79.28 48.2902 79.57 48.1402 79.83 47.8802C80.5234 47.1735 81.3834 46.8168 82.41 46.8102C83.4634 46.8035 83.7267 47.2568 83.2 48.1702C82.3 49.7168 80.9634 50.6602 79.19 51.0002Z" fill="#133D7A"/>
<path d="M104.96 50.2401C100.407 51.8134 98.1967 50.0668 98.33 45.0001C98.3634 43.5934 98.2967 42.1968 98.13 40.8101C98.09 40.4601 98.18 40.1401 98.38 39.9301C99.0067 39.2834 99.7434 39.2134 100.59 39.7201C100.79 39.8401 100.94 40.1301 100.96 40.5001L101.45 47.2001C101.47 47.4901 101.67 47.7801 101.99 47.9501C103.117 48.5768 104.077 48.5634 104.87 47.9101C105.423 47.4634 105.707 46.7134 105.72 45.6601C105.733 44.2801 105.687 42.8968 105.58 41.5101C105.44 39.8368 106.297 39.1768 108.15 39.5301C108.5 39.5901 108.75 39.8901 108.75 40.2401L108.7 49.9401C108.7 50.2601 108.51 50.5301 108.24 50.6201C107.413 50.8934 106.62 50.8034 105.86 50.3501C105.57 50.1801 105.24 50.1401 104.96 50.2401Z" fill="#133D7A"/>
<path d="M129.02 48.12C129.973 48.44 130.887 48.38 131.76 47.94C132.03 47.8 132.23 47.53 132.31 47.21C132.69 45.6367 132.837 43.65 132.75 41.25C132.677 39.29 133.433 38.8 135.02 39.78C135.29 39.95 135.45 40.24 135.45 40.56L135.5 49.6C135.5 50.55 134.47 51.15 133.63 50.68C132.937 50.3 132.213 50.1967 131.46 50.37C130.267 50.6567 129.603 50.8 129.47 50.8C126.45 50.7667 124.953 49.0834 124.98 45.75C124.993 44.17 125 42.3867 125 40.4C125 40.07 125.2 39.77 125.51 39.66C127.39 38.94 128.163 39.64 127.83 41.76C127.523 43.7467 127.707 45.6534 128.38 47.48C128.49 47.79 128.73 48.03 129.02 48.12Z" fill="#133D7A"/>
<path d="M143.1 40.1201C143.34 40.4801 143.84 40.5601 144.17 40.2801C144.95 39.6201 145.603 39.4134 146.13 39.6601C146.603 39.8868 146.84 40.3701 146.84 41.1101C146.847 42.1768 146.31 42.6568 145.23 42.5501C143.91 42.4168 143.25 43.0134 143.25 44.3401C143.25 46.1135 143.32 47.6601 143.46 48.9801C143.627 50.5268 142.783 51.0934 140.93 50.6801C140.64 50.6101 140.43 50.3501 140.43 50.0501L140.56 40.5701C140.56 40.2301 140.7 39.9201 140.94 39.7501C141.8 39.1168 142.52 39.2401 143.1 40.1201Z" fill="#133D7A"/>
<path d="M160 44.0599C160 44.5599 160 45.0599 160 45.5599C157.733 46.1799 155.817 46.3266 154.25 45.9999C152.27 45.5866 151.623 46.1499 152.31 47.6899C153.07 49.3699 154.197 49.5366 155.69 48.1899C156.49 47.4632 157.577 47.1632 158.95 47.2899C159.623 47.3566 159.76 47.6599 159.36 48.1999C158.247 49.7199 156.857 50.6532 155.19 50.9999C154.523 50.9999 153.857 50.9999 153.19 50.9999C149.537 49.4399 148.307 46.6866 149.5 42.7399C150.02 41.0266 151.163 40.0099 152.93 39.6899C156.663 39.0032 159.02 40.4599 160 44.0599ZM156.52 42.8799C154.513 41.6266 153.06 41.6699 152.16 43.0099C151.85 43.4799 152.12 44.1099 152.68 44.1999C154.287 44.4532 155.547 44.3599 156.46 43.9199C157.107 43.6066 157.127 43.2599 156.52 42.8799Z" fill="#133D7A"/>
</svg>
