<svg width="20" height="21" viewBox="0 0 20 21" fill="none" xmlns="http://www.w3.org/2000/svg">
<path d="M14.5824 3.75937C15.5822 4.84166 16.1327 6.11862 16.234 7.59023C16.2447 7.74752 16.25 8.00781 16.25 8.37109C16.25 9.64583 16.25 10.9207 16.25 12.1957C16.25 12.4506 16.2685 12.64 16.3055 12.7637C16.3531 12.923 16.4274 13.071 16.5281 13.2074C16.6052 13.3121 16.6444 13.3655 16.6457 13.3676C16.8194 13.6199 17.1432 14.0833 17.6172 14.7578C17.8448 15.082 17.9168 15.419 17.8332 15.7687C17.7699 16.0339 17.64 16.2546 17.4434 16.4309C17.2061 16.6436 16.906 16.75 16.543 16.75C15.3875 16.75 14.2363 16.75 13.0895 16.75C13.0811 16.75 13.073 16.7528 13.0665 16.758C13.06 16.7631 13.0554 16.7704 13.0535 16.7785C12.9483 17.2491 12.7526 17.6651 12.4664 18.0266C11.8849 18.7612 11.1408 19.1652 10.234 19.2387C9.97097 19.26 9.71173 19.2482 9.45626 19.2031C8.80366 19.088 8.24845 18.7984 7.79064 18.3344C7.35939 17.8974 7.07735 17.3764 6.94454 16.7715C6.94321 16.7654 6.93981 16.76 6.93491 16.7561C6.93001 16.7521 6.9239 16.75 6.91759 16.75C5.75952 16.75 4.606 16.75 3.45704 16.75C3.13413 16.75 2.85952 16.6645 2.63321 16.4934C2.42384 16.335 2.27696 16.1251 2.19259 15.8637C2.11082 15.6108 2.11433 15.3579 2.20314 15.1051C2.24845 14.9756 2.37071 14.772 2.56993 14.4941C3.03816 13.841 3.37618 13.3527 3.584 13.0293C3.69467 12.8572 3.75001 12.6423 3.75001 12.3848C3.75001 10.9296 3.75066 9.47448 3.75196 8.01953C3.75275 6.89192 4.02957 5.84778 4.58243 4.88711C5.12983 3.93606 5.88178 3.1776 6.83829 2.61172C7.92605 1.96849 9.11069 1.68606 10.3922 1.76445C10.6529 1.78034 10.9111 1.81276 11.1668 1.86172C12.5134 2.11927 13.652 2.75182 14.5824 3.75937ZM4.94689 12.8965C4.87397 13.2423 4.72892 13.573 4.51173 13.8887C4.17215 14.3819 3.83295 14.8755 3.49415 15.3695C3.47019 15.4047 3.44129 15.4353 3.40743 15.4613C3.37436 15.4871 3.37879 15.5 3.42071 15.5H16.5883C16.6018 15.5 16.6047 15.4945 16.5969 15.4836C16.3274 15.1026 16.0598 14.7184 15.7942 14.3309C15.5095 13.916 15.3628 13.701 15.3539 13.6859C15.1636 13.3596 15.0496 13.0072 15.0121 12.6285C15.004 12.5483 15 12.288 15 11.8477C15 10.6203 15 9.3931 15 8.16601C15 6.63034 14.4732 5.36185 13.4195 4.36054C13.23 4.1806 13.0274 4.01758 12.8117 3.87148C11.7823 3.17435 10.6418 2.89739 9.39024 3.04062C9.12514 3.07109 8.87019 3.122 8.6254 3.19336C8.04597 3.36237 7.51329 3.625 7.02735 3.98125C6.82136 4.13203 6.62566 4.30299 6.44025 4.49414C5.52306 5.43867 5.04311 6.57799 5.0004 7.91211C5.00014 7.9207 5.00014 8.18099 5.0004 8.69297C5.00092 9.83489 5.00027 10.977 4.99845 12.1191C4.99767 12.4767 4.98048 12.7358 4.94689 12.8965ZM8.77462 17.5359C9.04363 17.7664 9.34519 17.9111 9.67931 17.9699C9.93113 18.0142 10.1892 18.0029 10.4535 17.9359C11.0538 17.7841 11.4858 17.4012 11.7496 16.7871C11.7514 16.7831 11.7521 16.7787 11.7517 16.7743C11.7513 16.7699 11.7499 16.7657 11.7475 16.762C11.7451 16.7584 11.7418 16.7553 11.738 16.7532C11.7341 16.7511 11.7298 16.75 11.7254 16.75L8.28673 16.7523C8.2815 16.7524 8.27637 16.7537 8.27178 16.7562C8.26718 16.7587 8.26328 16.7623 8.26042 16.7666C8.25756 16.771 8.25582 16.776 8.25537 16.7812C8.25492 16.7864 8.25576 16.7917 8.25782 16.7965C8.38803 17.1059 8.5603 17.3523 8.77462 17.5359Z" fill="black" fill-opacity="0.74"/>
</svg>
