<svg width="21" height="21" viewBox="0 0 21 21" fill="none" xmlns="http://www.w3.org/2000/svg">
<g clip-path="url(#clip0_1_297)">
<path d="M15.3838 5.07959C15.3838 6.37485 14.8692 7.61706 13.9534 8.53295C13.0375 9.44884 11.7953 9.96338 10.5 9.96338C9.20474 9.96338 7.96253 9.44884 7.04664 8.53295C6.13075 7.61706 5.61621 6.37485 5.61621 5.07959C5.61621 3.78433 6.13075 2.54212 7.04664 1.62623C7.96253 0.710341 9.20474 0.195801 10.5 0.195801C11.1413 0.195801 11.7764 0.322124 12.3689 0.567557C12.9615 0.81299 13.4999 1.17273 13.9534 1.62623C14.4069 2.07973 14.7666 2.61812 15.012 3.21064C15.2575 3.80317 15.3838 4.43824 15.3838 5.07959ZM14.4077 5.07959C14.4077 4.04307 13.996 3.049 13.263 2.31607C12.5301 1.58314 11.536 1.17139 10.4995 1.17139C9.46299 1.17139 8.46893 1.58314 7.73599 2.31607C7.00306 3.049 6.59131 4.04307 6.59131 5.07959C6.59131 6.11611 7.00306 7.11018 7.73599 7.84311C8.46893 8.57604 9.46299 8.98779 10.4995 8.98779C11.536 8.98779 12.5301 8.57604 13.263 7.84311C13.996 7.11018 14.4077 6.11611 14.4077 5.07959Z" fill="black"/>
<path d="M3.24167 14.4541C1.91387 15.9968 1.21156 17.8075 1.13474 19.8862C1.13461 19.89 1.13522 19.8937 1.13654 19.8971C1.13786 19.9006 1.13986 19.9037 1.14242 19.9064C1.14498 19.909 1.14804 19.9111 1.15142 19.9125C1.1548 19.9139 1.15843 19.9146 1.16208 19.9146C4.51462 19.9097 7.85414 19.9097 11.1806 19.9146C11.4205 19.9149 11.5831 20.0013 11.6684 20.1738C11.7475 20.3337 11.7461 20.4919 11.664 20.6484C11.5973 20.7754 11.4881 20.8524 11.3364 20.8794C11.3025 20.8853 11.1761 20.8882 10.957 20.8882C7.38213 20.8882 3.79066 20.8882 0.182589 20.8882C0.1705 20.8882 0.158899 20.8834 0.150306 20.8749C0.141712 20.8664 0.136819 20.8549 0.136691 20.8428C0.129855 20.2119 0.159966 19.6047 0.227023 19.021C0.414197 17.3875 0.971977 15.908 1.90036 14.5825C2.08233 14.3228 2.28383 14.0676 2.50486 13.8169C3.29522 12.9198 4.20928 12.1659 5.24704 11.5552C5.92315 11.1571 6.6292 10.8158 7.36521 10.5313C7.37133 10.5289 7.3779 10.528 7.38448 10.5285C7.39106 10.529 7.39748 10.531 7.40329 10.5342C8.62562 11.2171 9.93764 11.4692 11.3393 11.2905C12.1203 11.1909 12.867 10.9396 13.5796 10.5366C13.5861 10.5328 13.5935 10.5305 13.6011 10.5298C13.6086 10.5291 13.6163 10.5301 13.6235 10.5327C13.7645 10.5842 14.0792 10.7106 14.5678 10.9121C15.2212 11.1813 15.8061 11.52 16.3227 11.9282C16.4533 12.0314 16.5172 12.1574 16.5146 12.3062C16.5123 12.4386 16.462 12.5563 16.3637 12.6592C16.2462 12.7826 16.1028 12.8237 15.9336 12.7827C15.8522 12.7632 15.7313 12.6971 15.5708 12.5845C14.9907 12.1779 14.3628 11.8506 13.687 11.6025C13.6794 11.5998 13.6714 11.5985 13.6634 11.5988C13.6555 11.5992 13.6477 11.6011 13.6406 11.6045C12.442 12.1781 11.1795 12.4089 9.853 12.2969C8.97898 12.2233 8.15459 11.9989 7.37986 11.6235C7.36376 11.6157 7.34618 11.6114 7.32832 11.611C7.31045 11.6106 7.29273 11.614 7.27634 11.6211C6.02601 12.1491 4.9085 12.8608 3.9238 13.7564C3.6738 13.9836 3.44642 14.2162 3.24167 14.4541Z" fill="black"/>
<path d="M17.5933 13.3228C17.7473 13.2072 17.9186 13.1227 18.1075 13.0693C18.295 13.0163 18.4821 13.0026 18.669 13.0283C19.0121 13.0752 19.3195 13.2344 19.5913 13.5059C19.7811 13.6956 19.9707 13.8854 20.1602 14.0752C20.406 14.321 20.5697 14.5179 20.6514 14.666C20.8985 15.1149 20.8965 15.5734 20.6455 16.0415C20.5762 16.1711 20.4589 16.3192 20.2935 16.4858C19.0386 17.7534 17.7792 19.0164 16.5152 20.2749C16.3918 20.3976 16.2871 20.4992 16.2012 20.5796C16.0713 20.7017 15.9523 20.7835 15.8443 20.8252C15.7154 20.8747 15.5795 20.897 15.4366 20.8921C15.3519 20.8895 15.3076 20.8882 15.3037 20.8882C14.541 20.8869 13.766 20.888 12.9785 20.8916C12.9696 20.8916 12.9609 20.888 12.9545 20.8816C12.9482 20.8752 12.9445 20.8665 12.9444 20.8574C12.9408 20.0264 12.9398 19.1903 12.9414 18.3491C12.9418 18.1724 12.9854 18.0093 13.0723 17.8599C13.1192 17.7791 13.2264 17.6553 13.3941 17.4883C14.5956 16.2913 15.7984 15.0957 17.0025 13.9014C17.3749 13.5319 17.5718 13.339 17.5933 13.3228ZM17.23 15.0444C16.1304 16.1392 15.0321 17.235 13.9351 18.332C13.9297 18.3374 13.9254 18.3439 13.9224 18.351C13.9195 18.3581 13.918 18.3658 13.918 18.3735V19.875C13.918 19.8798 13.9189 19.8846 13.9208 19.889C13.9226 19.8935 13.9253 19.8975 13.9287 19.9009C13.9321 19.9043 13.9362 19.907 13.9406 19.9088C13.945 19.9107 13.9498 19.9116 13.9546 19.9116H15.4473C15.4637 19.9116 15.4799 19.9084 15.495 19.9021C15.5101 19.8958 15.5237 19.8866 15.5352 19.875C16.919 18.4915 18.3015 17.1091 19.6826 15.7275C19.8373 15.5729 19.889 15.4082 19.8379 15.2334C19.8096 15.1377 19.7189 15.0133 19.5659 14.8604C19.3345 14.6283 19.1034 14.396 18.8726 14.1636C18.7258 14.0155 18.5635 13.9632 18.3858 14.0068C18.3028 14.0273 18.2105 14.0864 18.1089 14.1841C17.8133 14.4683 17.5204 14.755 17.23 15.0444Z" fill="black"/>
</g>
<defs>
<clipPath id="clip0_1_297">
<rect width="21" height="21" fill="white"/>
</clipPath>
</defs>
</svg>
