<svg width="17" height="17" viewBox="0 0 17 17" fill="none" xmlns="http://www.w3.org/2000/svg">
<g clip-path="url(#clip0_1_321)">
<path d="M1.27201 0H10.3946C10.5918 0.0154948 10.7676 0.0631966 10.9218 0.143105C11.2738 0.325723 11.5024 0.601419 11.6078 0.970195C11.6386 1.07711 11.6548 1.22342 11.6566 1.40914C11.6639 2.13496 11.666 2.86078 11.6629 3.5866C11.6629 3.60409 11.6638 3.67016 11.6656 3.78482C11.6671 3.88488 11.6627 3.95073 11.6523 3.98238C11.5919 4.16434 11.4795 4.25155 11.3153 4.24402C11.2245 4.23982 11.1484 4.21005 11.0869 4.15471C11.0169 4.09162 10.9819 4.00994 10.9819 3.90967C10.9819 3.06852 10.9819 2.22738 10.9819 1.38623C10.9819 1.11817 10.8807 0.918509 10.6781 0.787246C10.6106 0.743418 10.5387 0.71431 10.4623 0.699922C10.3939 0.687083 10.3153 0.680664 10.2266 0.680664C7.30889 0.680664 4.39111 0.680664 1.47322 0.680664C1.31053 0.680664 1.1879 0.695937 1.10533 0.726484C0.921165 0.794883 0.794883 0.921276 0.726484 1.10566C0.695937 1.18801 0.680664 1.31053 0.680664 1.47322C0.680664 6.1573 0.680664 10.8415 0.680664 15.5258C0.680664 15.6894 0.695937 15.8123 0.726484 15.8947C0.794661 16.0788 0.920944 16.2051 1.10533 16.2735C1.18768 16.3041 1.31064 16.3193 1.47422 16.3193C4.37993 16.3193 7.28565 16.3193 10.1914 16.3193C10.3512 16.3193 10.4723 16.3042 10.5546 16.2738C10.7399 16.2055 10.8661 16.0804 10.9331 15.8987C10.9657 15.8108 10.9819 15.6687 10.9819 15.4723C10.9817 14.6201 10.9803 13.768 10.9776 12.916C10.977 12.7684 11.0344 12.6611 11.1499 12.5943C11.2334 12.5462 11.3191 12.5342 11.4069 12.5581C11.4835 12.5789 11.5448 12.6204 11.5909 12.6826C11.6376 12.7457 11.661 12.8207 11.6613 12.9077C11.6622 13.8153 11.6616 14.7228 11.6596 15.6304C11.6585 16.058 11.5039 16.406 11.1958 16.6743C10.9709 16.87 10.6997 16.9785 10.3823 17H1.27633C1.05254 16.9832 0.857415 16.9272 0.690957 16.832C0.274147 16.5936 0.0438281 16.2256 0 15.728V1.26803C0.0334245 0.866048 0.197337 0.543646 0.491738 0.30082C0.707337 0.123294 0.967428 0.0230208 1.27201 0Z" fill="black"/>
<path d="M17 8.42728V8.585C16.9699 8.66092 16.9416 8.71217 16.915 8.73873C15.9991 9.65447 15.0832 10.5703 14.1675 11.4863C14.0674 11.5863 14.0112 11.6406 13.9988 11.649C13.9526 11.6806 13.9009 11.7006 13.8438 11.7087C13.7897 11.7163 13.7365 11.711 13.6841 11.6928C13.5749 11.6547 13.5043 11.5783 13.4722 11.4634C13.4375 11.3394 13.468 11.229 13.5639 11.132C14.3173 10.369 15.0717 9.6143 15.827 8.86789C15.8456 8.84952 15.8418 8.84033 15.8157 8.84033C12.2557 8.84033 8.69927 8.84033 5.14653 8.84033C5.06574 8.84033 4.99502 8.81775 4.93436 8.7726C4.87615 8.72921 4.83487 8.6721 4.81052 8.60127C4.77886 8.50896 4.78916 8.41777 4.8414 8.32767C4.90448 8.21921 5.00619 8.16487 5.14653 8.16465C8.69661 8.16133 12.2576 8.15967 15.8296 8.15967C15.8462 8.15967 15.8487 8.1538 15.8369 8.14207C15.1476 7.45764 14.4597 6.77111 13.773 6.08248C13.7022 6.01142 13.6432 5.95033 13.5961 5.8992C13.5239 5.82172 13.4812 5.75045 13.4679 5.68537C13.4513 5.6048 13.4639 5.5292 13.5058 5.45859C13.5429 5.39639 13.5968 5.34869 13.6675 5.31549C13.804 5.25107 13.932 5.27841 14.0513 5.3975C14.9754 6.32165 15.8996 7.24581 16.8237 8.16996C16.9165 8.26293 16.9753 8.3487 17 8.42728Z" fill="black"/>
</g>
<defs>
<clipPath id="clip0_1_321">
<rect width="17" height="17" fill="white"/>
</clipPath>
</defs>
</svg>
