<svg width="20" height="20" viewBox="0 0 20 20" fill="none" xmlns="http://www.w3.org/2000/svg">
<path d="M20 8.52773V8.57656C19.9672 8.80807 19.85 8.96067 19.6484 9.03437C19.5831 9.05833 19.5167 9.06835 19.4492 9.06445C19.3742 9.06002 19.3079 9.04231 19.2504 9.01132C19.1926 8.97981 19.1099 8.92382 19.0023 8.84335C18.8492 8.72825 18.7695 8.66848 18.7633 8.66406C15.8581 6.53775 12.9458 4.40598 10.0266 2.26874C10.0192 2.26341 10.0103 2.26053 10.0012 2.26053C9.99206 2.26053 9.98317 2.26341 9.97578 2.26874C7.00286 4.444 4.03464 6.61731 1.07109 8.78867C0.889583 8.92148 0.788151 8.99322 0.766797 9.0039C0.643359 9.06536 0.513802 9.07695 0.378125 9.03867C0.274219 9.00924 0.190104 8.95598 0.125781 8.8789C0.0588542 8.79869 0.0169271 8.70286 0 8.5914V8.50351C0.0208333 8.34492 0.0916667 8.22122 0.2125 8.13242C2.69089 6.30872 5.83021 4.01067 9.63047 1.23828C9.74036 1.15807 9.83333 1.11197 9.90937 1.09999C10.063 1.07604 10.2145 1.11874 10.3637 1.22812C13.4879 3.51354 16.6113 5.80025 19.734 8.08827C19.8941 8.20572 19.9828 8.35221 20 8.52773Z" fill="white"/>
<path d="M3.27148 17.8785L7.37148 17.8715C7.37908 17.8714 7.38633 17.8683 7.39167 17.863C7.39701 17.8577 7.4 17.8505 7.4 17.843C7.40286 16.3406 7.40365 14.8331 7.40234 13.3203C7.40208 12.9448 7.4875 12.5828 7.65859 12.2344C7.7737 12 7.92044 11.7861 8.09883 11.5926C8.43477 11.2283 8.84388 10.9806 9.32617 10.8496C9.75768 10.7324 10.1898 10.7285 10.6227 10.8379C10.8768 10.9022 11.1163 11.0021 11.341 11.1375C11.7309 11.3719 12.0391 11.6893 12.2656 12.0898C12.4872 12.4815 12.598 12.9145 12.598 13.3887C12.5978 14.8762 12.5977 16.3639 12.5977 17.852C12.5977 17.8548 12.5982 17.8576 12.5993 17.8602C12.6004 17.8628 12.602 17.8651 12.6039 17.8671C12.6059 17.8691 12.6083 17.8707 12.6109 17.8718C12.6135 17.8729 12.6163 17.8734 12.6191 17.8734L16.7273 17.8711C16.7354 17.8711 16.7432 17.8679 16.7489 17.8622C16.7546 17.8565 16.7578 17.8487 16.7578 17.8406C16.7578 15.1383 16.7578 12.4448 16.7578 9.76016C16.7578 9.5776 16.7768 9.44752 16.8148 9.36992C16.8628 9.27226 16.9363 9.19752 17.0355 9.1457C17.1241 9.09961 17.2223 9.08242 17.3301 9.09414C17.5254 9.11523 17.6611 9.21042 17.7371 9.37969C17.7743 9.46224 17.793 9.59232 17.793 9.76992C17.793 12.5488 17.793 15.3279 17.793 18.107C17.793 18.1089 17.7944 18.16 17.7973 18.2605C17.8072 18.6134 17.673 18.8245 17.3949 18.8937C17.3355 18.9086 17.1186 18.916 16.7441 18.916C15.2759 18.916 13.8077 18.916 12.3395 18.916C12.104 18.916 11.9464 18.8988 11.8664 18.8645C11.7484 18.8139 11.6632 18.7273 11.6105 18.6047C11.5785 18.5302 11.5626 18.4163 11.5629 18.2629C11.5668 16.6582 11.5639 15.0536 11.5543 13.4492C11.553 13.2482 11.5354 13.0861 11.5016 12.9629C11.3797 12.5202 11.1234 12.1962 10.7328 11.991C10.4979 11.8676 10.2479 11.8056 9.98281 11.8051C9.5224 11.804 9.13346 11.9861 8.81602 12.3512C8.56419 12.6408 8.43815 12.9931 8.43789 13.4082C8.43763 15.0457 8.4375 16.6831 8.4375 18.3203C8.4375 18.6185 8.30729 18.8105 8.04688 18.8965C7.98672 18.9163 7.89232 18.9259 7.76367 18.9254C6.16706 18.9194 4.57044 18.9163 2.97383 18.916C2.74206 18.916 2.58503 18.8974 2.50273 18.8602C2.38607 18.8073 2.30247 18.7191 2.25195 18.5957C2.22201 18.5223 2.20703 18.4082 2.20703 18.2535C2.20703 15.4275 2.20703 12.6014 2.20703 9.77539C2.20703 9.69883 2.20833 9.63411 2.21094 9.58125C2.21458 9.51276 2.22969 9.45065 2.25625 9.39492C2.35807 9.18216 2.51784 9.08151 2.73555 9.09297C2.89388 9.1013 3.02018 9.15898 3.11445 9.26601C3.18477 9.34622 3.22682 9.44219 3.24062 9.55391C3.24167 9.56354 3.24219 9.66575 3.24219 9.86055C3.24219 12.5116 3.24219 15.1745 3.24219 17.8492C3.24219 17.857 3.24527 17.8644 3.25077 17.8699C3.25626 17.8754 3.26371 17.8785 3.27148 17.8785Z" fill="white"/>
</svg>
