<svg width="20" height="20" viewBox="0 0 20 20" fill="none" xmlns="http://www.w3.org/2000/svg">
<path id='jobSeeker' d="M20 10.7152V11.0082C19.9273 12.3301 19.4241 13.451 18.4902 14.3711C18.4814 14.3799 18.4761 14.3916 18.4754 14.4039C18.4624 14.6599 18.4595 14.8684 18.4668 15.0293C18.5017 15.7934 18.2307 16.398 17.6539 16.8434C17.4289 17.0168 17.1746 17.1346 16.891 17.1969C16.7405 17.2297 16.4814 17.2461 16.1137 17.2461C14.7129 17.2461 13.3122 17.2461 11.9117 17.2461C11.799 17.2461 11.718 17.2335 11.6687 17.2082C11.5818 17.1632 11.5336 17.0871 11.5242 16.9801C11.5193 16.9262 11.5275 16.8772 11.5488 16.8332C11.5723 16.7842 11.6061 16.7449 11.6504 16.7152C11.6947 16.6855 11.7579 16.6686 11.8402 16.6645C11.8957 16.6616 11.9626 16.6602 12.041 16.6602C13.3465 16.6602 14.6518 16.6602 15.957 16.6602C16.3781 16.6602 16.6379 16.65 16.7363 16.6297C17.0441 16.5661 17.3085 16.4072 17.5293 16.1527C17.7587 15.8876 17.8754 15.5783 17.8793 15.2246C17.8803 15.1171 17.8809 15.0003 17.8809 14.8742C17.8809 14.8602 17.8749 14.857 17.8629 14.8648C16.966 15.4539 15.996 15.729 14.9527 15.6902C14.6876 15.6803 14.4293 15.6497 14.1777 15.5984C13.5543 15.4706 12.9669 15.225 12.4156 14.8617C12.4095 14.8576 12.4021 14.8558 12.3947 14.8566C12.3874 14.8574 12.3805 14.8607 12.3754 14.866L11.7883 15.4531C11.7832 15.458 11.7795 15.4641 11.7774 15.4709C11.7753 15.4776 11.7748 15.4848 11.7762 15.4918C11.8043 15.6444 11.79 15.7832 11.7332 15.9082C11.7004 15.9801 11.6163 16.0839 11.4809 16.2195C10.8303 16.8716 10.179 17.523 9.52695 18.1738C9.27227 18.4277 9.12852 18.5672 9.0957 18.5922C8.92747 18.7193 8.73776 18.7975 8.52656 18.827C8.32734 18.8551 8.13385 18.8361 7.94609 18.7699C7.74687 18.6999 7.58112 18.5866 7.44883 18.4301C7.24857 18.1936 7.14844 17.9259 7.14844 17.627C7.14844 17.4134 7.19948 17.218 7.30156 17.0406C7.35495 16.9479 7.48294 16.799 7.68555 16.5937C8.41055 15.8599 9.13906 15.1294 9.87109 14.4023C10.0458 14.2289 10.2497 14.1658 10.4828 14.2129C10.4944 14.2152 10.5063 14.2146 10.5175 14.2113C10.5287 14.208 10.539 14.2019 10.5473 14.1937L11.123 13.6133C11.1286 13.6078 11.132 13.6005 11.1327 13.5927C11.1334 13.5848 11.1314 13.5769 11.127 13.5703C10.5738 12.7458 10.2951 11.8418 10.2906 10.8582C10.2906 10.8507 10.2877 10.8436 10.2824 10.8383C10.2771 10.833 10.27 10.8301 10.2625 10.8301H5.42227C5.41811 10.8301 5.414 10.8309 5.41016 10.8325C5.40632 10.8341 5.40283 10.8364 5.39989 10.8393C5.39695 10.8423 5.39462 10.8458 5.39303 10.8496C5.39144 10.8534 5.39062 10.8576 5.39062 10.8617C5.39062 11.0698 5.39062 11.2711 5.39062 11.4656C5.39062 11.8055 5.38555 12.0065 5.37539 12.0687C5.33477 12.318 5.22227 12.5264 5.03789 12.6941C4.89518 12.8238 4.7332 12.9128 4.55195 12.9609C4.3582 13.0122 4.16654 13.0076 3.97695 12.9469C3.59336 12.824 3.3474 12.5819 3.23906 12.2207C3.20234 12.0978 3.18398 11.8982 3.18398 11.6219C3.18424 11.362 3.18333 11.1021 3.18125 10.8422C3.18128 10.8369 3.17934 10.8317 3.17581 10.8278C3.17227 10.8238 3.16739 10.8213 3.16211 10.8207C2.07956 10.7072 1.23047 10.2154 0.614844 9.34531C0.595573 9.31797 0.585938 9.32096 0.585938 9.3543C0.585938 11.1353 0.585938 12.913 0.585938 14.6875C0.585938 15.1141 0.594141 15.3741 0.610547 15.4676C0.672526 15.8204 0.845052 16.1113 1.12812 16.3402C1.26276 16.4491 1.40547 16.5296 1.55625 16.5816C1.71406 16.6363 1.87891 16.6633 2.05078 16.6625C3.43385 16.6562 4.8168 16.6583 6.19961 16.6687C6.30977 16.6698 6.39128 16.6879 6.44414 16.723C6.54232 16.7881 6.57852 16.8876 6.55273 17.0215C6.53451 17.1165 6.48372 17.182 6.40039 17.218C6.35664 17.2367 6.28099 17.2461 6.17344 17.2461C4.89349 17.2461 3.61354 17.2461 2.33359 17.2461C1.97214 17.2461 1.71328 17.2279 1.55703 17.1914C1.26224 17.1227 0.997917 16.9936 0.764062 16.8043C0.297396 16.4264 0.0427083 15.9251 0 15.3004V6.09141C0.0466146 5.46172 0.307812 4.95872 0.783594 4.58242C1.00312 4.40898 1.2526 4.28685 1.53203 4.21601C1.67682 4.17904 1.88125 4.1595 2.14531 4.15742C3.27422 4.14831 4.41107 4.14596 5.55586 4.15039C5.56107 4.15044 5.56625 4.14946 5.57108 4.1475C5.57591 4.14554 5.5803 4.14264 5.58401 4.13897C5.58772 4.1353 5.59066 4.13094 5.59266 4.12613C5.59467 4.12131 5.5957 4.11615 5.5957 4.11094C5.5957 3.86693 5.5957 3.62135 5.5957 3.37422C5.5957 3.0651 5.61042 2.84141 5.63984 2.70312C5.68906 2.47109 5.77604 2.26094 5.90078 2.07266C6.30625 1.4612 6.89141 1.15417 7.65625 1.15156C8.68047 1.14792 9.70456 1.15039 10.7285 1.15898C11.0087 1.16159 11.2245 1.18151 11.3758 1.21875C11.9411 1.35885 12.3672 1.69557 12.6539 2.22891C12.7784 2.46068 12.8508 2.72031 12.8711 3.00781C12.881 3.14766 12.885 3.52109 12.8832 4.12812C12.8832 4.13341 12.8852 4.13848 12.8888 4.14221C12.8924 4.14595 12.8973 4.14805 12.9023 4.14805C14.5297 4.15247 15.5219 4.15325 15.8789 4.15039C16.0607 4.14883 16.2293 4.14987 16.3848 4.15351C16.5905 4.15846 16.7582 4.17565 16.8879 4.20508C17.3035 4.29961 17.6533 4.50351 17.9371 4.8168C18.3147 5.23372 18.4913 5.7375 18.4668 6.32812C18.4579 6.5388 18.4609 6.86107 18.4758 7.29492C18.4763 7.30745 18.4816 7.31934 18.4906 7.32812C19.4362 8.25156 19.9393 9.3806 20 10.7152ZM12.2832 4.12226C12.2944 3.87539 12.2986 3.63424 12.2957 3.39883C12.2915 3.07669 12.2641 2.83828 12.2133 2.68359C12.1138 2.37995 11.9221 2.13724 11.6383 1.95547C11.5221 1.88125 11.393 1.82539 11.2508 1.78789C11.1505 1.76159 11.012 1.7474 10.8352 1.74531C9.77109 1.73281 8.7069 1.73281 7.64258 1.74531C7.45586 1.7474 7.31016 1.76276 7.20547 1.79141C7.05573 1.83203 6.92031 1.89323 6.79922 1.975C6.50938 2.17135 6.32031 2.43229 6.23203 2.75781C6.19922 2.87891 6.18294 3.07344 6.1832 3.34141C6.18346 3.60104 6.18047 3.8612 6.17422 4.12187C6.17411 4.12558 6.17476 4.12927 6.17613 4.13273C6.1775 4.13618 6.17955 4.13933 6.18218 4.14199C6.1848 4.14465 6.18793 4.14676 6.1914 4.1482C6.19486 4.14965 6.19858 4.15039 6.20234 4.15039H6.7707C6.78023 4.15039 6.78938 4.1466 6.79611 4.13986C6.80285 4.13312 6.80664 4.12398 6.80664 4.11445C6.80664 3.91575 6.80664 3.71758 6.80664 3.51992C6.80664 3.19232 6.81536 2.99518 6.83281 2.92852C6.87344 2.77461 6.95742 2.64648 7.08477 2.54414C7.17852 2.46888 7.2888 2.41901 7.41562 2.39453C7.52109 2.37422 7.64362 2.3638 7.7832 2.36328C8.79518 2.35885 9.80729 2.36146 10.8195 2.37109C10.9755 2.37266 11.0971 2.39115 11.1844 2.42656C11.3786 2.50495 11.5169 2.63958 11.5992 2.83047C11.6398 2.92448 11.6621 3.05898 11.666 3.23398C11.6728 3.52539 11.673 3.82266 11.6668 4.12578C11.6667 4.12899 11.6673 4.13218 11.6685 4.13517C11.6697 4.13815 11.6715 4.14087 11.6738 4.14316C11.676 4.14545 11.6787 4.14727 11.6817 4.14851C11.6846 4.14975 11.6878 4.15039 11.691 4.15039H12.2539C12.2615 4.1504 12.2688 4.14747 12.2742 4.14223C12.2797 4.13698 12.2829 4.12983 12.2832 4.12226ZM10.9984 2.98594C10.9401 2.95469 10.8702 2.94088 10.7887 2.94453C10.716 2.9474 10.6784 2.94883 10.6758 2.94883C9.64974 2.9444 8.62357 2.94753 7.59727 2.9582C7.52956 2.95898 7.48138 2.97227 7.45273 2.99805C7.41263 3.03398 7.39258 3.08607 7.39258 3.1543C7.39258 3.46367 7.39258 3.79128 7.39258 4.13711C7.39258 4.13885 7.39292 4.14058 7.39359 4.14219C7.39426 4.1438 7.39523 4.14527 7.39647 4.1465C7.3977 4.14773 7.39917 4.14871 7.40078 4.14938C7.40239 4.15005 7.40412 4.15039 7.40586 4.15039H11.0523C11.0607 4.15039 11.0688 4.14706 11.0747 4.14112C11.0807 4.13519 11.084 4.12714 11.084 4.11875C11.084 3.78177 11.0842 3.46029 11.0848 3.1543C11.0848 3.07279 11.056 3.01667 10.9984 2.98594ZM1.84648 9.74375C2.22539 10.0083 2.65325 10.1697 3.13008 10.2277C3.1373 10.2286 3.14463 10.2279 3.15154 10.2256C3.15845 10.2233 3.16477 10.2195 3.17006 10.2145C3.17536 10.2094 3.17949 10.2033 3.18216 10.1965C3.18484 10.1896 3.18599 10.1823 3.18555 10.175C3.16367 9.8388 3.24427 9.55365 3.42734 9.31953C3.52891 9.18984 3.65365 9.08724 3.80156 9.01172C3.95755 8.93177 4.1194 8.89336 4.28711 8.89648C4.64648 8.90299 4.93229 9.03997 5.14453 9.30742C5.24349 9.43216 5.31263 9.57018 5.35195 9.72148C5.39102 9.87122 5.40339 10.0288 5.38906 10.1941C5.38852 10.2005 5.38931 10.2069 5.39138 10.213C5.39346 10.219 5.39677 10.2246 5.4011 10.2293C5.40544 10.234 5.4107 10.2377 5.41657 10.2403C5.42243 10.2429 5.42876 10.2442 5.43516 10.2441H10.2902C10.3003 10.2441 10.31 10.2405 10.3177 10.2339C10.3253 10.2273 10.3302 10.2182 10.3316 10.2082C10.4824 9.1332 10.9342 8.21016 11.6871 7.43906C12.3025 6.80859 13.0421 6.37917 13.9059 6.15078C14.1564 6.08464 14.4126 6.03971 14.6746 6.01601C15.8204 5.91263 16.8805 6.17904 17.8547 6.81523C17.8656 6.82253 17.8715 6.81979 17.8723 6.80703C17.8767 6.71458 17.8796 6.52565 17.8809 6.24023C17.8827 5.87513 17.7763 5.55807 17.5617 5.28906C17.3062 4.96901 16.973 4.78958 16.5621 4.75078C16.4598 4.74115 16.3036 4.73633 16.0938 4.73633C11.5104 4.73633 6.92708 4.73437 2.34375 4.73047C2.15547 4.73021 2.00573 4.73542 1.89453 4.74609C1.59297 4.77474 1.32201 4.89115 1.08164 5.09531C0.746745 5.37943 0.580599 5.76107 0.583203 6.24023C0.585026 6.5918 0.585677 6.94336 0.585156 7.29492C0.583854 8.33945 1.0043 9.15573 1.84648 9.74375ZM19.4117 10.8457C19.4117 9.71387 18.9621 8.6284 18.1618 7.82807C17.3614 7.02774 16.276 6.57812 15.1441 6.57812C14.0123 6.57812 12.9268 7.02774 12.1265 7.82807C11.3262 8.6284 10.8766 9.71387 10.8766 10.8457C10.8766 11.9775 11.3262 13.063 12.1265 13.8633C12.9268 14.6637 14.0123 15.1133 15.1441 15.1133C16.276 15.1133 17.3614 14.6637 18.1618 13.8633C18.9621 13.063 19.4117 11.9775 19.4117 10.8457ZM4.59141 9.58828C4.49922 9.52109 4.4 9.48685 4.29375 9.48555C4.19245 9.48424 4.09688 9.51302 4.00703 9.57187C3.90495 9.6388 3.83555 9.73047 3.79883 9.84687C3.7793 9.90885 3.76953 10.0184 3.76953 10.1754C3.76953 10.4413 3.76953 10.704 3.76953 10.9637C3.76953 10.9697 3.77192 10.9754 3.77617 10.9797C3.78042 10.9839 3.78618 10.9863 3.79219 10.9863H4.78555C4.78806 10.9863 4.79055 10.9858 4.79287 10.9849C4.79519 10.9839 4.7973 10.9825 4.79908 10.9807C4.80086 10.9789 4.80227 10.9768 4.80323 10.9745C4.80419 10.9722 4.80469 10.9697 4.80469 10.9672C4.80469 10.6445 4.80234 10.3189 4.79766 9.99023C4.79531 9.8207 4.72656 9.68672 4.59141 9.58828ZM3.99258 12.3059C4.09362 12.3772 4.20104 12.41 4.31484 12.4043C4.42188 12.3988 4.52044 12.3607 4.61055 12.2898C4.7569 12.1753 4.8237 12.0108 4.81094 11.7965C4.80677 11.7283 4.80469 11.6648 4.80469 11.6062C4.80469 11.5972 4.80111 11.5886 4.79473 11.5822C4.78836 11.5758 4.77972 11.5723 4.7707 11.5723H3.79531C3.78882 11.5723 3.78257 11.5748 3.77791 11.5793C3.77324 11.5838 3.77052 11.59 3.77031 11.5965C3.76615 11.7335 3.76914 11.8621 3.7793 11.9824C3.78971 12.1051 3.86081 12.2129 3.99258 12.3059ZM11.9128 14.4972C11.916 14.494 11.9178 14.4896 11.9178 14.485C11.9178 14.4805 11.916 14.4761 11.9128 14.4729L11.5165 14.078C11.5149 14.0765 11.513 14.0752 11.511 14.0743C11.5089 14.0735 11.5066 14.073 11.5044 14.073C11.5021 14.073 11.4999 14.0735 11.4978 14.0744C11.4957 14.0752 11.4938 14.0765 11.4922 14.0781L11.0075 14.5645C11.0043 14.5677 11.0025 14.5721 11.0025 14.5767C11.0025 14.5812 11.0043 14.5856 11.0075 14.5888L11.4038 14.9837C11.4054 14.9853 11.4073 14.9865 11.4094 14.9874C11.4114 14.9882 11.4137 14.9887 11.4159 14.9887C11.4182 14.9887 11.4204 14.9882 11.4225 14.9874C11.4246 14.9865 11.4265 14.9852 11.4281 14.9836L11.9128 14.4972ZM10.3902 14.8082C10.3839 14.8019 10.3764 14.7969 10.3681 14.7936C10.3598 14.7902 10.3509 14.7886 10.3419 14.7887C10.3328 14.7889 10.3238 14.7908 10.3155 14.7944C10.3071 14.798 10.2994 14.8032 10.293 14.8098L10.0137 15.0887C10.0062 15.0963 10.002 15.1065 10.002 15.1172C10.002 15.1279 10.0062 15.1381 10.0137 15.1457L10.8566 15.9883C10.8586 15.9903 10.8609 15.9919 10.8634 15.993C10.8659 15.9941 10.8686 15.9947 10.8713 15.9948C10.874 15.9949 10.8766 15.9944 10.8791 15.9934C10.8815 15.9924 10.8837 15.9909 10.8855 15.9891L11.1992 15.6711C11.2063 15.6639 11.2101 15.6541 11.2099 15.6438C11.2097 15.6336 11.2054 15.6237 11.198 15.6164L10.3902 14.8082ZM7.98789 18.1242C8.1819 18.2648 8.3832 18.293 8.5918 18.2086C8.64935 18.1854 8.71003 18.1474 8.77383 18.0945C8.82956 18.0482 8.88307 17.9992 8.93437 17.9477C9.43307 17.4474 9.93568 16.944 10.4422 16.4375C10.4444 16.4354 10.4462 16.4328 10.4473 16.43C10.4485 16.4272 10.4492 16.4241 10.4492 16.421C10.4492 16.4179 10.4485 16.4149 10.4473 16.412C10.4462 16.4091 10.4444 16.4065 10.4422 16.4043L9.59961 15.5617C9.59576 15.5579 9.5912 15.5548 9.58617 15.5527C9.58114 15.5506 9.57575 15.5496 9.57031 15.5496C9.56487 15.5496 9.55948 15.5506 9.55445 15.5527C9.54943 15.5548 9.54486 15.5579 9.54102 15.5617C9.00221 16.1003 8.46758 16.6316 7.93711 17.1559C7.79779 17.2936 7.73021 17.4572 7.73438 17.6465C7.7388 17.8457 7.82331 18.0049 7.98789 18.1242Z" fill="white" fill-opacity="0.74"/>
<path d="M12.4293 13.0734C11.8069 12.3245 11.5473 11.4497 11.6504 10.4492C11.7288 9.68802 12.0421 9.01498 12.5902 8.43008C13.1652 7.8168 13.872 7.45873 14.7106 7.35586C14.9673 7.32435 15.2271 7.32214 15.4899 7.34922C16.5323 7.45599 17.3692 7.93841 18.0004 8.79649C18.2561 9.14388 18.4404 9.53854 18.5531 9.98047C18.5794 10.0841 18.5869 10.1647 18.5754 10.2223C18.5556 10.3202 18.4981 10.3871 18.4027 10.423C18.3374 10.4478 18.2737 10.452 18.2117 10.4355C18.1409 10.4168 18.0867 10.375 18.0492 10.3102C18.0193 10.2581 17.9906 10.1806 17.9633 10.0777C17.8128 9.51263 17.5182 9.03789 17.0797 8.65352C16.5706 8.20716 15.988 7.96315 15.332 7.92149C15.0719 7.90482 14.8129 7.92266 14.5551 7.975C13.8973 8.10886 13.3465 8.43633 12.9027 8.95743C12.6543 9.24935 12.4714 9.57891 12.3539 9.9461C12.2758 10.1898 12.2304 10.4454 12.2176 10.7129C12.1845 11.403 12.3723 12.0255 12.7809 12.5805C13.2215 13.1794 13.8033 13.5559 14.5262 13.7098C14.785 13.765 15.0438 13.7859 15.3024 13.7727C15.9128 13.7414 16.4606 13.5361 16.9457 13.1566C17.4686 12.7478 17.8164 12.216 17.9891 11.5613C18.0175 11.454 18.0473 11.3815 18.0785 11.3438C18.1387 11.2711 18.2176 11.2391 18.3152 11.2477C18.3986 11.255 18.4647 11.2863 18.5137 11.3418C18.5507 11.3837 18.5733 11.4339 18.5817 11.4922C18.5871 11.5318 18.582 11.5845 18.5664 11.6504C18.443 12.1759 18.2137 12.6439 17.8785 13.0543C17.3686 13.6783 16.7292 14.0816 15.9602 14.2645C15.7086 14.3244 15.4505 14.3555 15.186 14.3578C14.3615 14.3654 13.6289 14.1185 12.9883 13.6172C12.7839 13.457 12.5975 13.2758 12.4293 13.0734Z" fill="white" fill-opacity="0.74"/>
</svg>
