<svg width="22" height="22" viewBox="0 0 22 22" fill="none" xmlns="http://www.w3.org/2000/svg">
<g clip-path="url(#clip0_2_3988)">
<path d="M12.1406 1.92301C12.9533 1.92602 13.766 1.92684 14.5786 1.92547C14.7941 1.9252 15.0022 1.96854 15.2029 2.05549C15.3967 2.13916 15.5683 2.2566 15.7176 2.40781C15.9921 2.68617 16.1457 3.03467 16.1782 3.4533C16.1889 3.58975 16.1941 3.72646 16.1938 3.86346C16.1903 8.69646 16.1909 13.5295 16.1959 18.3625C16.1967 19.2017 16.1908 19.7349 16.1782 19.9621C16.1656 20.1877 16.1033 20.403 15.9912 20.6081C15.8843 20.8036 15.7435 20.9715 15.5687 21.1118C15.2658 21.3551 14.905 21.4769 14.4863 21.4772C10.5248 21.4788 6.56334 21.4788 2.60205 21.4772C1.98873 21.4769 1.51787 21.2377 1.18947 20.7594C1.05412 20.5617 0.969355 20.3404 0.935176 20.0954C0.925332 20.024 0.92041 19.7913 0.92041 19.3973C0.92041 14.3116 0.92041 9.22598 0.92041 4.14031C0.92041 3.66945 0.925879 3.39629 0.936816 3.32082C1.00463 2.84805 1.24785 2.47098 1.66648 2.18961C1.85598 2.06191 2.06488 1.98043 2.2932 1.94516C2.37742 1.93203 2.5974 1.92547 2.95314 1.92547C3.61021 1.92547 4.27166 1.92547 4.93748 1.92547C4.94901 1.92547 4.96007 1.92089 4.96822 1.91273C4.97638 1.90458 4.98096 1.89352 4.98096 1.88199C4.98041 1.53582 5.08555 1.23504 5.29637 0.979648C5.45441 0.788242 5.64978 0.657266 5.88248 0.586719C6.00908 0.548437 6.23549 0.528066 6.5617 0.525605C7.95514 0.515215 9.34871 0.516309 10.7424 0.528887C10.9434 0.530527 11.0993 0.548574 11.21 0.583027C11.3705 0.633066 11.5116 0.708809 11.6333 0.810254C11.9636 1.08588 12.126 1.44996 12.1205 1.9025C12.1205 1.90519 12.1211 1.90786 12.1221 1.91035C12.1231 1.91284 12.1246 1.9151 12.1264 1.917C12.1283 1.91891 12.1305 1.92042 12.133 1.92145C12.1354 1.92248 12.138 1.92301 12.1406 1.92301ZM5.88986 2.9648C6.01072 3.05887 6.14867 3.1059 6.30371 3.1059C7.80078 3.10508 9.29785 3.1033 10.7949 3.10057C11.026 3.10002 11.2114 3.01033 11.3511 2.8315C11.4271 2.73416 11.4647 2.62355 11.4639 2.49969C11.4622 2.28094 11.4599 2.06219 11.4569 1.84344C11.4536 1.61922 11.3726 1.44477 11.2137 1.32008C11.1369 1.25992 11.0483 1.22027 10.9479 1.20113C10.8634 1.185 10.7646 1.17693 10.6514 1.17693C9.23305 1.17693 7.81459 1.17516 6.396 1.1716C5.90244 1.17051 5.6502 1.41496 5.63926 1.90496C5.63078 2.28012 5.63352 2.50229 5.64746 2.57147C5.68027 2.73334 5.76107 2.86445 5.88986 2.9648ZM5.93047 3.70021C5.41832 3.55393 5.10346 3.18574 4.98588 2.59566C4.98493 2.59103 4.98242 2.58687 4.97875 2.58388C4.97509 2.58089 4.97051 2.57926 4.96578 2.57926C4.20535 2.58199 3.44287 2.58295 2.67834 2.58213C2.49432 2.58186 2.35008 2.59949 2.24562 2.63504C1.94129 2.73867 1.73566 2.9432 1.62875 3.24863C1.59402 3.34789 1.57666 3.47996 1.57666 3.64484C1.57666 9.06 1.57666 14.4752 1.57666 19.8903C1.57666 20.102 1.6442 20.2908 1.77928 20.4567C1.87635 20.5757 1.9942 20.6665 2.13283 20.7291C2.27174 20.792 2.42131 20.8234 2.58154 20.8234C6.54994 20.8234 10.5182 20.8253 14.4863 20.8292C14.7182 20.8292 14.9225 20.7683 15.0991 20.6466C15.3471 20.4755 15.4881 20.2336 15.522 19.9211C15.5343 19.8084 15.5402 19.4905 15.5396 18.9675C15.5347 14.1755 15.5347 9.38348 15.5396 4.59148C15.5402 3.96422 15.5343 3.59166 15.522 3.47381C15.4864 3.13666 15.3347 2.8866 15.0667 2.72363C14.9683 2.66375 14.862 2.62451 14.748 2.60592C14.6496 2.58979 14.535 2.58172 14.4043 2.58172C13.6729 2.58172 12.9268 2.58172 12.1661 2.58172C12.1549 2.58173 12.1441 2.58564 12.1355 2.59276C12.127 2.59988 12.1212 2.60977 12.1193 2.62068C12.0365 3.0683 11.815 3.39027 11.4549 3.5866C11.2421 3.70254 10.9982 3.76064 10.7231 3.76092C9.33025 3.76201 7.93736 3.76133 6.54447 3.75887C6.27103 3.75832 6.06637 3.73877 5.93047 3.70021Z" fill="white"/>
<path d="M20.4004 6.38823L19.6654 6.38618C19.6626 6.38613 19.6598 6.38664 19.6572 6.38768C19.6547 6.38873 19.6523 6.39029 19.6503 6.39228C19.6483 6.39427 19.6468 6.39664 19.6457 6.39925C19.6446 6.40187 19.644 6.40467 19.644 6.40751C19.644 10.0024 19.644 13.584 19.644 17.1524C19.644 17.2749 19.63 17.3685 19.6018 17.4333C19.1359 18.5047 18.8005 19.2681 18.5957 19.7236C18.5752 19.7693 18.542 19.8081 18.496 19.8401C18.4569 19.8677 18.411 19.8859 18.3582 19.8947C18.1996 19.9207 18.0839 19.8584 18.0112 19.7081C17.91 19.4991 17.6452 18.8908 17.2167 17.8829C17.2151 17.8796 17.1756 17.7917 17.0982 17.6191C17.0654 17.5464 17.0352 17.4727 17.0076 17.3981C16.981 17.327 16.9678 17.2496 16.9678 17.1659C16.9678 13.0154 16.9678 8.86489 16.9678 4.71438C16.9678 4.58997 16.9747 4.47526 16.9887 4.37026C17.0043 4.2535 17.037 4.14481 17.0867 4.04419C17.3066 3.6004 17.6873 3.3878 18.229 3.40639C18.3042 3.40886 18.3794 3.4105 18.4546 3.41132C18.547 3.41241 18.6218 3.41815 18.6789 3.42854C19.1312 3.50948 19.4291 3.75544 19.5727 4.16641C19.6134 4.28263 19.6357 4.43889 19.6395 4.63522C19.6464 4.97839 19.6477 5.33304 19.6436 5.69917C19.6436 5.70313 19.6443 5.70707 19.6458 5.71075C19.6473 5.71443 19.6495 5.71778 19.6523 5.72061C19.655 5.72343 19.6584 5.72567 19.662 5.7272C19.6657 5.72873 19.6696 5.72952 19.6736 5.72952C20.023 5.72952 20.3618 5.72952 20.6899 5.72952C20.8439 5.72952 20.9549 5.77792 21.023 5.87471C21.0607 5.92831 21.0796 6.01362 21.0796 6.13065C21.0796 7.01194 21.0796 7.89337 21.0796 8.77493C21.0796 8.88376 21.0494 8.97085 20.9889 9.0362C20.9315 9.09827 20.8539 9.13054 20.756 9.133C20.6384 9.13573 20.5495 9.08938 20.4894 8.99395C20.4525 8.93598 20.4333 8.84739 20.432 8.72817C20.4227 7.95516 20.419 7.18202 20.4209 6.40874C20.4209 6.4033 20.4187 6.39808 20.4149 6.39424C20.411 6.39039 20.4058 6.38823 20.4004 6.38823ZM17.7208 4.24763C17.6648 4.322 17.6359 4.3853 17.6343 4.43753C17.6225 4.84085 17.6192 5.25798 17.6244 5.68891C17.6245 5.69972 17.6289 5.71005 17.6366 5.71765C17.6443 5.72526 17.6546 5.72952 17.6654 5.72952H18.946C18.9571 5.72952 18.9677 5.72511 18.9755 5.71727C18.9834 5.70942 18.9878 5.69878 18.9878 5.68768C18.9878 5.31581 18.9878 4.96061 18.9878 4.6221C18.9878 4.3555 18.8858 4.18337 18.6818 4.10571C18.617 4.08083 18.5184 4.06839 18.3861 4.06839C18.2857 4.06839 18.1855 4.06839 18.0854 4.06839C17.9326 4.06866 17.8111 4.12841 17.7208 4.24763ZM17.6265 6.40874L17.624 16.8521C17.624 16.8611 17.6276 16.8696 17.6339 16.8759C17.6402 16.8822 17.6487 16.8858 17.6577 16.8858H18.9431C18.9549 16.8858 18.9663 16.8811 18.9747 16.8727C18.9831 16.8643 18.9878 16.8529 18.9878 16.8411V6.41407C18.9878 6.40656 18.9849 6.39937 18.9796 6.39406C18.9744 6.38875 18.9673 6.38577 18.9599 6.38577L17.6474 6.38823C17.6419 6.38823 17.6365 6.39039 17.6326 6.39424C17.6287 6.39808 17.6265 6.4033 17.6265 6.40874ZM17.8246 17.5802C17.8218 17.5802 17.819 17.5808 17.8165 17.5822C17.8139 17.5835 17.8118 17.5854 17.8102 17.5878C17.8086 17.5901 17.8077 17.5928 17.8074 17.5957C17.8071 17.5985 17.8075 17.6013 17.8086 17.604L18.2848 18.7073C18.2993 18.7415 18.3139 18.7415 18.3287 18.7073L18.7971 17.6277C18.7992 17.6229 18.8 17.6176 18.7996 17.6123C18.7991 17.6071 18.7974 17.602 18.7945 17.5976C18.7916 17.5931 18.7877 17.5895 18.7831 17.587C18.7784 17.5844 18.7732 17.5831 18.7679 17.583L17.8246 17.5802Z" fill="white"/>
<path d="M4.50702 8.07069C4.50934 8.07301 4.51208 8.07485 4.51509 8.07611C4.51811 8.07736 4.52133 8.07801 4.52458 8.07801C4.52783 8.07801 4.53103 8.07736 4.534 8.07611C4.53697 8.07485 4.53966 8.07301 4.54189 8.07069C5.06169 7.55088 5.58136 7.03121 6.10089 6.51168C6.20179 6.41078 6.30843 6.37196 6.42081 6.3952C6.52937 6.41762 6.60812 6.47805 6.65706 6.57649C6.69398 6.65059 6.69794 6.72989 6.66896 6.81438C6.65037 6.8677 6.60675 6.92881 6.53812 6.99772C5.95816 7.57741 5.37833 8.15709 4.79865 8.73678C4.61271 8.92272 4.4291 8.92354 4.24781 8.73924C4.08074 8.56944 3.91326 8.40032 3.74536 8.23188C3.67126 8.15778 3.62464 8.0942 3.6055 8.04116C3.57351 7.95256 3.5798 7.86862 3.62437 7.78932C3.67304 7.70182 3.74427 7.64604 3.83806 7.62198C3.90861 7.60393 3.9782 7.6109 4.04683 7.64289C4.08703 7.66149 4.13939 7.70319 4.20392 7.76799C4.30591 7.86998 4.40695 7.97088 4.50702 8.07069Z" fill="white"/>
<path d="M13.1883 6.73438H8.2402C8.0617 6.73438 7.91699 6.87908 7.91699 7.05758V7.0666C7.91699 7.2451 8.0617 7.38981 8.2402 7.38981H13.1883C13.3668 7.38981 13.5115 7.2451 13.5115 7.0666V7.05758C13.5115 6.87908 13.3668 6.73438 13.1883 6.73438Z" fill="white"/>
<path d="M10.7406 8.13965H8.23699C8.06053 8.13965 7.91748 8.2827 7.91748 8.45916V8.47393C7.91748 8.65039 8.06053 8.79344 8.23699 8.79344H10.7406C10.917 8.79344 11.0601 8.65039 11.0601 8.47393V8.45916C11.0601 8.2827 10.917 8.13965 10.7406 8.13965Z" fill="white"/>
<path d="M4.50364 12.1375C4.50986 12.1437 4.51827 12.1472 4.52702 12.1472C4.53578 12.1472 4.54418 12.1437 4.5504 12.1375C5.07841 11.6199 5.59985 11.1093 6.11474 10.6056C6.19349 10.5285 6.28112 10.4932 6.37765 10.4998C6.46269 10.5053 6.53911 10.5444 6.60692 10.6171C6.742 10.7626 6.7256 10.9201 6.5577 11.0896C6.33704 11.3116 5.74737 11.8875 4.7887 12.8172C4.68972 12.9132 4.58485 12.9528 4.47411 12.9361C4.40849 12.9263 4.33425 12.8816 4.2514 12.802C4.08405 12.6418 3.9189 12.4792 3.75593 12.3143C3.67362 12.2309 3.62249 12.1581 3.60253 12.0957C3.5689 11.9899 3.5864 11.8953 3.65503 11.8119C3.72011 11.7326 3.80091 11.689 3.89743 11.681C4.00188 11.6726 4.09595 11.7128 4.17962 11.8016C4.28872 11.9178 4.39673 12.0298 4.50364 12.1375Z" fill="white"/>
<path d="M13.1883 10.8467H8.2402C8.0617 10.8467 7.91699 10.9914 7.91699 11.1699V11.1789C7.91699 11.3574 8.0617 11.5021 8.2402 11.5021H13.1883C13.3668 11.5021 13.5115 11.3574 13.5115 11.1789V11.1699C13.5115 10.9914 13.3668 10.8467 13.1883 10.8467Z" fill="white"/>
<path d="M10.7403 12.2012H8.23748C8.06102 12.2012 7.91797 12.3442 7.91797 12.5207V12.5354C7.91797 12.7119 8.06102 12.855 8.23748 12.855H10.7403C10.9167 12.855 11.0598 12.7119 11.0598 12.5354V12.5207C11.0598 12.3442 10.9167 12.2012 10.7403 12.2012Z" fill="white"/>
<path d="M4.51113 16.2475C4.51633 16.2522 4.52314 16.2547 4.53016 16.2546C4.53718 16.2544 4.54387 16.2516 4.54886 16.2467C5.05882 15.7367 5.56605 15.2295 6.07054 14.725C6.14957 14.646 6.22025 14.5977 6.28259 14.5802C6.38377 14.5521 6.47482 14.5702 6.55576 14.6348C6.6274 14.6916 6.67101 14.7644 6.6866 14.853C6.70437 14.9544 6.67511 15.0433 6.59882 15.1196C6.02379 15.6946 5.44861 16.2697 4.8733 16.8447C4.75955 16.9587 4.66931 17.0245 4.60259 17.042C4.48146 17.0737 4.36238 17.031 4.24535 16.914C4.06925 16.7379 3.89425 16.5609 3.72035 16.3829C3.5634 16.2223 3.54193 16.0705 3.65595 15.9272C3.71912 15.8476 3.79527 15.8036 3.88441 15.7951C3.98394 15.7855 4.07459 15.8224 4.15634 15.9058C4.27474 16.0267 4.393 16.1406 4.51113 16.2475Z" fill="white"/>
<path d="M13.188 14.917H8.24068C8.06218 14.917 7.91748 15.0617 7.91748 15.2402V15.2492C7.91748 15.4277 8.06218 15.5724 8.24068 15.5724H13.188C13.3665 15.5724 13.5112 15.4277 13.5112 15.2492V15.2402C13.5112 15.0617 13.3665 14.917 13.188 14.917Z" fill="white"/>
<path d="M10.7398 16.2695L8.23699 16.2739C8.06053 16.2742 7.91773 16.4175 7.91804 16.5939L7.91807 16.6095C7.91837 16.786 8.06167 16.9288 8.23813 16.9285L10.7409 16.9241C10.9174 16.9238 11.0602 16.7805 11.0599 16.604L11.0598 16.5884C11.0595 16.412 10.9162 16.2692 10.7398 16.2695Z" fill="white"/>
</g>
<defs>
<clipPath id="clip0_2_3988">
<rect width="21" height="21" fill="white" transform="translate(0.5 0.5)"/>
</clipPath>
</defs>
</svg>
