<svg width="15" height="15" viewBox="0 0 15 15" fill="none" xmlns="http://www.w3.org/2000/svg">
<path fill-rule="evenodd" clip-rule="evenodd" d="M10.2147 9.43396H9.60809L9.39309 9.2024C10.1456 8.2247 10.5987 6.9554 10.5987 5.57461C10.5987 2.49571 8.36413 0 5.60744 0C2.85074 0 0.616211 2.49571 0.616211 5.57461C0.616211 8.65352 2.85074 11.1492 5.60744 11.1492C6.84372 11.1492 7.98019 10.6432 8.85557 9.80274L9.0629 10.0429V10.7204L12.9023 15L14.0464 13.7221L10.2147 9.43396ZM5.60756 9.43403C3.69554 9.43403 2.1521 7.71019 2.1521 5.57468C2.1521 3.43917 3.69554 1.71533 5.60756 1.71533C7.51959 1.71533 9.06303 3.43917 9.06303 5.57468C9.06303 7.71019 7.51959 9.43403 5.60756 9.43403Z" fill="#1C375A" fill-opacity="0.3"/>
</svg>
