<svg width="25" height="23" viewBox="0 0 25 23" fill="none" xmlns="http://www.w3.org/2000/svg">
<path d="M1.81533 22.1429C1.30031 21.665 1.04047 21.0579 1.03582 20.3218C1.02846 19.0656 1.03136 17.8096 1.04454 16.5537C1.04803 16.2211 1.07283 15.9674 1.11894 15.7924C1.18676 15.5367 1.29294 15.3016 1.43749 15.0873C1.87617 14.4359 2.47935 14.0769 3.24704 14.0103C3.25787 14.0093 3.26794 14.0042 3.27525 13.9961C3.28256 13.988 3.2866 13.9775 3.28656 13.9666C3.28656 13.1056 3.28656 12.2637 3.28656 11.4409C3.28656 10.6997 3.44603 10.0229 3.76496 9.41054C4.1986 8.5791 4.84964 7.96339 5.71809 7.56343C5.72973 7.55792 5.73958 7.54921 5.74648 7.53831C5.75338 7.52742 5.75704 7.51481 5.75703 7.50196C5.75703 5.6113 5.75703 3.74231 5.75703 1.895C5.75703 1.69955 5.79133 1.50745 5.85992 1.3187C5.92541 1.13861 6.02055 0.973113 6.14533 0.822191C6.35653 0.566846 6.61579 0.390705 6.9231 0.293768C7.09864 0.238207 7.39936 0.210426 7.82525 0.210426C12.6337 0.210426 17.4423 0.212396 22.2511 0.216337C22.8444 0.216731 23.3082 0.447448 23.6427 0.908489C23.8558 1.20245 23.9624 1.55099 23.9624 1.9541C23.9647 6.96329 23.9645 11.9727 23.9618 16.9822C23.9618 17.2597 23.9068 17.5176 23.7967 17.756C23.6866 17.994 23.5289 18.1934 23.3235 18.3541C23.0065 18.602 22.62 18.7259 22.1639 18.7259C19.3299 18.7259 16.4812 18.7259 13.6178 18.7259C13.6065 18.7259 13.5957 18.7305 13.5878 18.7386C13.5798 18.7467 13.5753 18.7576 13.5753 18.7691C13.5753 19.2971 13.575 19.7999 13.5742 20.2775C13.5726 21.0581 13.2981 21.6947 12.7505 22.1873C12.3048 22.5884 11.766 22.7892 11.1339 22.7896C8.84754 22.7896 6.56115 22.7896 4.27475 22.7896C3.5838 22.7896 3.19666 22.7837 3.11334 22.7718C2.62506 22.7029 2.19239 22.4933 1.81533 22.1429ZM7.97871 7.29331C9.36528 7.54944 10.3626 8.33715 10.9706 9.65643C11.1345 10.0127 11.239 10.3961 11.2839 10.8067C11.2983 10.9367 11.3097 11.3304 11.3182 11.9876C11.3263 12.6319 11.3265 13.2831 11.3188 13.9412C11.3186 13.9549 11.3233 13.9683 11.3319 13.9789C11.3406 13.9894 11.3526 13.9964 11.3659 13.9985C12.2204 14.1333 12.8445 14.5366 13.2382 15.2084C13.356 15.4094 13.4426 15.6271 13.498 15.8616C13.5527 16.0921 13.5804 16.3277 13.5812 16.5685C13.5827 17.119 13.5773 17.662 13.5649 18.1975C13.5647 18.2047 13.566 18.2119 13.5686 18.2187C13.5712 18.2254 13.5751 18.2315 13.5801 18.2367C13.5851 18.2419 13.5911 18.246 13.5976 18.2488C13.6042 18.2516 13.6112 18.2531 13.6184 18.2531C16.4186 18.2531 19.2138 18.2562 22.004 18.2625C22.2544 18.2633 22.4142 18.2552 22.4836 18.2383C23.1617 18.0728 23.5008 17.6443 23.5008 16.9527C23.5008 12.055 23.5008 7.15736 23.5008 2.25969C23.5008 1.90189 23.4725 1.64261 23.416 1.48183C23.2923 1.13113 23.0544 0.891347 22.7021 0.762492C22.5576 0.709689 22.3501 0.683288 22.0796 0.683288C17.3324 0.683288 12.5852 0.683288 7.83804 0.683288C7.41525 0.683288 7.12635 0.714418 6.97134 0.776679C6.67644 0.895288 6.45903 1.12167 6.31914 1.45583C6.25442 1.61108 6.22206 1.81658 6.22206 2.07232C6.22206 3.81088 6.22206 5.56204 6.22206 7.32582C6.22209 7.33285 6.22371 7.33978 6.22677 7.34607C6.22984 7.35237 6.23428 7.35785 6.23974 7.36208C6.24521 7.36632 6.25154 7.3692 6.25826 7.3705C6.26498 7.37179 6.27189 7.37147 6.27845 7.36955C6.55359 7.29193 6.83668 7.24602 7.12771 7.23183C7.39898 7.21844 7.68264 7.23893 7.97871 7.29331ZM9.74234 8.70362C9.14904 8.12712 8.46854 7.79946 7.70086 7.72065C6.81808 7.63002 6.02249 7.83217 5.31409 8.3271C4.98819 8.55486 4.70839 8.82557 4.47471 9.13924C3.9969 9.78076 3.75682 10.5283 3.7545 11.3818C3.75256 12.2436 3.75159 13.0983 3.75159 13.9459C3.75159 13.9595 3.75692 13.9726 3.76641 13.9822C3.77589 13.9919 3.78875 13.9973 3.80217 13.9973H4.53866C4.54415 13.9973 4.54959 13.9962 4.55467 13.9941C4.55975 13.9919 4.56436 13.9888 4.56825 13.9848C4.57214 13.9809 4.57522 13.9762 4.57732 13.971C4.57943 13.9659 4.58051 13.9603 4.58051 13.9547C4.57431 13.1205 4.57663 12.3005 4.58748 11.4947C4.59252 11.0943 4.62449 10.7856 4.6834 10.5685C4.82988 10.0259 5.11394 9.57171 5.53556 9.20603C6.00796 8.79622 6.54739 8.57653 7.15387 8.54698C7.54527 8.52807 7.92465 8.59131 8.29203 8.73672C8.84464 8.95542 9.28041 9.32247 9.59934 9.83789C9.75862 10.0952 9.871 10.3697 9.93649 10.6613C9.99849 10.9367 10.0295 11.236 10.0295 11.5591C10.0295 12.3322 10.0295 13.1296 10.0295 13.9512C10.0295 13.9625 10.0338 13.9734 10.0415 13.9815C10.0493 13.9896 10.0598 13.9942 10.0708 13.9944L10.7956 13.9967C10.811 13.9969 10.8259 13.9907 10.8369 13.9795C10.8479 13.9683 10.8542 13.953 10.8543 13.937C10.8551 13.1887 10.853 12.4453 10.8479 11.7069C10.8445 11.1686 10.8164 10.7765 10.7637 10.5306C10.6137 9.82844 10.2732 9.21943 9.74234 8.70362ZM8.78322 9.59023C8.28602 9.14653 7.70396 8.96428 7.03703 9.04349C6.57045 9.09865 6.17401 9.26849 5.84771 9.55299C5.31681 10.0164 5.05 10.6211 5.04728 11.367C5.04379 12.2375 5.04418 13.0995 5.04844 13.953C5.0486 13.9648 5.05332 13.9761 5.06159 13.9844C5.06986 13.9927 5.08101 13.9973 5.09262 13.9973H9.49704C9.51466 13.9973 9.53158 13.9902 9.5441 13.9776C9.55662 13.965 9.56373 13.9478 9.56388 13.9299C9.56931 13.1903 9.56756 12.467 9.55865 11.7601C9.55206 11.2076 9.51428 10.8212 9.4453 10.601C9.32401 10.2124 9.10331 9.87553 8.78322 9.59023ZM13.0941 16.4158C13.0937 16.1588 13.0435 15.9044 12.9464 15.6671C12.8492 15.4298 12.7071 15.2143 12.5281 15.0329C12.349 14.8515 12.1366 14.7077 11.9029 14.6098C11.6693 14.5118 11.4189 14.4617 11.1661 14.4621L3.41876 14.4759C2.90831 14.4768 2.41913 14.6838 2.05882 15.0515C1.69851 15.4191 1.49659 15.9173 1.49748 16.4363L1.50423 20.3705C1.50467 20.6275 1.55489 20.8819 1.65202 21.1192C1.74915 21.3565 1.89129 21.572 2.07032 21.7534C2.24935 21.9348 2.46177 22.0786 2.69545 22.1765C2.92913 22.2745 3.17949 22.3246 3.43223 22.3242L11.1796 22.3104C11.6901 22.3095 12.1792 22.1025 12.5396 21.7348C12.8999 21.3671 13.1018 20.869 13.1009 20.35L13.0941 16.4158Z" fill="black"/>
<path d="M8.26876 2.34007H7.95138C7.83227 2.34007 7.73572 2.43825 7.73572 2.55936V2.58773C7.73572 2.70884 7.83227 2.80702 7.95138 2.80702H8.26876C8.38786 2.80702 8.48442 2.70884 8.48442 2.58773V2.55936C8.48442 2.43825 8.38786 2.34007 8.26876 2.34007Z" fill="black"/>
<path d="M9.94121 2.34067H9.62267C9.50389 2.34067 9.40759 2.43858 9.40759 2.55937V2.58774C9.40759 2.70852 9.50389 2.80644 9.62267 2.80644H9.94121C10.06 2.80644 10.1563 2.70852 10.1563 2.58774V2.55937C10.1563 2.43858 10.06 2.34067 9.94121 2.34067Z" fill="black"/>
<path d="M11.6128 2.34035L11.2954 2.33979C11.1763 2.33958 11.0795 2.43759 11.0793 2.5587L11.0793 2.58707C11.0791 2.70818 11.1755 2.80653 11.2946 2.80674L11.612 2.80731C11.7311 2.80752 11.8278 2.70951 11.828 2.5884L11.828 2.56003C11.8282 2.43892 11.7319 2.34057 11.6128 2.34035Z" fill="black"/>
<path d="M22.2063 3.72733H7.51483C7.38738 3.72733 7.28406 3.83239 7.28406 3.96199V3.96554C7.28406 4.09514 7.38738 4.20019 7.51483 4.20019H22.2063C22.3337 4.20019 22.4371 4.09514 22.4371 3.96554V3.96199C22.4371 3.83239 22.3337 3.72733 22.2063 3.72733Z" fill="black"/>
<path d="M15.5738 5.73877C15.5064 5.69976 15.433 5.68262 15.3535 5.68735C15.2908 5.69089 15.2582 5.69266 15.2559 5.69266C14.9621 5.69266 14.6684 5.69266 14.3747 5.69266C14.2739 5.69266 14.1954 5.71631 14.1392 5.76359C14.0935 5.80142 14.0677 5.87078 14.0619 5.97165C14.0476 6.21636 14.0453 6.41398 14.0549 6.5645C14.1127 7.45545 13.7108 7.80399 12.8494 7.61012C12.694 7.57505 12.5616 7.4988 12.4523 7.38137C12.3062 7.22375 12.1582 7.0681 12.0082 6.91442C11.9299 6.83403 11.865 6.78695 11.8135 6.77315C11.7228 6.74872 11.6381 6.77907 11.5595 6.86418C11.3804 7.05805 11.1927 7.24267 10.9962 7.41802C10.9276 7.4791 10.8635 7.51102 10.8038 7.51377C10.7069 7.51771 10.6389 7.47102 10.5998 7.37369C10.556 7.26414 10.5814 7.16524 10.6759 7.07697C10.717 7.03835 10.7381 7.01845 10.7393 7.01727C10.8641 6.88881 10.9904 6.76212 11.1183 6.63721C11.29 6.46895 11.4329 6.36511 11.5473 6.32571C11.7972 6.23902 12.0359 6.30541 12.2634 6.5249C12.4335 6.68883 12.6017 6.85453 12.768 7.022C12.8416 7.09647 12.9121 7.14356 12.9796 7.16327C13.0408 7.181 13.1038 7.18967 13.1685 7.18927C13.1766 7.18927 13.2249 7.19045 13.3132 7.19282C13.4186 7.19558 13.4936 7.15597 13.5382 7.07401C13.5622 7.02948 13.5756 6.95343 13.5783 6.84586C13.5856 6.56963 13.5926 6.2934 13.5992 6.01717C13.6035 5.83314 13.632 5.69129 13.6847 5.59159C13.7893 5.39299 13.9501 5.2732 14.1671 5.23222C14.2121 5.22394 14.3896 5.2198 14.6996 5.2198C14.8767 5.2198 15.054 5.2198 15.2315 5.2198C15.4322 5.2198 15.5764 5.23478 15.6639 5.26472C15.8201 5.31871 15.9379 5.41466 16.0174 5.55258C16.0856 5.67119 16.1232 5.8694 16.1301 6.1472C16.1348 6.34541 16.1352 6.558 16.1313 6.78498C16.1305 6.83572 16.1454 6.88533 16.1737 6.92683C16.2625 7.05687 16.3729 7.17036 16.5051 7.26729C16.5128 7.27308 16.5214 7.27721 16.5305 7.27945C16.5396 7.28169 16.549 7.28198 16.558 7.2803C16.6541 7.26296 16.7387 7.22001 16.812 7.15144C16.9709 7.0017 17.127 6.84901 17.2805 6.69336C17.4789 6.49239 17.6332 6.37201 17.7432 6.33221C17.8994 6.27586 18.0577 6.2802 18.2181 6.34521C18.3173 6.38541 18.438 6.47762 18.5803 6.62184C18.7907 6.83502 19.0021 7.04722 19.2144 7.25843C19.4381 7.48146 19.5111 7.72794 19.4336 7.99787C19.3999 8.11451 19.3156 8.24474 19.1807 8.38857C19.0331 8.54579 18.8829 8.70085 18.7302 8.85375C18.6585 8.92546 18.6151 8.99974 18.6 9.07658C18.5841 9.15697 18.5756 9.25056 18.5745 9.35734C18.5725 9.54806 18.6599 9.64993 18.8366 9.66293C19.1121 9.68303 19.3879 9.68539 19.6638 9.67002C20.0176 9.65032 20.2675 9.77208 20.4136 10.0353C20.476 10.1484 20.5107 10.3133 20.5177 10.53C20.5266 10.8205 20.5266 11.1109 20.5177 11.4013C20.5107 11.6243 20.4756 11.7922 20.4125 11.9049C20.2741 12.1496 20.0393 12.2666 19.708 12.256C19.4789 12.2485 19.2501 12.2503 19.0215 12.2613C18.9304 12.2656 18.8529 12.292 18.7889 12.3405C18.6843 12.4193 18.5921 12.5125 18.5123 12.6201C18.4988 12.6381 18.4901 12.6595 18.4872 12.682C18.4842 12.7046 18.4871 12.7277 18.4954 12.7489C18.5384 12.8593 18.6045 12.9594 18.6936 13.0492C18.8323 13.1887 18.9734 13.3254 19.1168 13.4594C19.5001 13.8164 19.5704 14.1728 19.3278 14.5287C19.2914 14.5823 19.1408 14.7436 18.8761 15.0128C18.7731 15.118 18.6698 15.223 18.5663 15.3278C18.4342 15.4622 18.3183 15.5501 18.2187 15.5914C17.9265 15.7128 17.655 15.6421 17.4043 15.3792C17.2776 15.2468 17.1503 15.115 17.0224 14.9838C16.91 14.8684 16.8044 14.7968 16.7056 14.7692C16.5642 14.7294 16.4177 14.7316 16.2662 14.7758C16.2477 14.7811 16.2319 14.7926 16.2214 14.8083C16.152 14.9139 16.1226 15.0425 16.133 15.1942C16.1427 15.3322 16.1416 15.5585 16.1296 15.8734C16.1214 16.0873 16.0871 16.2487 16.0267 16.3575C15.9216 16.547 15.7618 16.6619 15.5471 16.7021C15.4971 16.7115 15.3252 16.7163 15.0315 16.7163C14.8594 16.7163 14.6874 16.7163 14.5153 16.7163C14.4184 16.7163 14.3471 16.7011 14.3014 16.6707C14.2231 16.6183 14.1943 16.5399 14.2148 16.4355C14.2408 16.3035 14.3328 16.2381 14.4909 16.2393C14.737 16.2416 14.9829 16.243 15.2286 16.2434C15.3816 16.2434 15.4613 16.2428 15.4675 16.2416C15.5333 16.2282 15.5839 16.192 15.6192 16.1329C15.6417 16.095 15.6543 16.0383 15.657 15.9626C15.6694 15.6624 15.6763 15.3619 15.6779 15.0612C15.6791 14.8544 15.7409 14.6692 15.8633 14.5056C15.9486 14.3914 16.061 14.3212 16.2005 14.2952C16.4931 14.24 16.7649 14.2651 17.016 14.3703C17.1032 14.4069 17.19 14.4715 17.2764 14.5641C17.4295 14.7281 17.5824 14.8924 17.7351 15.0571C17.8878 15.2218 18.0408 15.2222 18.1943 15.0583C18.4187 14.8191 18.6459 14.5825 18.8761 14.3484C18.9455 14.2779 18.9837 14.2052 18.9907 14.1303C18.9965 14.0688 18.966 14.0022 18.8994 13.9305C18.7289 13.7453 18.5531 13.5654 18.3722 13.3909C18.259 13.2817 18.1679 13.1562 18.099 13.0143C17.9699 12.7487 17.9976 12.505 18.1821 12.2832C18.3297 12.1059 18.4845 11.9719 18.6465 11.8812C18.7473 11.8245 18.8794 11.7924 19.043 11.7849C19.3615 11.7699 19.588 11.7685 19.7225 11.7808C19.8337 11.7906 19.9188 11.766 19.9777 11.7069C20.0199 11.6643 20.0436 11.5889 20.0486 11.4805C20.0641 11.1357 20.0639 10.7911 20.048 10.4467C20.0434 10.3446 20.022 10.2741 19.9841 10.2351C19.9321 10.1819 19.8546 10.1553 19.7516 10.1553C19.5094 10.1553 19.2672 10.1553 19.0249 10.1553C18.3344 10.1549 18.034 9.80026 18.124 9.09136C18.1542 8.85178 18.2491 8.65672 18.4088 8.50619C18.4747 8.44393 18.5088 8.41162 18.5111 8.40926C18.644 8.27291 18.7744 8.13381 18.9023 7.99196C19.0015 7.88201 19.0209 7.77818 18.9604 7.68046C18.9531 7.66864 18.8907 7.60303 18.7733 7.48363C18.5652 7.27202 18.3563 7.06121 18.1466 6.85118C18.0734 6.77788 17.9947 6.75148 17.9106 6.77197C17.861 6.78419 17.8 6.82714 17.7275 6.90083C17.5555 7.07579 17.3834 7.25035 17.2113 7.42452C17.0412 7.59672 16.8562 7.7041 16.6562 7.74666C16.521 7.77542 16.3857 7.74548 16.2505 7.65681C16.0695 7.53781 15.9153 7.3794 15.7878 7.18159C15.6971 7.04012 15.6558 6.8896 15.6639 6.73001C15.667 6.66972 15.6686 6.63799 15.6686 6.63484C15.6729 6.37989 15.6678 6.12454 15.6535 5.86881C15.6519 5.84215 15.6438 5.81631 15.6299 5.7936C15.616 5.7709 15.5967 5.75206 15.5738 5.73877Z" fill="black"/>
<path d="M17.223 10.9674C17.223 11.283 17.1619 11.5956 17.0431 11.8871C16.9243 12.1787 16.7502 12.4437 16.5307 12.6668C16.3113 12.89 16.0507 13.067 15.764 13.1878C15.4772 13.3086 15.1699 13.3708 14.8595 13.3708C14.2326 13.3708 13.6315 13.1176 13.1882 12.6668C12.745 12.2161 12.496 11.6048 12.496 10.9674C12.496 10.33 12.745 9.71874 13.1882 9.26803C13.6315 8.81732 14.2326 8.56412 14.8595 8.56412C15.1699 8.56412 15.4772 8.62628 15.764 8.74706C16.0507 8.86784 16.3113 9.04486 16.5307 9.26803C16.7502 9.4912 16.9243 9.75614 17.0431 10.0477C17.1619 10.3393 17.223 10.6518 17.223 10.9674ZM16.7591 10.9674C16.7591 10.4553 16.5591 9.96412 16.2029 9.60198C15.8468 9.23984 15.3637 9.03639 14.8601 9.03639C14.3564 9.03639 13.8734 9.23984 13.5172 9.60198C13.1611 9.96412 12.961 10.4553 12.961 10.9674C12.961 11.4796 13.1611 11.9708 13.5172 12.3329C13.8734 12.695 14.3564 12.8985 14.8601 12.8985C15.3637 12.8985 15.8468 12.695 16.2029 12.3329C16.5591 11.9708 16.7591 11.4796 16.7591 10.9674Z" fill="black"/>
<path d="M6.58423 17.899C6.15137 17.5329 6.02697 17.0808 6.21104 16.5425C6.26104 16.3967 6.34377 16.2645 6.45925 16.1459C6.56234 16.0399 6.68692 15.9532 6.83302 15.8858C7.25194 15.6927 7.64896 15.743 8.02408 16.0365C8.30659 16.2576 8.45539 16.5391 8.47051 16.8812C8.48368 17.1728 8.41064 17.4332 8.25136 17.6626C8.0917 17.8935 7.86423 18.0519 7.56893 18.1378C7.56084 18.1402 7.55371 18.1452 7.54858 18.152C7.54346 18.1588 7.54061 18.1671 7.54045 18.1756C7.52146 19.1946 7.51797 19.8706 7.52999 20.2036C7.53309 20.2942 7.5201 20.3685 7.49104 20.4264C7.45694 20.4938 7.40075 20.5323 7.32247 20.5417C7.23372 20.5524 7.15874 20.5124 7.09751 20.4217C7.06806 20.378 7.05527 20.3011 7.05914 20.1912C7.06302 20.0738 7.06496 20.0133 7.06496 20.0097C7.06341 19.4096 7.06476 18.7976 7.06903 18.1739C7.06902 18.1654 7.06623 18.1571 7.06108 18.1504C7.05593 18.1437 7.04871 18.1388 7.04054 18.1366C6.87236 18.0933 6.72025 18.0141 6.58423 17.899ZM8.00664 16.9728C8.00664 16.7829 7.93248 16.6009 7.80046 16.4666C7.66845 16.3324 7.4894 16.257 7.3027 16.257C7.21026 16.257 7.11872 16.2755 7.03332 16.3115C6.94791 16.3474 6.87031 16.4002 6.80494 16.4666C6.73958 16.5331 6.68772 16.612 6.65235 16.6989C6.61697 16.7857 6.59876 16.8788 6.59876 16.9728C6.59876 17.0668 6.61697 17.1599 6.65235 17.2467C6.68772 17.3336 6.73958 17.4125 6.80494 17.4789C6.87031 17.5454 6.94791 17.5981 7.03332 17.6341C7.11872 17.6701 7.21026 17.6886 7.3027 17.6886C7.4894 17.6886 7.66845 17.6132 7.80046 17.4789C7.93248 17.3447 8.00664 17.1626 8.00664 16.9728Z" fill="black"/>
</svg>
