<svg width="25" height="25" viewBox="0 0 25 25" fill="none" xmlns="http://www.w3.org/2000/svg">
<g clip-path="url(#clip0_1_303)">
<path d="M19.2241 5.23877C19.5386 5.53141 19.8438 5.85579 20.1397 6.21191C20.1464 6.21994 20.1553 6.22586 20.1653 6.22898C20.1754 6.2321 20.1861 6.23227 20.1963 6.22949C20.4971 6.14583 20.7897 6.06396 21.0742 5.98389C21.4274 5.88428 21.6439 5.83447 21.7236 5.83447C21.8971 5.83415 22.0532 5.88867 22.1919 5.99805C22.2762 6.06413 22.3747 6.18831 22.4873 6.37061C22.7002 6.71468 22.846 6.97559 22.9248 7.15332C23.0143 7.35482 23.019 7.55013 22.939 7.73926C22.8944 7.84473 22.7806 7.98828 22.5977 8.16992C22.3415 8.42415 22.0729 8.68376 21.792 8.94873C21.7807 8.95944 21.7728 8.97319 21.7692 8.98829C21.7657 9.00339 21.7666 9.01917 21.772 9.03369C21.9943 9.64469 22.1561 10.2552 22.2573 10.8652C22.2595 10.8787 22.2656 10.8912 22.2748 10.9012C22.284 10.9112 22.2959 10.9182 22.3091 10.9214C22.5754 10.9875 22.8449 11.0557 23.1177 11.126C23.5233 11.2301 23.7575 11.3003 23.8203 11.3364C24.0602 11.4741 24.1877 11.7114 24.2026 12.0483C24.2121 12.2599 24.2158 12.4717 24.2139 12.6836C24.2109 12.9805 24.1841 13.1886 24.1333 13.3081C24.0334 13.5438 23.8379 13.6968 23.5469 13.7671C23.1276 13.8683 22.7095 13.974 22.2925 14.084C22.2854 14.0857 22.279 14.0894 22.274 14.0947C22.2691 14.1 22.2658 14.1067 22.2647 14.1138C22.155 14.7502 21.9912 15.3724 21.7734 15.9805C21.771 15.9874 21.7705 15.9948 21.772 16.002C21.7736 16.0092 21.7771 16.0157 21.7822 16.021C22.2428 16.4923 22.5373 16.7845 22.6655 16.8975C23.0207 17.2103 23.0796 17.5806 22.8423 18.0083C22.6821 18.2974 22.5452 18.5379 22.4316 18.73C22.2764 18.992 22.068 19.1349 21.8066 19.1587C21.6849 19.1698 21.4572 19.1276 21.1235 19.0322C20.8224 18.9463 20.5156 18.8582 20.2031 18.7681C20.192 18.7647 20.1801 18.7647 20.1689 18.7681C20.1577 18.7715 20.1477 18.7781 20.1401 18.7871C19.7127 19.2946 19.2658 19.741 18.7993 20.1265C18.7874 20.1363 18.7786 20.1495 18.7741 20.1643C18.7695 20.1791 18.7692 20.195 18.7734 20.21C18.8698 20.5505 18.9653 20.8882 19.0601 21.2231C19.1382 21.4995 19.1717 21.693 19.1606 21.8037C19.146 21.9521 19.0908 22.085 18.9951 22.2021C18.9362 22.2741 18.8273 22.3605 18.6685 22.4614C18.3254 22.6795 18.0545 22.833 17.856 22.9219C17.66 23.0091 17.4666 23.0161 17.2759 22.9429C17.1655 22.9006 17.0293 22.7977 16.8672 22.6343C16.597 22.3625 16.3252 22.0824 16.0518 21.7939C16.0407 21.7824 16.0266 21.7743 16.011 21.7706C15.9955 21.767 15.9793 21.768 15.9644 21.7734C15.3748 21.9889 14.7648 22.1512 14.1343 22.2603C14.122 22.2623 14.1105 22.2679 14.1013 22.2763C14.0921 22.2847 14.0856 22.2956 14.0825 22.3076C13.993 22.6478 13.9082 22.9808 13.8281 23.3066C13.7594 23.5853 13.6937 23.7715 13.6309 23.8652C13.5059 24.0514 13.3268 24.1619 13.0938 24.1968C13.0423 24.2043 12.8825 24.2106 12.6143 24.2158C12.5075 24.2178 12.4009 24.2171 12.2944 24.2139C12.09 24.2074 11.9829 24.2036 11.9731 24.2026C11.5855 24.1688 11.34 23.9499 11.2368 23.5459C11.131 23.1318 11.0269 22.7163 10.9243 22.2993C10.9219 22.2888 10.9163 22.2792 10.9084 22.2718C10.9005 22.2644 10.8906 22.2596 10.8799 22.2578C10.2344 22.152 9.62256 21.992 9.04444 21.7778C9.02987 21.7724 9.01406 21.7714 8.9989 21.7747C8.98374 21.7781 8.96988 21.7858 8.95899 21.7969C8.64453 22.1117 8.35043 22.4129 8.07666 22.7007C7.77035 23.022 7.41879 23.0754 7.02198 22.8608C6.81494 22.7485 6.56299 22.6016 6.26612 22.4199C5.98129 22.2454 5.83757 22.0158 5.83496 21.731C5.83431 21.6392 5.88965 21.3979 6.00098 21.0073C6.07845 20.7352 6.15495 20.4674 6.23047 20.2041C6.2341 20.1914 6.23401 20.1779 6.2302 20.1653C6.22639 20.1527 6.21903 20.1414 6.20899 20.1328C5.70899 19.71 5.26302 19.2671 4.8711 18.8042C4.8602 18.7912 4.84579 18.7816 4.8296 18.7766C4.81341 18.7716 4.79612 18.7713 4.77979 18.7759C4.49007 18.8576 4.19955 18.9398 3.90821 19.0225C3.59994 19.11 3.4292 19.1558 3.396 19.1597C3.19776 19.1847 3.01888 19.1437 2.85938 19.0366C2.75033 18.9634 2.62403 18.8102 2.48047 18.5771C2.25847 18.2165 2.12435 17.9761 2.07813 17.856C1.99642 17.6427 1.99235 17.444 2.06592 17.2598C2.10791 17.1543 2.22347 17.008 2.4126 16.8208C2.67888 16.5575 2.94662 16.2975 3.21582 16.041C3.22425 16.0328 3.23012 16.0224 3.23272 16.011C3.23532 15.9995 3.23454 15.9876 3.23047 15.9766C3.00619 15.3626 2.84115 14.743 2.73535 14.1177C2.73392 14.1091 2.73005 14.1012 2.72423 14.0948C2.71842 14.0885 2.71091 14.084 2.70264 14.082C2.2417 13.9674 1.79151 13.8521 1.35205 13.7358C1.1473 13.6818 0.99626 13.5659 0.898929 13.3882C0.834801 13.2707 0.799482 13.096 0.792972 12.8643C0.786787 12.6504 0.78695 12.3906 0.79346 12.085C0.803551 11.6182 1.02702 11.3317 1.46387 11.2256C1.86817 11.1276 2.27588 11.0277 2.68701 10.9258C2.70193 10.922 2.71542 10.914 2.72583 10.9027C2.73624 10.8914 2.74311 10.8774 2.74561 10.8623C2.84619 10.235 3.00668 9.62435 3.22705 9.03027C3.23098 9.01999 3.23182 9.00879 3.22948 8.99804C3.22713 8.98728 3.22171 8.97745 3.21387 8.96973C2.94174 8.69987 2.66927 8.4305 2.39649 8.16162C2.2168 7.98421 2.10547 7.84082 2.0625 7.73145C1.9795 7.52051 1.99691 7.30029 2.11475 7.0708C2.22998 6.84684 2.37712 6.58447 2.55616 6.28369C2.79964 5.87516 3.15723 5.74219 3.62891 5.88477C4.02214 6.00358 4.41521 6.12109 4.80811 6.2373C4.81479 6.23932 4.82191 6.23933 4.82859 6.23733C4.83527 6.23533 4.84123 6.23142 4.84571 6.22607C5.26628 5.73421 5.72022 5.27539 6.20752 4.84961C6.21294 4.84495 6.21695 4.83884 6.21911 4.83194C6.22126 4.82505 6.22148 4.81764 6.21973 4.81055C6.12598 4.4388 6.02653 4.06852 5.92139 3.69971C5.85401 3.4624 5.82748 3.28776 5.8418 3.17578C5.86035 3.03255 5.91602 2.90495 6.00879 2.79297C6.06673 2.72298 6.17302 2.63965 6.32764 2.54297C6.62712 2.35547 6.88298 2.20866 7.09522 2.10254C7.31039 1.99512 7.51905 1.97982 7.7212 2.05664C7.83415 2.09961 7.97982 2.21126 8.15821 2.3916C8.42611 2.66243 8.69336 2.93766 8.95996 3.21729C8.96848 3.22626 8.97952 3.2325 8.99169 3.23519C9.00385 3.23788 9.01661 3.23692 9.02832 3.23242C9.62338 3.00716 10.2357 2.84391 10.8652 2.74268C10.8794 2.74048 10.8926 2.73412 10.9032 2.72439C10.9138 2.71466 10.9213 2.702 10.9248 2.68799C11.0124 2.33252 11.1009 1.9777 11.1904 1.62354C11.2546 1.37061 11.3177 1.20085 11.3799 1.11426C11.4577 1.00618 11.5591 0.923665 11.6841 0.866699C11.7759 0.824707 11.9002 0.802083 12.0571 0.798828C12.2365 0.795247 12.5143 0.793457 12.8906 0.793457C13.2035 0.793457 13.4406 0.89502 13.6021 1.09814C13.6691 1.18245 13.7275 1.32194 13.7773 1.5166C13.8783 1.91243 13.9824 2.30745 14.0898 2.70166C14.0917 2.70868 14.0956 2.71503 14.1011 2.71996C14.1065 2.72489 14.1133 2.7282 14.1206 2.72949C14.7521 2.84668 15.3737 3.01318 15.9854 3.229C15.9906 3.23091 15.9963 3.23129 16.0017 3.23007C16.0072 3.22886 16.0122 3.22612 16.0161 3.22217C16.283 2.9585 16.5482 2.69271 16.8115 2.4248C17.0055 2.22754 17.1541 2.10791 17.2573 2.06592C17.4468 1.98877 17.6514 1.99593 17.8711 2.0874C18.0342 2.15544 18.3272 2.32243 18.75 2.58838C19.1234 2.8234 19.2451 3.16016 19.1152 3.59863C18.9951 4.00553 18.8797 4.40527 18.769 4.79785C18.765 4.8123 18.7654 4.82765 18.7702 4.84192C18.775 4.85619 18.7839 4.86873 18.7959 4.87793C18.9502 4.99642 19.0929 5.1167 19.2241 5.23877ZM17.2861 21.959C17.3493 22.0257 17.4259 22.1001 17.5161 22.1821C17.5239 22.1893 17.5336 22.1939 17.544 22.1953C17.5544 22.1966 17.5648 22.1945 17.5737 22.1895L18.3481 21.7476C18.3608 21.7403 18.3706 21.7289 18.376 21.7152C18.3814 21.7014 18.3821 21.6862 18.3779 21.6719C18.2767 21.3158 18.173 20.9554 18.0669 20.5908C18.0005 20.3613 17.9733 20.1888 17.9854 20.0732C18.0065 19.8779 18.0915 19.7145 18.2402 19.583C18.7028 19.1755 19.089 18.7988 19.3989 18.4531C19.5884 18.2415 19.7243 18.1144 19.8066 18.0718C19.9948 17.9748 20.2122 17.9608 20.459 18.0298C20.8639 18.1431 21.2681 18.2601 21.6714 18.3809C21.6834 18.3845 21.6962 18.3841 21.7077 18.3798C21.7192 18.3754 21.7288 18.3674 21.7349 18.3569L22.1909 17.5728C22.1965 17.5633 22.1986 17.5521 22.1969 17.541C22.1952 17.53 22.1899 17.5196 22.1816 17.5117C21.9294 17.2676 21.6813 17.0267 21.4375 16.7891C21.2604 16.6162 21.1613 16.5158 21.1401 16.4878C21.0503 16.3674 20.9997 16.231 20.9883 16.0786C20.9805 15.9748 21.0036 15.8379 21.0576 15.668C21.0912 15.5628 21.1348 15.4295 21.1885 15.2681C21.306 14.9146 21.4041 14.4972 21.4829 14.0161C21.52 13.7879 21.6198 13.6095 21.7822 13.481C21.8708 13.411 22.0231 13.3481 22.2393 13.2925C22.626 13.1932 23.0124 13.0928 23.3984 12.9912C23.4054 12.9896 23.4116 12.9857 23.4161 12.9803C23.4207 12.9748 23.4234 12.968 23.4238 12.9609C23.4417 12.6517 23.4398 12.3426 23.418 12.0337C23.4174 12.0264 23.4147 12.0194 23.4102 12.0138C23.4058 12.0083 23.3998 12.0043 23.3931 12.0024C23.1532 11.9386 22.7285 11.8319 22.1191 11.6821C21.8939 11.6268 21.7253 11.5096 21.6133 11.3306C21.5589 11.2443 21.5093 11.0817 21.4644 10.8428C21.3719 10.3555 21.2441 9.87728 21.0811 9.4082C21.0804 9.40658 21.07 9.37842 21.0498 9.32373C20.9163 8.96566 20.993 8.646 21.2798 8.36475C21.5718 8.07894 21.8732 7.78613 22.1841 7.48633C22.1906 7.47993 22.1949 7.47165 22.1964 7.46269C22.1979 7.45373 22.1965 7.44457 22.1924 7.43652C22.0472 7.15072 21.8879 6.88086 21.7144 6.62695C21.7106 6.62119 21.705 6.61684 21.6984 6.61455C21.6917 6.61226 21.6845 6.61216 21.6777 6.61426C21.3581 6.71257 21.0373 6.8068 20.7153 6.89697C20.4624 6.96794 20.3154 7.00586 20.2744 7.01074C20.1094 7.03092 19.9554 7.00391 19.8125 6.92969C19.7207 6.88184 19.5859 6.75684 19.4082 6.55469C19.1035 6.20931 18.7783 5.88444 18.4326 5.58008C18.2327 5.40397 18.1097 5.27474 18.0635 5.19238C17.9662 5.01888 17.9468 4.83024 18.0054 4.62646C18.1281 4.19938 18.2531 3.76204 18.3804 3.31445C18.3831 3.30511 18.3826 3.29517 18.379 3.28623C18.3755 3.27729 18.3691 3.26986 18.3608 3.26514L17.563 2.80127C17.5568 2.79764 17.5496 2.79624 17.5424 2.7973C17.5352 2.79836 17.5285 2.80183 17.5234 2.80713C17.3314 3.00374 17.1421 3.19824 16.9556 3.39062C16.6633 3.69238 16.4831 3.86247 16.415 3.90088C16.1816 4.03304 15.9092 4.03988 15.5977 3.92139C15.1774 3.76188 14.6771 3.62793 14.0967 3.51953C13.8884 3.48079 13.742 3.43311 13.6577 3.37646C13.4891 3.26351 13.3758 3.09424 13.3179 2.86865C13.2105 2.45003 13.103 2.02458 12.9956 1.59229C12.9943 1.58727 12.9915 1.58283 12.9876 1.57965C12.9837 1.57646 12.979 1.57473 12.9741 1.57471L12.0527 1.5752C12.0401 1.57516 12.0278 1.57956 12.0177 1.5877C12.0076 1.59584 12.0003 1.60725 11.9971 1.62012C11.8818 2.06836 11.7728 2.50081 11.6699 2.91748C11.6191 3.12321 11.5085 3.27913 11.3379 3.38525C11.2507 3.43929 11.0832 3.49007 10.8355 3.5376C10.311 3.63818 9.79704 3.77913 9.29346 3.96045C9.07308 4.03955 8.86996 4.03841 8.68409 3.95703C8.5848 3.91374 8.4375 3.79248 8.24219 3.59326C7.98698 3.33252 7.73145 3.07227 7.47559 2.8125C7.47058 2.80748 7.46409 2.80423 7.45711 2.80325C7.45014 2.80228 7.44307 2.80365 7.43702 2.80713L6.63672 3.26416C6.6289 3.26867 6.62283 3.27573 6.61947 3.28422C6.61611 3.29271 6.61565 3.30215 6.61817 3.31104C6.73503 3.72575 6.85319 4.13151 6.97266 4.52832C7.0459 4.77214 7.0306 4.99284 6.92676 5.19043C6.87891 5.28223 6.75179 5.41895 6.54541 5.60059C6.18897 5.91504 5.85466 6.25163 5.54248 6.61035C5.41065 6.76204 5.30941 6.85986 5.23877 6.90381C5.10889 6.98454 4.96875 7.02279 4.81836 7.01856C4.75358 7.01693 4.55974 6.97152 4.23682 6.88232C3.92888 6.79736 3.62484 6.71029 3.32471 6.62109C3.3141 6.618 3.30287 6.61833 3.29279 6.62204C3.28272 6.62576 3.27436 6.63264 3.26905 6.6416L2.80909 7.42627C2.80351 7.43573 2.80145 7.44694 2.80322 7.4581C2.80499 7.46926 2.8105 7.47972 2.81885 7.48779C3.00993 7.67497 3.20085 7.86084 3.3916 8.04541C3.69336 8.33773 3.86312 8.51693 3.90088 8.58301C4.03467 8.81673 4.04151 9.08984 3.92139 9.40234C3.74593 9.8597 3.60563 10.4071 3.50049 11.0444C3.46468 11.2609 3.36101 11.4279 3.18946 11.5454C3.09961 11.6069 2.92578 11.6701 2.66797 11.7349C2.31641 11.8234 1.96534 11.9113 1.61475 11.9985C1.60373 12.0013 1.59396 12.0075 1.58698 12.0161C1.57999 12.0247 1.57619 12.0352 1.57617 12.0459L1.57569 12.9497C1.5757 12.9617 1.57997 12.9735 1.58784 12.9831C1.5957 12.9927 1.60671 12.9997 1.61914 13.0029C2.06836 13.1178 2.50114 13.2269 2.91748 13.3301C3.12354 13.3812 3.27963 13.4922 3.38575 13.6631C3.43978 13.75 3.49007 13.9167 3.53662 14.1631C3.62224 14.6146 3.73845 15.0579 3.88526 15.4932C3.97445 15.7572 4.01677 15.9391 4.01221 16.0391C4.00244 16.2539 3.90707 16.4505 3.72608 16.6289C3.43083 16.9199 3.13021 17.2122 2.82422 17.5059C2.81475 17.515 2.80854 17.527 2.8066 17.5398C2.80465 17.5527 2.80707 17.5656 2.81348 17.5767L3.25489 18.3481C3.26188 18.3602 3.27276 18.3695 3.28583 18.3747C3.2989 18.38 3.31343 18.3807 3.32715 18.377C3.74772 18.2601 4.16455 18.1403 4.57764 18.0176C4.79704 17.9525 4.99886 17.9681 5.18311 18.0645C5.27132 18.1107 5.40544 18.235 5.58545 18.4375C5.91521 18.8083 6.30664 19.1901 6.75977 19.583C6.89519 19.7005 6.97803 19.8472 7.0083 20.0229C7.02718 20.133 7.0114 20.283 6.96094 20.4731C6.85612 20.8677 6.74268 21.2661 6.62061 21.6685C6.61701 21.6806 6.61741 21.6934 6.62174 21.705C6.62608 21.7166 6.6341 21.7263 6.64453 21.7324L7.43457 22.1934C7.4423 22.1978 7.45139 22.1995 7.46041 22.1981C7.46943 22.1966 7.47786 22.1922 7.48438 22.1855C7.74414 21.9183 7.99838 21.6561 8.24707 21.3989C8.43392 21.2056 8.58252 21.0869 8.69287 21.043C8.88721 20.9655 9.09929 20.9692 9.3291 21.0542C9.84831 21.2456 10.417 21.3931 11.0352 21.4966C11.2435 21.5314 11.4072 21.6281 11.5264 21.7866C11.5951 21.8784 11.6602 22.0452 11.7217 22.2871C11.8135 22.6471 11.9058 23.0173 11.9985 23.3975C12.0005 23.4056 12.005 23.4128 12.0113 23.4179C12.0176 23.423 12.0253 23.4258 12.0332 23.4258H12.9443C12.9586 23.4258 12.9725 23.4208 12.9838 23.4117C12.9952 23.4026 13.0033 23.3898 13.0068 23.3755C13.1152 22.9465 13.2199 22.5246 13.3208 22.1099C13.3745 21.8892 13.4902 21.7235 13.668 21.6128C13.7546 21.5591 13.9181 21.5094 14.1587 21.4639C14.632 21.3747 15.0965 21.2515 15.5522 21.0942C15.7505 21.0259 15.8918 20.9896 15.9761 20.9854C16.1375 20.9769 16.2842 21.012 16.416 21.0908C16.4769 21.1273 16.6252 21.2681 16.8608 21.5132C17.0034 21.6613 17.1452 21.8099 17.2861 21.959Z" fill="black"/>
<path d="M19.5273 12.499C19.5273 13.422 19.3456 14.3359 18.9923 15.1886C18.6391 16.0414 18.1214 16.8162 17.4688 17.4688C16.8162 18.1214 16.0414 18.6391 15.1886 18.9923C14.3359 19.3456 13.422 19.5273 12.499 19.5273C10.635 19.5273 8.84732 18.7869 7.52925 17.4688C6.21118 16.1507 5.4707 14.3631 5.4707 12.499C5.4707 10.635 6.21118 8.84732 7.52925 7.52925C8.84732 6.21118 10.635 5.4707 12.499 5.4707C13.422 5.4707 14.3359 5.6525 15.1886 6.0057C16.0414 6.35891 16.8162 6.87661 17.4688 7.52925C18.1214 8.18189 18.6391 8.95669 18.9923 9.8094C19.3456 10.6621 19.5273 11.5761 19.5273 12.499ZM18.7461 12.5C18.7461 10.8432 18.0879 9.25421 16.9164 8.08265C15.7448 6.9111 14.1558 6.25293 12.499 6.25293C10.8422 6.25293 9.25323 6.9111 8.08168 8.08265C6.91012 9.25421 6.25195 10.8432 6.25195 12.5C6.25195 14.1568 6.91012 15.7458 8.08168 16.9173C9.25323 18.0889 10.8422 18.7471 12.499 18.7471C14.1558 18.7471 15.7448 18.0889 16.9164 16.9173C18.0879 15.7458 18.7461 14.1568 18.7461 12.5Z" fill="black"/>
<path d="M10.0435 15.8354C9.49403 15.3472 9.04741 14.7887 8.70366 14.1602C8.3853 13.5778 8.22238 12.9471 8.21489 12.2681C8.20838 11.6756 8.20464 11.0832 8.20366 10.4907C8.20269 10.1047 8.21603 9.86686 8.2437 9.77734C8.30327 9.58268 8.4273 9.43571 8.61577 9.33643C8.69357 9.29541 8.83827 9.25651 9.04985 9.21973C9.40988 9.15755 9.74517 9.05371 10.0557 8.9082C10.6674 8.62109 11.225 8.23796 11.7286 7.75879C11.9447 7.55306 12.0941 7.43018 12.1768 7.39014C12.3874 7.28825 12.6026 7.28841 12.8223 7.39063C12.9131 7.43262 13.0344 7.52767 13.1861 7.67578C13.6646 8.14323 14.1897 8.52555 14.7613 8.82275C15.1076 9.00244 15.488 9.13184 15.9024 9.21094C15.904 9.21126 15.9576 9.21956 16.063 9.23584C16.564 9.31234 16.8117 9.61914 16.8062 10.1562C16.8016 10.6081 16.7987 11.0599 16.7974 11.5117C16.7961 12.0745 16.792 12.3997 16.7852 12.4873C16.7253 13.2529 16.4698 13.9621 16.0186 14.6147C15.6849 15.0975 15.3073 15.5282 14.8858 15.9067C14.6765 16.0946 14.4236 16.2996 14.127 16.522C13.615 16.9054 13.1083 17.2118 12.607 17.4409C12.5393 17.4715 12.4524 17.4609 12.3462 17.4092C11.5546 17.0212 10.787 16.4966 10.0435 15.8354ZM10.897 15.5366C11.3791 15.9416 11.9029 16.297 12.4683 16.603C12.4794 16.609 12.4918 16.6121 12.5043 16.6121C12.5169 16.6121 12.5292 16.609 12.5401 16.603C13.2256 16.2235 13.8511 15.7796 14.4166 15.2715C14.884 14.8516 15.2655 14.3866 15.5611 13.8765C15.8104 13.4458 15.9579 12.9827 16.0035 12.4873C16.0123 12.3913 16.017 12.0659 16.0176 11.5112C16.0183 11.022 16.0147 10.5329 16.0069 10.0439C16.0068 10.037 16.0042 10.0303 15.9996 10.025C15.9951 10.0198 15.9888 10.0163 15.982 10.0151C15.0562 9.86442 14.2247 9.51009 13.4874 8.95215C13.3301 8.83301 13.1674 8.70085 12.9991 8.55566C12.8467 8.42415 12.6932 8.28076 12.5386 8.12549C12.5336 8.12038 12.5276 8.11632 12.521 8.11356C12.5143 8.11079 12.5072 8.10936 12.5001 8.10936C12.4929 8.10936 12.4858 8.11079 12.4791 8.11356C12.4725 8.11632 12.4665 8.12038 12.4615 8.12549C11.9944 8.59684 11.495 8.99382 10.9634 9.31641C10.3674 9.67773 9.71815 9.90967 9.01568 10.0122C9.00698 10.0136 8.99906 10.018 8.99333 10.0246C8.9876 10.0312 8.98445 10.0396 8.98443 10.0483C8.98443 10.7756 8.98459 11.491 8.98491 12.1948C8.98556 12.7586 9.12049 13.2868 9.3897 13.7793C9.60877 14.1794 9.87277 14.5438 10.1817 14.8726C10.3692 15.0721 10.6076 15.2935 10.897 15.5366Z" fill="black"/>
<path d="M11.9942 13.123C11.9989 13.1279 12.0047 13.1318 12.0111 13.1342C12.0174 13.1367 12.0243 13.1378 12.0311 13.1373C12.0379 13.1369 12.0446 13.135 12.0506 13.1318C12.0566 13.1286 12.0618 13.1241 12.066 13.1186C12.62 12.3755 13.17 11.6431 13.7159 10.9214C13.8178 10.7866 13.8983 10.7038 13.9576 10.6728C14.0396 10.6302 14.1278 10.6219 14.2222 10.6479C14.3069 10.6711 14.377 10.7168 14.4327 10.7852C14.5082 10.8779 14.5323 10.9824 14.5049 11.0986C14.4896 11.1641 14.4411 11.2515 14.3594 11.3608C13.7413 12.1886 13.1203 13.0143 12.4966 13.8379C12.3837 13.9873 12.2875 14.0778 12.2081 14.1094C12.0632 14.168 11.9174 14.1269 11.7706 13.9863C11.3165 13.5504 10.932 13.1642 10.6172 12.8276C10.5433 12.7485 10.5012 12.6725 10.4908 12.5996C10.4765 12.4964 10.4987 12.4054 10.5577 12.3267C10.6325 12.2261 10.7305 12.1738 10.8516 12.1699C10.9698 12.166 11.0829 12.216 11.191 12.3198C11.4667 12.5854 11.7344 12.8532 11.9942 13.123Z" fill="black"/>
</g>
<defs>
<clipPath id="clip0_1_303">
<rect width="25" height="25" fill="white"/>
</clipPath>
</defs>
</svg>
