<svg width="20" height="20" viewBox="0 0 20 20" fill="none" xmlns="http://www.w3.org/2000/svg">
<path d="M9.8462 0H10.1587C11.6134 0.0739583 12.8284 0.617839 13.8036 1.63164C13.9872 1.82227 14.1534 2.02227 14.3021 2.23164C14.857 3.01211 15.1743 3.88281 15.254 4.84375C15.3342 5.81198 15.1552 6.73971 14.7169 7.62695C14.3245 8.42122 13.7556 9.07865 13.0103 9.59922C12.7959 9.74896 12.5721 9.88125 12.3388 9.99609C11.388 10.4641 10.3823 10.6322 9.32159 10.5004C9.0656 10.4684 8.81092 10.4154 8.55753 10.3414C7.21404 9.94844 6.18201 9.15352 5.46144 7.95664C4.98696 7.1681 4.74282 6.29987 4.72902 5.35195C4.72537 5.09362 4.74165 4.83385 4.77784 4.57266C4.96222 3.23932 5.56443 2.13581 6.58448 1.26211C7.50454 0.474349 8.59178 0.0536458 9.8462 0ZM14.0989 5.27305C14.0989 4.18597 13.6671 3.14342 12.8984 2.37474C12.1297 1.60606 11.0872 1.17422 10.0001 1.17422C8.91303 1.17422 7.87048 1.60606 7.1018 2.37474C6.33312 3.14342 5.90128 4.18597 5.90128 5.27305C5.90128 6.36012 6.33312 7.40268 7.1018 8.17136C7.87048 8.94004 8.91303 9.37187 10.0001 9.37187C11.0872 9.37187 12.1297 8.94004 12.8984 8.17136C13.6671 7.40268 14.0989 6.36012 14.0989 5.27305Z" fill="white" fill-opacity="0.74"/>
<path d="M18.2593 20H1.73587C1.43874 19.9263 1.26699 19.7646 1.22064 19.5148C1.20735 19.444 1.2123 19.2329 1.23548 18.8816C1.32897 17.4762 1.77962 16.1917 2.58743 15.0281C3.23066 14.1018 4.03561 13.3478 5.00228 12.766C5.92728 12.2095 6.9459 11.8739 8.05814 11.7594C8.25397 11.7393 8.51387 11.7276 8.83782 11.7242C9.59616 11.7161 10.3546 11.7125 11.1132 11.7133C12.5528 11.7146 13.8719 12.0802 15.0706 12.8101C15.9141 13.3237 16.639 13.9829 17.2452 14.7879C17.4028 14.9967 17.5484 15.2126 17.682 15.4355C18.3749 16.5915 18.7426 17.8505 18.7851 19.2125C18.7913 19.4167 18.7719 19.5674 18.7269 19.6648C18.6433 19.8453 18.4874 19.957 18.2593 20ZM15.2874 14.4055C14.1132 13.4133 12.7348 12.9112 11.1523 12.8992C10.3937 12.8935 9.63522 12.8907 8.87689 12.891C7.74876 12.8915 6.7011 13.1595 5.73392 13.6949C5.50657 13.821 5.2873 13.9611 5.0761 14.1152C4.23574 14.7285 3.57611 15.5051 3.0972 16.4449C2.71829 17.1884 2.49043 17.9707 2.4136 18.7918C2.41317 18.7964 2.41369 18.8011 2.41514 18.8055C2.4166 18.8099 2.41894 18.8139 2.42204 18.8173C2.42513 18.8207 2.42889 18.8235 2.43309 18.8253C2.43729 18.8272 2.44183 18.8281 2.44642 18.8281H17.5581C17.5621 18.8281 17.5661 18.8273 17.5697 18.8257C17.5734 18.8241 17.5766 18.8217 17.5793 18.8187C17.582 18.8157 17.5841 18.8122 17.5853 18.8084C17.5866 18.8046 17.587 18.8005 17.5867 18.7965C17.4351 17.303 16.8571 16.0187 15.8527 14.9437C15.674 14.7523 15.4856 14.5729 15.2874 14.4055Z" fill="white" fill-opacity="0.74"/>
</svg>
