<svg width="22" height="21" viewBox="0 0 22 21" fill="none" xmlns="http://www.w3.org/2000/svg">
<g clip-path="url(#clip0_1_290)">
<path d="M15.0752 4.99951C15.0752 6.32495 14.5487 7.5961 13.6114 8.53332C12.6742 9.47054 11.4031 9.99707 10.0776 9.99707C8.7522 9.99707 7.48105 9.47054 6.54383 8.53332C5.6066 7.5961 5.08008 6.32495 5.08008 4.99951C5.08008 3.67408 5.6066 2.40293 6.54383 1.4657C7.48105 0.52848 8.7522 0.00195313 10.0776 0.00195312C11.4031 0.00195313 12.6742 0.52848 13.6114 1.4657C14.5487 2.40293 15.0752 3.67408 15.0752 4.99951ZM14.0752 4.99951C14.0752 4.47455 13.9718 3.95472 13.7709 3.46971C13.57 2.98471 13.2755 2.54402 12.9043 2.17281C12.5331 1.8016 12.0924 1.50715 11.6074 1.30625C11.1224 1.10535 10.6026 1.00195 10.0776 1.00195C9.01742 1.00195 8.00062 1.42312 7.25094 2.17281C6.50125 2.9225 6.08008 3.93929 6.08008 4.99951C6.08008 6.05973 6.50125 7.07652 7.25094 7.82621C8.00062 8.5759 9.01742 8.99707 10.0776 8.99707C10.6026 8.99707 11.1224 8.89367 11.6074 8.69277C12.0924 8.49188 12.5331 8.19742 12.9043 7.82621C13.2755 7.455 13.57 7.01432 13.7709 6.52931C13.9718 6.04431 14.0752 5.52448 14.0752 4.99951Z" fill="black"/>
<path d="M0.784668 20.5532C0.396647 20.3289 0.152832 20.02 0.0532226 19.6265C0.0190429 19.492 0.00195312 19.168 0.00195312 18.6543C0.00195312 17.6331 0.00195312 16.6118 0.00195312 15.5903C0.00195312 15.2137 0.12207 14.8963 0.362305 14.6382C0.484375 14.5067 0.701497 14.3612 1.01367 14.2017C2.85189 13.2616 4.7972 12.6414 6.84961 12.3413C7.11035 12.3029 7.29622 12.3711 7.40723 12.5459C7.49967 12.6911 7.51774 12.8455 7.46143 13.0093C7.39925 13.1903 7.25553 13.2969 7.03027 13.3291C5.03223 13.6149 3.11361 14.2354 1.27441 15.1904C1.1276 15.2669 1.03923 15.3731 1.00928 15.5088C1.00505 15.5273 1.00293 15.6553 1.00293 15.8926C1.00293 16.9229 1.00293 17.9531 1.00293 18.9834C1.00293 19.2253 1.02035 19.3859 1.05518 19.4653C1.10921 19.5887 1.20361 19.6729 1.33838 19.7178C1.40837 19.7412 1.52783 19.7529 1.69678 19.7529C3.41618 19.7529 5.13542 19.7529 6.85449 19.7529C7.03418 19.7529 7.16536 19.7756 7.24805 19.8208C7.37044 19.8882 7.44775 19.9917 7.47998 20.1314C7.50895 20.257 7.49333 20.3753 7.43311 20.4863C7.33708 20.6641 7.16715 20.7533 6.92334 20.7539C4.08252 20.763 2.21891 20.759 1.33252 20.7417C1.17952 20.7388 0.996907 20.6759 0.784668 20.5532Z" fill="black"/>
<path d="M10.5112 19.3013C9.5483 18.6838 8.75419 17.8669 8.12886 16.8506C8.0094 16.6569 7.9814 16.4723 8.04488 16.2969C8.06018 16.2546 8.15083 16.1081 8.31685 15.8574C9.04406 14.7601 10.0001 13.9111 11.185 13.3105C12.2566 12.7676 13.3955 12.499 14.6015 12.5049C15.8072 12.5107 16.9428 12.7909 18.0083 13.3452C19.2504 13.9911 20.2501 14.9316 21.0073 16.167C21.1085 16.3327 21.1385 16.492 21.0971 16.645C21.0805 16.7072 21.0076 16.8389 20.8784 17.04C20.198 18.0993 19.3112 18.9354 18.2177 19.5483C17.2291 20.1027 16.1578 20.4121 15.0039 20.4766C13.373 20.5674 11.8754 20.1756 10.5112 19.3013ZM10.5073 18.0737C11.5782 18.925 12.8006 19.3939 14.1743 19.4805C14.9067 19.527 15.6106 19.4551 16.2861 19.2647C17.873 18.8174 19.1178 17.9006 20.0205 16.5142C20.0244 16.5081 20.0264 16.5009 20.0264 16.4937C20.0263 16.4864 20.0241 16.4792 20.02 16.4731C19.0789 15.0588 17.8016 14.1379 16.1879 13.7105C15.8722 13.6268 15.5522 13.5693 15.228 13.5381C13.6287 13.3838 12.1616 13.7707 10.8266 14.6987C10.1336 15.1805 9.55936 15.7733 9.10396 16.4771C9.10005 16.4832 9.09797 16.4903 9.09797 16.4976C9.09797 16.5048 9.10005 16.5119 9.10396 16.5181C9.49784 17.1248 9.96561 17.6434 10.5073 18.0737Z" fill="black"/>
<path d="M15.9966 16.4995C15.9966 16.8964 15.8389 17.2771 15.5582 17.5578C15.2776 17.8384 14.8969 17.9961 14.5 17.9961C14.1031 17.9961 13.7224 17.8384 13.4418 17.5578C13.1611 17.2771 13.0034 16.8964 13.0034 16.4995C13.0034 16.1026 13.1611 15.7219 13.4418 15.4413C13.7224 15.1606 14.1031 15.0029 14.5 15.0029C14.8969 15.0029 15.2776 15.1606 15.5582 15.4413C15.8389 15.7219 15.9966 16.1026 15.9966 16.4995ZM14.9961 16.5C14.9961 16.3683 14.9438 16.242 14.8506 16.1489C14.7575 16.0557 14.6312 16.0034 14.4995 16.0034C14.3678 16.0034 14.2415 16.0557 14.1484 16.1489C14.0552 16.242 14.0029 16.3683 14.0029 16.5C14.0029 16.6317 14.0552 16.758 14.1484 16.8511C14.2415 16.9443 14.3678 16.9966 14.4995 16.9966C14.6312 16.9966 14.7575 16.9443 14.8506 16.8511C14.9438 16.758 14.9961 16.6317 14.9961 16.5Z" fill="black"/>
</g>
<defs>
<clipPath id="clip0_1_290">
<rect width="22" height="21" fill="white"/>
</clipPath>
</defs>
</svg>
