<svg width="24" height="25" viewBox="0 0 24 25" fill="none" xmlns="http://www.w3.org/2000/svg">
<g clip-path="url(#clip0_1_1191)">
<path d="M1.37391 0.363525H18.5184C18.8113 0.386338 19.0594 0.469307 19.2628 0.612432C19.6675 0.897432 19.8702 1.30274 19.8708 1.82837C19.8736 3.43649 19.875 5.04478 19.875 6.65321C19.875 6.84009 19.8586 6.97306 19.8258 7.05212C19.762 7.20712 19.6455 7.29493 19.4761 7.31556C19.3302 7.33368 19.2067 7.29993 19.1058 7.21431C18.9964 7.12149 18.9416 6.99024 18.9412 6.82056C18.9387 5.15649 18.9375 3.49243 18.9375 1.82837C18.9375 1.60024 18.8534 1.44509 18.6853 1.3629C18.6006 1.32165 18.4453 1.30103 18.2194 1.30103C12.6347 1.30103 7.04984 1.30103 1.46484 1.30103C1.23172 1.30103 1.07516 1.38759 0.995156 1.56071C0.956719 1.64415 0.9375 1.80181 0.9375 2.03368C0.9375 8.97712 0.9375 15.9204 0.9375 22.8635C0.9375 23.1007 1.01859 23.2643 1.18078 23.3543C1.26672 23.4021 1.42125 23.426 1.64438 23.426C7.24062 23.426 12.837 23.426 18.4336 23.426C18.6311 23.426 18.7728 23.3512 18.8587 23.2015C18.9031 23.124 18.9261 23.0038 18.9277 22.841C18.9352 22.087 18.9384 20.989 18.9375 19.5471C18.9375 19.3684 18.9978 19.234 19.1184 19.144C19.2291 19.0618 19.3577 19.0335 19.5042 19.0592C19.6542 19.0857 19.76 19.169 19.8216 19.309C19.855 19.3856 19.872 19.5095 19.8727 19.6807C19.8755 20.5907 19.8762 21.5007 19.875 22.4107C19.875 22.4148 19.8762 22.529 19.8787 22.7534C19.8809 22.9824 19.8709 23.1393 19.8488 23.224C19.6688 23.9099 19.2234 24.2898 18.5128 24.3635H1.36828C0.553906 24.2688 0.0978125 23.8148 0 23.0013V1.73181C0.0953125 0.912432 0.553281 0.456338 1.37391 0.363525Z" fill="black"/>
<path d="M14.2437 7.20728C14.2437 7.77281 14.1323 8.3328 13.9159 8.85528C13.6994 9.37775 13.3822 9.85249 12.9824 10.2524C12.5825 10.6523 12.1077 10.9695 11.5853 11.1859C11.0628 11.4023 10.5028 11.5137 9.93727 11.5137C8.79514 11.5137 7.69978 11.06 6.89218 10.2524C6.08457 9.44477 5.63086 8.34941 5.63086 7.20728C5.63086 6.06516 6.08457 4.9698 6.89218 4.1622C7.69978 3.35459 8.79514 2.90088 9.93727 2.90088C11.0794 2.90088 12.1747 3.35459 12.9824 4.1622C13.79 4.9698 14.2437 6.06516 14.2437 7.20728ZM9.02508 5.30463C9.38883 5.06963 9.78492 4.98869 10.2134 5.06182C10.4924 5.10963 10.7387 5.21463 10.9521 5.37682C11.1777 5.54838 11.3499 5.76572 11.4687 6.02885C11.5424 6.19197 11.5887 6.37291 11.6074 6.57166C11.624 6.74541 11.6257 6.93385 11.6126 7.13697C11.5929 7.44572 11.4882 7.73447 11.2985 8.00322C11.2944 8.00923 11.2916 8.01608 11.2903 8.02329C11.2891 8.0305 11.2894 8.03789 11.2914 8.04494C11.2933 8.052 11.2967 8.05855 11.3014 8.06414C11.3062 8.06972 11.312 8.07421 11.3187 8.07728C11.8393 8.31728 12.2729 8.68228 12.6195 9.17229C12.6225 9.17664 12.6265 9.18019 12.6312 9.18265C12.6359 9.1851 12.6411 9.18638 12.6464 9.18638C12.6517 9.18638 12.6569 9.1851 12.6616 9.18265C12.6663 9.18019 12.6703 9.17664 12.6734 9.17229C13.0737 8.60103 13.2838 7.97338 13.3038 7.28932C13.3129 6.97463 13.2784 6.6651 13.2002 6.36072C13.0374 5.72697 12.7162 5.18791 12.2365 4.74354C11.6068 4.15947 10.8674 3.85791 10.0184 3.83885C9.69805 3.83166 9.38852 3.86666 9.08977 3.94385C8.49727 4.09697 7.9818 4.39479 7.54336 4.83729C7.22836 5.15479 6.98617 5.51947 6.8168 5.93135C6.69867 6.21853 6.62336 6.52057 6.59086 6.83744C6.5068 7.65463 6.70539 8.42572 7.18664 9.15072C7.19101 9.1574 7.19694 9.16292 7.20392 9.1668C7.2109 9.17068 7.21871 9.1728 7.22669 9.17299C7.23468 9.17317 7.24258 9.17141 7.24973 9.16786C7.25688 9.16431 7.26306 9.15907 7.26773 9.1526C7.61242 8.6801 8.04258 8.32213 8.5582 8.07869C8.56472 8.07561 8.57047 8.07112 8.57504 8.06554C8.57961 8.05997 8.58289 8.05345 8.58464 8.04645C8.58639 8.03946 8.58656 8.03216 8.58515 8.02509C8.58374 8.01802 8.58078 8.01135 8.57648 8.00557C8.44461 7.82588 8.35117 7.62228 8.29617 7.39478C8.23523 7.14228 8.22742 6.8376 8.27273 6.48072C8.30367 6.23853 8.38742 6.01213 8.52398 5.8015C8.65273 5.60307 8.81977 5.43744 9.02508 5.30463ZM10.4571 6.18307C10.333 6.06463 10.1921 5.9951 10.0343 5.97447C9.88805 5.95541 9.74211 5.98307 9.59648 6.05744C9.38492 6.16557 9.25492 6.33478 9.20648 6.5651C9.16617 6.75666 9.16445 6.95041 9.20133 7.14635C9.24195 7.36322 9.35367 7.529 9.53648 7.64369C9.70336 7.74807 9.88445 7.78307 10.0798 7.74869C10.3163 7.70682 10.4893 7.57432 10.5987 7.35119C10.6484 7.24932 10.6771 7.12807 10.6849 6.98744C10.6918 6.86182 10.6873 6.73603 10.6713 6.6101C10.6504 6.44166 10.579 6.29932 10.4571 6.18307ZM11.5109 9.3251C11.0977 8.95385 10.6274 8.75135 10.0999 8.7176C9.78367 8.6976 9.47602 8.73853 9.17695 8.84041C8.65383 9.01853 8.23477 9.3601 7.91977 9.8651C7.91507 9.87259 7.91338 9.88157 7.91503 9.89019C7.91669 9.89882 7.92157 9.90644 7.92867 9.9115C8.39336 10.2503 8.90695 10.4609 9.46945 10.5434C9.7832 10.5893 10.0945 10.5892 10.4032 10.5429C10.9548 10.4604 11.4688 10.2498 11.9454 9.91103C11.9526 9.90595 11.9576 9.89832 11.9594 9.88964C11.9612 9.88096 11.9598 9.87186 11.9552 9.86416C11.8384 9.66603 11.6902 9.48635 11.5109 9.3251Z" fill="black"/>
<path d="M14.1435 21.7268C13.997 21.6178 13.9342 21.4693 13.9551 21.2815C14.0913 20.0547 14.2287 18.8281 14.3671 17.6018C14.3749 17.5322 14.409 17.4451 14.4693 17.3408C16.3093 14.1458 18.1531 10.9529 20.0006 7.76232C20.2706 7.29575 20.4323 7.02857 20.4857 6.96075C20.736 6.64294 21.0559 6.42435 21.4453 6.30497C21.974 6.1431 22.4688 6.18544 22.9298 6.432C23.2113 6.58294 23.4451 6.78638 23.631 7.04232C23.9079 7.42294 24.027 7.86075 23.9882 8.35575C23.9707 8.57732 23.9099 8.79904 23.8059 9.02091C23.7896 9.05529 23.6774 9.25357 23.4693 9.61575C21.6115 12.8464 19.7484 16.0739 17.8799 19.2983C17.8249 19.3933 17.7624 19.467 17.6924 19.5195C16.7421 20.2339 15.7865 20.9412 14.8256 21.6415C14.6862 21.7434 14.5834 21.802 14.5171 21.8173C14.3893 21.8476 14.2648 21.8175 14.1435 21.7268ZM21.0988 7.74029C20.9542 7.96779 20.8193 8.20107 20.6943 8.44013C20.6914 8.44576 20.6907 8.4523 20.6925 8.4584C20.6942 8.4645 20.6982 8.4697 20.7037 8.47294L22.4343 9.47794C22.4406 9.4816 22.4481 9.48266 22.4553 9.48092C22.4624 9.47918 22.4687 9.47476 22.4728 9.46857C22.6199 9.23513 22.7581 8.99341 22.8871 8.74341C22.9824 8.55935 23.0363 8.40091 23.0488 8.2681C23.072 8.02591 23.0182 7.80794 22.8876 7.61419C22.7692 7.43825 22.6024 7.30779 22.3874 7.22279C22.0506 7.08966 21.7348 7.13107 21.4401 7.347C21.3267 7.43013 21.2129 7.56122 21.0988 7.74029ZM21.983 10.3236C21.9844 10.3212 21.9853 10.3185 21.9857 10.3158C21.986 10.313 21.9859 10.3102 21.9851 10.3076C21.9844 10.3049 21.9832 10.3024 21.9815 10.3002C21.9798 10.298 21.9777 10.2961 21.9753 10.2947L20.2257 9.28459C20.2233 9.2832 20.2206 9.2823 20.2179 9.28194C20.2151 9.28158 20.2123 9.28176 20.2097 9.28248C20.207 9.28319 20.2045 9.28443 20.2023 9.28612C20.2001 9.28781 20.1982 9.28991 20.1969 9.29231L15.484 17.4551C15.4827 17.4575 15.4818 17.4602 15.4814 17.4629C15.481 17.4657 15.4812 17.4685 15.4819 17.4711C15.4827 17.4738 15.4839 17.4763 15.4856 17.4785C15.4873 17.4807 15.4894 17.4826 15.4918 17.484L17.2414 18.4941C17.2438 18.4955 17.2464 18.4964 17.2492 18.4968C17.2519 18.4971 17.2547 18.4969 17.2574 18.4962C17.2601 18.4955 17.2626 18.4943 17.2648 18.4926C17.267 18.4909 17.2688 18.4888 17.2702 18.4864L21.983 10.3236ZM16.5346 19.1693L15.2521 18.4254C15.2486 18.4234 15.2445 18.4223 15.2404 18.4222C15.2363 18.4221 15.2322 18.423 15.2286 18.4248C15.2249 18.4267 15.2217 18.4294 15.2194 18.4328C15.217 18.4362 15.2156 18.4401 15.2151 18.4442L15.0084 20.2906C15.0034 20.335 15.019 20.3439 15.0553 20.3173L16.5374 19.2223C16.5417 19.2191 16.5451 19.215 16.5474 19.2102C16.5496 19.2054 16.5507 19.2001 16.5504 19.1949C16.5501 19.1896 16.5485 19.1845 16.5458 19.1801C16.543 19.1756 16.5392 19.1719 16.5346 19.1693Z" fill="black"/>
<path d="M12.4644 13.0208H5.81281C5.55807 13.0208 5.35156 13.2273 5.35156 13.482V13.4951C5.35156 13.7499 5.55807 13.9564 5.81281 13.9564H12.4644C12.7191 13.9564 12.9256 13.7499 12.9256 13.4951V13.482C12.9256 13.2273 12.7191 13.0208 12.4644 13.0208Z" fill="black"/>
<path d="M3.81141 13.9484C4.06537 13.9484 4.27125 13.7425 4.27125 13.4885C4.27125 13.2346 4.06537 13.0287 3.81141 13.0287C3.55744 13.0287 3.35156 13.2346 3.35156 13.4885C3.35156 13.7425 3.55744 13.9484 3.81141 13.9484Z" fill="black"/>
<path d="M12.4644 15.6458H5.81281C5.55807 15.6458 5.35156 15.8523 5.35156 16.107V16.1201C5.35156 16.3749 5.55807 16.5814 5.81281 16.5814H12.4644C12.7191 16.5814 12.9256 16.3749 12.9256 16.1201V16.107C12.9256 15.8523 12.7191 15.6458 12.4644 15.6458Z" fill="black"/>
<path d="M3.81141 16.5734C4.06537 16.5734 4.27125 16.3675 4.27125 16.1135C4.27125 15.8596 4.06537 15.6537 3.81141 15.6537C3.55744 15.6537 3.35156 15.8596 3.35156 16.1135C3.35156 16.3675 3.55744 16.5734 3.81141 16.5734Z" fill="black"/>
<path d="M12.4644 18.2708H5.81281C5.55807 18.2708 5.35156 18.4773 5.35156 18.732V18.7451C5.35156 18.9999 5.55807 19.2064 5.81281 19.2064H12.4644C12.7191 19.2064 12.9256 18.9999 12.9256 18.7451V18.732C12.9256 18.4773 12.7191 18.2708 12.4644 18.2708Z" fill="black"/>
<path d="M3.81141 19.1989C4.06537 19.1989 4.27125 18.993 4.27125 18.739C4.27125 18.4851 4.06537 18.2792 3.81141 18.2792C3.55744 18.2792 3.35156 18.4851 3.35156 18.739C3.35156 18.993 3.55744 19.1989 3.81141 19.1989Z" fill="black"/>
<path d="M12.4695 20.8976H9.92984C9.6795 20.8976 9.47656 21.1005 9.47656 21.3509V21.3762C9.47656 21.6265 9.6795 21.8295 9.92984 21.8295H12.4695C12.7199 21.8295 12.9228 21.6265 12.9228 21.3762V21.3509C12.9228 21.1005 12.7199 20.8976 12.4695 20.8976Z" fill="black"/>
<path d="M19.3355 17.4729L18.5864 17.4742C18.5732 17.4742 18.5625 17.4849 18.5625 17.4981L18.5638 18.2472C18.5639 18.2604 18.5746 18.2711 18.5878 18.2711L19.3369 18.2698C19.3501 18.2697 19.3607 18.259 19.3607 18.2458L19.3594 17.4968C19.3594 17.4836 19.3487 17.4729 19.3355 17.4729Z" fill="black"/>
</g>
<defs>
<clipPath id="clip0_1_1191">
<rect width="24" height="24" fill="white" transform="translate(0 0.363525)"/>
</clipPath>
</defs>
</svg>
