<svg width="24" height="25" viewBox="0 0 24 25" fill="none" xmlns="http://www.w3.org/2000/svg">
<g clip-path="url(#clip0_1_1157)">
<path d="M6.77625 0.363525H17.2177C17.4736 0.413525 17.6016 0.577588 17.6016 0.855713C17.6016 2.67196 17.6016 4.49712 17.6016 6.33118C17.6016 6.33976 17.605 6.34799 17.611 6.35405C17.6171 6.36012 17.6253 6.36353 17.6339 6.36353C19.6083 6.36353 21.5819 6.36353 23.5547 6.36353C23.8122 6.36353 23.9606 6.49337 24 6.75306V21.1906C23.9416 21.4562 23.7736 21.5802 23.4961 21.5627C23.3608 21.5543 23.1255 21.557 22.7902 21.5707C22.7871 21.5708 22.7841 21.5716 22.7814 21.5729C22.7786 21.5742 22.7762 21.576 22.7742 21.5783C22.7721 21.5806 22.7706 21.5832 22.7697 21.5861C22.7687 21.589 22.7683 21.5921 22.7686 21.5951C22.7927 21.8623 22.8047 22.0585 22.8047 22.1838C22.8047 22.7542 22.8036 23.3245 22.8014 23.8948C22.8002 24.161 22.6714 24.3173 22.4152 24.3635H1.57922C1.33266 24.3173 1.20562 24.1757 1.19813 23.9388C1.19375 23.7913 1.19031 23.3001 1.18781 22.4651C1.18687 22.2223 1.20078 21.9398 1.22953 21.6176C1.23011 21.611 1.22932 21.6043 1.22722 21.598C1.22511 21.5917 1.22173 21.586 1.21729 21.581C1.21285 21.5761 1.20744 21.5721 1.2014 21.5694C1.19536 21.5667 1.18882 21.5652 1.18219 21.5651C0.955625 21.562 0.717813 21.5615 0.46875 21.5637C0.205 21.5662 0.04875 21.4399 0 21.1849V6.73571C0.0525 6.48509 0.20875 6.35993 0.46875 6.36024C2.4375 6.36243 4.40641 6.36353 6.37547 6.36353C6.37889 6.36353 6.38229 6.36284 6.38544 6.36152C6.3886 6.36019 6.39147 6.35825 6.39387 6.35581C6.39627 6.35337 6.39816 6.35047 6.39942 6.34729C6.40069 6.3441 6.40131 6.3407 6.40125 6.33728C6.39781 4.54134 6.39687 2.75321 6.39844 0.9729C6.39844 0.819775 6.41359 0.703994 6.44391 0.625557C6.50234 0.473994 6.61312 0.38665 6.77625 0.363525ZM7.74328 15.9724C8.10984 16.0074 8.41969 16.1393 8.67281 16.3681C8.90344 16.5768 9.06188 16.8407 9.14812 17.1598C9.28906 17.6823 9.16531 18.1757 8.77688 18.6401C8.77429 18.6432 8.77241 18.6468 8.77138 18.6507C8.77034 18.6546 8.77018 18.6587 8.77089 18.6627C8.77161 18.6667 8.77318 18.6704 8.77551 18.6737C8.77784 18.677 8.78087 18.6798 8.78437 18.6818C9.07969 18.8518 9.32844 19.0752 9.53063 19.3521C9.5343 19.3573 9.53921 19.3615 9.54491 19.3643C9.55061 19.367 9.55692 19.3684 9.56327 19.3681C9.56961 19.3678 9.57578 19.3659 9.58121 19.3627C9.58665 19.3594 9.59117 19.3548 9.59437 19.3493C9.85344 18.9074 10.212 18.5604 10.6702 18.3082C10.6758 18.3051 10.6807 18.3006 10.6843 18.2952C10.688 18.2898 10.6903 18.2836 10.691 18.2771C10.6918 18.2707 10.6911 18.2641 10.6888 18.2579C10.6866 18.2517 10.6829 18.2462 10.6781 18.2416C10.4353 18.0151 10.257 17.7573 10.1433 17.4682C10.0308 17.1829 9.98734 16.8818 10.013 16.5649C10.0433 16.1946 10.1695 15.8635 10.3917 15.5717C10.6573 15.2226 10.9795 14.9862 11.3583 14.8624C11.7523 14.734 12.1225 14.7174 12.4688 14.8127C13.2078 15.0165 13.6831 15.4613 13.8947 16.1473C13.9913 16.461 14.0147 16.7695 13.965 17.0726C13.8909 17.5248 13.6753 17.916 13.3181 18.2463C13.3141 18.2501 13.3111 18.2547 13.3092 18.2599C13.3073 18.2651 13.3067 18.2706 13.3074 18.276C13.3081 18.2815 13.31 18.2867 13.3131 18.2912C13.3162 18.2957 13.3203 18.2995 13.3252 18.3021C13.7698 18.5465 14.1303 18.896 14.4066 19.3507C14.4098 19.356 14.4143 19.3605 14.4197 19.3636C14.4251 19.3668 14.4311 19.3685 14.4373 19.3688C14.4435 19.369 14.4496 19.3677 14.4551 19.3649C14.4607 19.3622 14.4654 19.3581 14.4689 19.3531C14.6602 19.0846 14.9044 18.8637 15.2016 18.6902C15.2068 18.6873 15.2113 18.6831 15.2148 18.6782C15.2183 18.6732 15.2206 18.6675 15.2216 18.6615C15.2227 18.6555 15.2224 18.6494 15.2208 18.6435C15.2192 18.6376 15.2163 18.6321 15.2123 18.6274C14.8933 18.2512 14.7627 17.834 14.8205 17.3759C14.8552 17.1027 14.9461 16.861 15.0933 16.6507C15.247 16.4307 15.4522 16.2584 15.7087 16.1337C16.0387 15.9734 16.3908 15.9329 16.7648 16.0123C16.7697 16.0133 16.7747 16.0132 16.7795 16.012C16.7843 16.0108 16.7888 16.0086 16.7926 16.0055C16.7964 16.0024 16.7995 15.9985 16.8016 15.9941C16.8037 15.9896 16.8047 15.9848 16.8047 15.9799V1.20821C16.8047 1.20193 16.8035 1.19572 16.801 1.18992C16.7986 1.18411 16.7951 1.17884 16.7907 1.1744C16.7862 1.16996 16.781 1.16644 16.7752 1.16404C16.7694 1.16164 16.7632 1.1604 16.7569 1.1604H7.23797C7.22666 1.1604 7.21581 1.16489 7.20781 1.17289C7.19981 1.18089 7.19531 1.19174 7.19531 1.20306V15.9856C7.19531 15.9897 7.19622 15.9939 7.19799 15.9976C7.19975 16.0014 7.20232 16.0048 7.20551 16.0074C7.2087 16.0101 7.21242 16.012 7.21642 16.013C7.22041 16.014 7.22457 16.014 7.22859 16.0132C7.31078 15.9963 7.39625 15.9834 7.485 15.9743C7.575 15.9652 7.66109 15.9646 7.74328 15.9724ZM6.37875 7.16931L0.837656 7.1604C0.83267 7.1604 0.827733 7.1614 0.823126 7.16333C0.81852 7.16526 0.814334 7.16809 0.810808 7.17166C0.807283 7.17523 0.804486 7.17946 0.802578 7.18413C0.80067 7.18879 0.799688 7.19379 0.799688 7.19884L0.796875 20.7223C0.796875 20.7338 0.801468 20.7449 0.809643 20.7531C0.817819 20.7613 0.828907 20.7659 0.840469 20.7659H1.49578C1.50454 20.7659 1.51315 20.7637 1.52085 20.7595C1.52855 20.7553 1.53508 20.7493 1.53984 20.742C1.77547 20.3773 2.06188 20.0945 2.39906 19.8935C2.40535 19.8898 2.41074 19.8848 2.41485 19.8787C2.41897 19.8727 2.4217 19.8659 2.42287 19.8587C2.42403 19.8514 2.42359 19.8441 2.42159 19.8371C2.41958 19.83 2.41605 19.8236 2.41125 19.8181C2.15469 19.5256 2.02016 19.1943 2.00766 18.8243C1.99828 18.549 2.05359 18.2881 2.17359 18.0415C2.29984 17.7824 2.48453 17.5763 2.72766 17.4232C3.04703 17.2217 3.38391 17.1367 3.73828 17.1682C4.15547 17.2054 4.51 17.386 4.80188 17.7101C5.08125 18.0207 5.20766 18.4024 5.18109 18.8552C5.15953 19.2268 5.02641 19.551 4.78172 19.8279C4.77801 19.8321 4.77526 19.8371 4.77367 19.8425C4.77209 19.8478 4.77171 19.8535 4.77256 19.859C4.77342 19.8645 4.77548 19.8698 4.7786 19.8744C4.78172 19.8789 4.78583 19.8828 4.79062 19.8856C4.9475 19.9771 5.09141 20.0837 5.22234 20.2052C5.22631 20.209 5.2312 20.2117 5.23652 20.213C5.24183 20.2143 5.24739 20.2141 5.25265 20.2126C5.25791 20.2111 5.26268 20.2083 5.26649 20.2043C5.2703 20.2004 5.27302 20.1955 5.27437 20.1902C5.44937 19.5399 5.82984 19.036 6.41578 18.6785C6.41949 18.6763 6.42265 18.6732 6.42505 18.6696C6.42745 18.666 6.42901 18.6619 6.42964 18.6576C6.43026 18.6533 6.42994 18.6489 6.42868 18.6447C6.42741 18.6406 6.42525 18.6368 6.42234 18.6335C6.15109 18.3282 6.01125 17.9696 6.00281 17.5577C5.99563 17.1977 6.12156 16.8581 6.38062 16.5387C6.39031 16.5269 6.39562 16.5123 6.39563 16.4974L6.40125 7.19181C6.40125 7.18885 6.40067 7.18593 6.39954 7.1832C6.39841 7.18047 6.39675 7.17799 6.39466 7.1759C6.39257 7.17381 6.39009 7.17215 6.38736 7.17102C6.38463 7.16989 6.3817 7.16931 6.37875 7.16931ZM17.5936 18.6846C18.183 19.0412 18.5584 19.5434 18.72 20.1912C18.7214 20.1968 18.7242 20.2019 18.7282 20.2061C18.7322 20.2103 18.7372 20.2133 18.7428 20.215C18.7483 20.2167 18.7542 20.2168 18.7598 20.2155C18.7654 20.2142 18.7706 20.2115 18.7748 20.2076C18.9083 20.086 19.0523 19.9776 19.207 19.8823C19.2121 19.8792 19.2163 19.875 19.2196 19.8701C19.2229 19.8652 19.225 19.8596 19.2259 19.8537C19.2268 19.8479 19.2264 19.8419 19.2248 19.8363C19.2231 19.8306 19.2203 19.8253 19.2164 19.8209C18.9286 19.4943 18.7952 19.1142 18.8161 18.6804C18.8345 18.2935 18.9697 17.9623 19.2216 17.6866C19.5306 17.3488 19.9214 17.177 20.3939 17.171C20.7092 17.1673 20.9855 17.2406 21.2227 17.3909C21.6942 17.6899 21.9487 18.1076 21.9862 18.6438C22.0019 18.8645 21.9761 19.0729 21.9089 19.2691C21.8383 19.4757 21.7306 19.6615 21.5859 19.8265C21.5821 19.831 21.5792 19.8362 21.5776 19.8419C21.5759 19.8476 21.5755 19.8535 21.5764 19.8594C21.5773 19.8652 21.5795 19.8708 21.5827 19.8757C21.586 19.8806 21.5903 19.8848 21.5953 19.8879C21.9581 20.1082 22.2428 20.3884 22.4494 20.7284C22.4563 20.7398 22.466 20.7493 22.4777 20.7559C22.4893 20.7624 22.5025 20.7659 22.5159 20.7659H23.1623C23.1732 20.7659 23.1835 20.7616 23.1912 20.7539C23.1988 20.7463 23.2031 20.7359 23.2031 20.7251V7.21149C23.2031 7.20478 23.2018 7.19814 23.1992 7.19194C23.1967 7.18574 23.1929 7.18011 23.1882 7.17537C23.1834 7.17062 23.1778 7.16686 23.1716 7.16429C23.1654 7.16172 23.1587 7.1604 23.152 7.1604L17.6344 7.16321C17.6257 7.16321 17.6173 7.16672 17.6112 7.17296C17.605 7.1792 17.6016 7.18767 17.6016 7.19649V16.4806C17.6016 16.5094 17.6115 16.5372 17.6297 16.5593C17.8822 16.8693 18.0034 17.2181 17.9934 17.6056C17.9884 17.7981 17.9506 17.9788 17.88 18.1479C17.8103 18.3145 17.7117 18.4743 17.5842 18.6274C17.5807 18.6317 17.5782 18.6366 17.5767 18.6419C17.5753 18.6472 17.575 18.6527 17.5759 18.6582C17.5768 18.6636 17.5788 18.6687 17.5819 18.6733C17.5849 18.6779 17.5889 18.6817 17.5936 18.6846ZM13.1944 16.7637C13.1944 16.4469 13.0685 16.1431 12.8446 15.9191C12.6206 15.6951 12.3168 15.5693 12 15.5693C11.6832 15.5693 11.3794 15.6951 11.1554 15.9191C10.9315 16.1431 10.8056 16.4469 10.8056 16.7637C10.8056 17.0805 10.9315 17.3842 11.1554 17.6082C11.3794 17.8322 11.6832 17.9581 12 17.9581C12.3168 17.9581 12.6206 17.8322 12.8446 17.6082C13.0685 17.3842 13.1944 17.0805 13.1944 16.7637ZM8.39531 17.5638C8.39531 17.3529 8.3115 17.1505 8.16232 17.0014C8.01315 16.8522 7.81082 16.7684 7.59984 16.7684C7.38887 16.7684 7.18654 16.8522 7.03736 17.0014C6.88818 17.1505 6.80438 17.3529 6.80438 17.5638C6.80438 17.7748 6.88818 17.9771 7.03736 18.1263C7.18654 18.2755 7.38887 18.3593 7.59984 18.3593C7.81082 18.3593 8.01315 18.2755 8.16232 18.1263C8.3115 17.9771 8.39531 17.7748 8.39531 17.5638ZM17.1956 17.5638C17.1956 17.3529 17.1118 17.1505 16.9626 17.0014C16.8135 16.8522 16.6111 16.7684 16.4002 16.7684C16.1892 16.7684 15.9869 16.8522 15.8377 17.0014C15.6885 17.1505 15.6047 17.3529 15.6047 17.5638C15.6047 17.7748 15.6885 17.9771 15.8377 18.1263C15.9869 18.2755 16.1892 18.3593 16.4002 18.3593C16.6111 18.3593 16.8135 18.2755 16.9626 18.1263C17.1118 17.9771 17.1956 17.7748 17.1956 17.5638ZM4.39547 18.7634C4.39547 18.5524 4.31166 18.3501 4.16248 18.2009C4.0133 18.0517 3.81097 17.9679 3.6 17.9679C3.38903 17.9679 3.1867 18.0517 3.03752 18.2009C2.88834 18.3501 2.80453 18.5524 2.80453 18.7634C2.80453 18.9743 2.88834 19.1767 3.03752 19.3259C3.1867 19.475 3.38903 19.5588 3.6 19.5588C3.81097 19.5588 4.0133 19.475 4.16248 19.3259C4.31166 19.1767 4.39547 18.9743 4.39547 18.7634ZM21.1955 18.7634C21.1955 18.5523 21.1116 18.3498 20.9623 18.2006C20.8131 18.0513 20.6106 17.9674 20.3995 17.9674C20.1884 17.9674 19.986 18.0513 19.8367 18.2006C19.6875 18.3498 19.6036 18.5523 19.6036 18.7634C19.6036 18.9745 19.6875 19.1769 19.8367 19.3262C19.986 19.4755 20.1884 19.5593 20.3995 19.5593C20.6106 19.5593 20.8131 19.4755 20.9623 19.3262C21.1116 19.1769 21.1955 18.9745 21.1955 18.7634ZM13.3153 19.2748C12.8503 18.8676 12.3069 18.7112 11.685 18.8056C11.2544 18.8712 10.8897 19.0549 10.5909 19.3568C10.3456 19.6043 10.1772 19.889 10.0856 20.2109C10.0347 20.3896 10.0069 20.6996 10.0022 21.1409C9.99375 21.9184 9.99187 22.7138 9.99656 23.5273C9.99656 23.537 10.0005 23.5463 10.0074 23.5531C10.0144 23.56 10.0238 23.5638 10.0336 23.5638L13.9528 23.5667C13.9664 23.5667 13.9794 23.5613 13.9889 23.5517C13.9985 23.5421 14.0039 23.5291 14.0039 23.5156C14.0039 22.7334 14.007 21.9457 14.0133 21.1526C14.0158 20.8242 13.9931 20.5468 13.9453 20.3206C13.86 19.9168 13.65 19.5682 13.3153 19.2748ZM8.68547 19.6043C8.39297 19.3277 8.04859 19.1837 7.65234 19.1721C7.24516 19.1602 6.88281 19.2862 6.56531 19.5499C6.19281 19.8596 6.00547 20.2806 6.00328 20.8127C5.99953 21.7259 5.99937 22.6329 6.00281 23.5338C6.00281 23.5425 6.00632 23.5509 6.01256 23.557C6.0188 23.5632 6.02727 23.5667 6.03609 23.5667H9.15937C9.16461 23.5667 9.16979 23.5656 9.17462 23.5636C9.17946 23.5616 9.18385 23.5587 9.18755 23.555C9.19125 23.5513 9.19418 23.5469 9.19619 23.5421C9.19819 23.5372 9.19922 23.532 9.19922 23.5268C9.19922 22.6043 9.19734 21.6918 9.19359 20.7893C9.19172 20.3181 9.02234 19.9231 8.68547 19.6043ZM17.4867 19.6038C17.263 19.3938 17.02 19.2617 16.7578 19.2073C16.3334 19.1192 15.9478 19.1777 15.6009 19.3831C15.3509 19.5312 15.1559 19.7284 15.0159 19.9746C14.8741 20.2246 14.8027 20.504 14.8017 20.8127C14.7995 21.7259 14.8002 22.6329 14.8036 23.5338C14.8036 23.5425 14.8071 23.5509 14.8132 23.557C14.8194 23.5632 14.8277 23.5667 14.8364 23.5667L17.9611 23.5638C17.9712 23.5638 17.9809 23.5598 17.9881 23.5526C17.9953 23.5454 17.9994 23.5356 17.9995 23.5254C18.0048 22.6513 18.0027 21.7998 17.993 20.9707C17.9892 20.6488 17.963 20.4137 17.9142 20.2652C17.8314 20.014 17.6889 19.7935 17.4867 19.6038ZM4.65516 20.7748C4.39297 20.5438 4.09891 20.4117 3.77297 20.3782C3.45672 20.3457 3.15531 20.4026 2.86875 20.5488C2.60094 20.6854 2.38734 20.8876 2.22797 21.1554C2.14703 21.292 2.08922 21.436 2.05453 21.5876C2.02078 21.7348 2.00391 21.8906 2.00391 22.0549C2.00391 22.5315 2.00391 23.0234 2.00391 23.5306C2.00391 23.5401 2.00766 23.5493 2.01434 23.5561C2.02102 23.5628 2.03008 23.5667 2.03953 23.5667L5.17078 23.5582C5.17709 23.5582 5.18315 23.5558 5.18769 23.5514C5.19224 23.547 5.19491 23.5411 5.19516 23.5348C5.21672 22.7529 5.21547 22.1971 5.19141 21.8674C5.15891 21.4246 4.98016 21.0604 4.65516 20.7748ZM21.495 20.8099C21.1484 20.4802 20.7297 20.3385 20.2388 20.3848C19.9066 20.416 19.6222 20.5323 19.3856 20.7335C18.9959 21.0651 18.8003 21.4977 18.7987 22.0315C18.7975 22.5237 18.7969 23.0249 18.7969 23.5352C18.7969 23.5394 18.7977 23.5435 18.7993 23.5473C18.8008 23.5511 18.8032 23.5545 18.8061 23.5575C18.809 23.5604 18.8125 23.5627 18.8163 23.5643C18.8201 23.5658 18.8242 23.5667 18.8283 23.5667H21.9567C21.9672 23.5667 21.9772 23.5625 21.9846 23.5551C21.9919 23.5477 21.9961 23.5377 21.9961 23.5273C21.9961 22.9951 21.9952 22.4809 21.9933 21.9846C21.9914 21.5152 21.8253 21.1237 21.495 20.8099Z" fill="black"/>
<path d="M14.7998 5.54743C14.7998 5.60222 14.7891 5.65647 14.7681 5.70708C14.7471 5.7577 14.7164 5.80369 14.6777 5.84243C14.6389 5.88117 14.5929 5.9119 14.5423 5.93286C14.4917 5.95383 14.4374 5.96462 14.3827 5.96462H9.61641C9.56162 5.96462 9.50737 5.95383 9.45676 5.93286C9.40614 5.9119 9.36015 5.88117 9.32141 5.84243C9.28267 5.80369 9.25194 5.7577 9.23098 5.70708C9.21001 5.65647 9.19922 5.60222 9.19922 5.54743V2.38618C9.19922 2.3314 9.21001 2.27715 9.23098 2.22653C9.25194 2.17592 9.28267 2.12993 9.32141 2.09119C9.36015 2.05245 9.40614 2.02172 9.45676 2.00075C9.50737 1.97978 9.56162 1.96899 9.61641 1.96899H14.3827C14.4374 1.96899 14.4917 1.97978 14.5423 2.00075C14.5929 2.02172 14.6389 2.05245 14.6777 2.09119C14.7164 2.12993 14.7471 2.17592 14.7681 2.22653C14.7891 2.27715 14.7998 2.3314 14.7998 2.38618V5.54743ZM14.0034 2.79821C14.0034 2.78963 14 2.78141 13.994 2.77534C13.9879 2.76928 13.9797 2.76587 13.9711 2.76587H10.028C10.0194 2.76587 10.0112 2.76928 10.0051 2.77534C9.99903 2.78141 9.99563 2.78963 9.99563 2.79821V5.1354C9.99563 5.14398 9.99903 5.15221 10.0051 5.15827C10.0112 5.16434 10.0194 5.16774 10.028 5.16774H13.9711C13.9797 5.16774 13.9879 5.16434 13.994 5.15827C14 5.15221 14.0034 5.14398 14.0034 5.1354V2.79821Z" fill="black"/>
<path d="M10.7644 6.76317L10.0388 6.76064C10.0163 6.76056 9.99798 6.77876 9.9979 6.80128L9.9954 7.51752C9.99533 7.54005 10.0135 7.55837 10.036 7.55845L10.7617 7.56098C10.7842 7.56106 10.8025 7.54286 10.8026 7.52034L10.8051 6.8041C10.8052 6.78157 10.787 6.76325 10.7644 6.76317Z" fill="black"/>
<path d="M12.3708 6.76306L11.6292 6.76177C11.6139 6.76174 11.6015 6.7741 11.6015 6.78937L11.6002 7.53094C11.6002 7.54621 11.6126 7.55861 11.6278 7.55864L12.3694 7.55993C12.3847 7.55996 12.3971 7.5476 12.3971 7.53233L12.3984 6.79077C12.3984 6.77549 12.3861 6.76309 12.3708 6.76306Z" fill="black"/>
<path d="M13.9734 6.76134L13.2253 6.76264C13.2087 6.76267 13.1953 6.77613 13.1954 6.7927L13.1967 7.52957C13.1967 7.54614 13.2101 7.55955 13.2267 7.55952L13.9748 7.55821C13.9914 7.55818 14.0048 7.54473 14.0048 7.52816L14.0035 6.79128C14.0035 6.77472 13.99 6.76131 13.9734 6.76134Z" fill="black"/>
<path d="M15.5789 8.36708L14.8195 8.36576C14.8092 8.36574 14.8008 8.37412 14.8007 8.38447L14.7994 9.14478C14.7994 9.15514 14.8078 9.16355 14.8181 9.16357L15.5775 9.16489C15.5879 9.16491 15.5963 9.15653 15.5963 9.14617L15.5976 8.38586C15.5976 8.37551 15.5893 8.3671 15.5789 8.36708Z" fill="black"/>
<path d="M9.17906 8.36681L8.4225 8.36813C8.41137 8.36815 8.40236 8.37719 8.40238 8.38832L8.4037 9.14488C8.40372 9.15601 8.41276 9.16502 8.42389 9.165L9.18045 9.16368C9.19158 9.16366 9.20059 9.15462 9.20057 9.14349L9.19925 8.38693C9.19923 8.3758 9.19019 8.36679 9.17906 8.36681Z" fill="black"/>
<path d="M10.7672 8.36682L10.0341 8.3681C10.0131 8.36813 9.99612 8.38516 9.99616 8.40613L9.99742 9.12707C9.99745 9.14804 10.0145 9.16501 10.0355 9.16497L10.7686 9.16369C10.7895 9.16366 10.8065 9.14663 10.8065 9.12566L10.8052 8.40472C10.8052 8.38375 10.7882 8.36678 10.7672 8.36682Z" fill="black"/>
<path d="M12.3703 8.36682L11.6297 8.36811C11.6142 8.36814 11.6016 8.38076 11.6016 8.39629L11.6029 9.13691C11.6029 9.15245 11.6155 9.16502 11.6311 9.16499L12.3717 9.1637C12.3872 9.16367 12.3998 9.15105 12.3998 9.13552L12.3985 8.3949C12.3985 8.37937 12.3858 8.3668 12.3703 8.36682Z" fill="black"/>
<path d="M13.9708 8.36681L13.2274 8.36811C13.2095 8.36814 13.1951 8.38264 13.1951 8.40051L13.1964 9.13269C13.1964 9.15056 13.2109 9.16501 13.2288 9.16498L13.9722 9.16368C13.9901 9.16365 14.0046 9.14915 14.0045 9.13128L14.0032 8.3991C14.0032 8.38123 13.9887 8.36678 13.9708 8.36681Z" fill="black"/>
<path d="M2.78062 9.56274H2.02406C2.01293 9.56274 2.00391 9.57177 2.00391 9.5829V15.941C2.00391 15.9522 2.01293 15.9612 2.02406 15.9612H2.78062C2.79176 15.9612 2.80078 15.9522 2.80078 15.941V9.5829C2.80078 9.57177 2.79176 9.56274 2.78062 9.56274Z" fill="black"/>
<path d="M5.17125 9.56274H4.42594C4.40859 9.56274 4.39453 9.57681 4.39453 9.59415V15.9307C4.39453 15.9481 4.40859 15.9621 4.42594 15.9621H5.17125C5.1886 15.9621 5.20266 15.9481 5.20266 15.9307V9.59415C5.20266 9.57681 5.1886 9.56274 5.17125 9.56274Z" fill="black"/>
<path d="M19.5708 9.56323H18.8311C18.8122 9.56323 18.7969 9.57855 18.7969 9.59745V15.9284C18.7969 15.9473 18.8122 15.9626 18.8311 15.9626H19.5708C19.5897 15.9626 19.605 15.9473 19.605 15.9284V9.59745C19.605 9.57855 19.5897 9.56323 19.5708 9.56323Z" fill="black"/>
<path d="M21.9839 9.56323H21.2114C21.2047 9.56323 21.1992 9.56869 21.1992 9.57542V15.9485C21.1992 15.9553 21.2047 15.9607 21.2114 15.9607H21.9839C21.9906 15.9607 21.9961 15.9553 21.9961 15.9485V9.57542C21.9961 9.56869 21.9906 9.56323 21.9839 9.56323Z" fill="black"/>
<path d="M9.16594 9.96118H8.43563C8.41724 9.96118 8.40234 9.97608 8.40234 9.99446V10.736C8.40234 10.7544 8.41724 10.7693 8.43563 10.7693H9.16594C9.18432 10.7693 9.19922 10.7544 9.19922 10.736V9.99446C9.19922 9.97608 9.18432 9.96118 9.16594 9.96118Z" fill="black"/>
<path d="M10.7654 9.9624L10.0398 9.95986C10.0167 9.95978 9.99798 9.97839 9.9979 10.0014L9.99538 10.7233C9.9953 10.7463 10.0139 10.7651 10.037 10.7652L10.7626 10.7677C10.7856 10.7678 10.8044 10.7492 10.8044 10.7261L10.807 10.0043C10.807 9.98122 10.7884 9.96248 10.7654 9.9624Z" fill="black"/>
<path d="M12.368 9.96179L11.632 9.9605C11.6152 9.96047 11.6015 9.97409 11.6015 9.99092L11.6002 10.7362C11.6002 10.7531 11.6138 10.7667 11.6306 10.7668L12.3666 10.768C12.3834 10.7681 12.3971 10.7544 12.3971 10.7376L12.3984 9.99231C12.3984 9.97548 12.3848 9.96182 12.368 9.96179Z" fill="black"/>
<path d="M13.9618 9.96239L13.2409 9.95987C13.2168 9.95978 13.1972 9.97923 13.1971 10.0033L13.1946 10.7224C13.1945 10.7464 13.214 10.766 13.238 10.7661L13.959 10.7686C13.9831 10.7687 14.0026 10.7493 14.0027 10.7252L14.0052 10.0061C14.0053 9.98206 13.9859 9.96247 13.9618 9.96239Z" fill="black"/>
<path d="M15.5672 9.96179L14.8312 9.9605C14.8144 9.96047 14.8008 9.97409 14.8007 9.99092L14.7994 10.7381C14.7994 10.7549 14.813 10.7686 14.8298 10.7686L15.5658 10.7699C15.5826 10.7699 15.5963 10.7563 15.5963 10.7395L15.5976 9.99231C15.5976 9.97548 15.584 9.96182 15.5672 9.96179Z" fill="black"/>
<path d="M9.17906 11.566L8.4225 11.5673C8.41137 11.5674 8.40236 11.5764 8.40238 11.5875L8.4037 12.3441C8.40372 12.3552 8.41276 12.3642 8.42389 12.3642L9.18045 12.3629C9.19158 12.3629 9.20059 12.3538 9.20057 12.3427L9.19925 11.5861C9.19923 11.575 9.19019 11.566 9.17906 11.566Z" fill="black"/>
<path d="M10.7702 11.5673L10.0315 11.566C10.0121 11.5659 9.99631 11.5817 9.99628 11.6011L9.99501 12.3276C9.99497 12.3471 10.0107 12.3628 10.0301 12.3629L10.7689 12.3641C10.7883 12.3642 10.804 12.3485 10.8041 12.329L10.8053 11.6025C10.8054 11.5831 10.7897 11.5673 10.7702 11.5673Z" fill="black"/>
<path d="M12.3745 11.566L11.6255 11.5673C11.6123 11.5674 11.6016 11.5781 11.6016 11.5913L11.6029 12.3404C11.6029 12.3536 11.6137 12.3642 11.6269 12.3642L12.3759 12.3629C12.3891 12.3629 12.3998 12.3522 12.3998 12.339L12.3985 11.5899C12.3985 11.5767 12.3877 11.566 12.3745 11.566Z" fill="black"/>
<path d="M13.9762 11.566L13.2234 11.5673C13.2079 11.5674 13.1953 11.58 13.1954 11.5955L13.1967 12.3361C13.1967 12.3517 13.2093 12.3642 13.2248 12.3642L13.9776 12.3629C13.9932 12.3629 14.0057 12.3503 14.0057 12.3347L14.0044 11.5941C14.0044 11.5786 13.9918 11.566 13.9762 11.566Z" fill="black"/>
<path d="M15.5705 11.566L14.8289 11.5673C14.8134 11.5674 14.8008 11.58 14.8008 11.5955L14.8021 12.3361C14.8022 12.3517 14.8148 12.3642 14.8303 12.3642L15.5719 12.3629C15.5874 12.3629 15.6 12.3503 15.5999 12.3347L15.5986 11.5941C15.5986 11.5786 15.586 11.566 15.5705 11.566Z" fill="black"/>
<path d="M9.16641 13.1598L8.43516 13.1611C8.41703 13.1611 8.40237 13.1758 8.4024 13.1939L8.4037 13.9364C8.40373 13.9546 8.41844 13.9692 8.43657 13.9692L9.16782 13.9679C9.18594 13.9679 9.2006 13.9532 9.20057 13.9351L9.19927 13.1926C9.19924 13.1744 9.18453 13.1598 9.16641 13.1598Z" fill="black"/>
<path d="M10.7649 13.1611L10.0393 13.1586C10.0165 13.1585 9.99798 13.1769 9.9979 13.1997L9.99537 13.9244C9.99529 13.9472 10.0137 13.9657 10.0365 13.9658L10.7621 13.9683C10.7849 13.9684 10.8034 13.95 10.8035 13.9272L10.806 13.2025C10.8061 13.1797 10.7877 13.1612 10.7649 13.1611Z" fill="black"/>
<path d="M12.367 13.1605L11.633 13.1592C11.6156 13.1592 11.6015 13.1732 11.6015 13.1906L11.6002 13.9359C11.6002 13.9532 11.6142 13.9673 11.6316 13.9674L12.3656 13.9686C12.383 13.9687 12.3971 13.9546 12.3971 13.9373L12.3984 13.192C12.3984 13.1746 12.3844 13.1605 12.367 13.1605Z" fill="black"/>
<path d="M13.9594 13.1598L13.2403 13.1611C13.2155 13.1611 13.1953 13.1813 13.1954 13.2061L13.1966 13.9243C13.1967 13.9491 13.2169 13.9692 13.2417 13.9692L13.9608 13.9679C13.9856 13.9679 14.0057 13.9477 14.0057 13.9228L14.0045 13.2047C14.0044 13.1799 13.9842 13.1598 13.9594 13.1598Z" fill="black"/>
<path d="M15.5677 13.1598L14.8308 13.1611C14.8142 13.1611 14.8008 13.1746 14.8008 13.1911L14.8021 13.9393C14.8022 13.9558 14.8156 13.9692 14.8322 13.9692L15.5691 13.9679C15.5856 13.9679 15.599 13.9544 15.599 13.9379L15.5977 13.1897C15.5977 13.1732 15.5842 13.1598 15.5677 13.1598Z" fill="black"/>
</g>
<defs>
<clipPath id="clip0_1_1157">
<rect width="24" height="24" fill="white" transform="translate(0 0.363525)"/>
</clipPath>
</defs>
</svg>
