<svg width="37" height="35" viewBox="0 0 37 35" fill="none" xmlns="http://www.w3.org/2000/svg">
<g clip-path="url(#clip0_2_3667)">
<path d="M27.1046 8.46582C27.1046 10.6246 26.198 12.6949 24.5843 14.2214C22.9706 15.7479 20.7819 16.6055 18.4998 16.6055C16.2177 16.6055 14.029 15.7479 12.4153 14.2214C10.8016 12.6949 9.89502 10.6246 9.89502 8.46582C9.89502 6.30705 10.8016 4.2367 12.4153 2.71022C14.029 1.18374 16.2177 0.326172 18.4998 0.326172C19.6298 0.326172 20.7487 0.53671 21.7927 0.945766C22.8367 1.35482 23.7853 1.95438 24.5843 2.71022C25.3833 3.46606 26.0171 4.36336 26.4496 5.35091C26.882 6.33846 27.1046 7.39691 27.1046 8.46582ZM25.3848 8.46582C25.3848 6.73829 24.6593 5.08151 23.368 3.85996C22.0766 2.63841 20.3252 1.95215 18.4989 1.95215C16.6727 1.95215 14.9212 2.63841 13.6299 3.85996C12.3385 5.08151 11.613 6.73829 11.613 8.46582C11.613 10.1934 12.3385 11.8501 13.6299 13.0717C14.9212 14.2932 16.6727 14.9795 18.4989 14.9795C20.3252 14.9795 22.0766 14.2932 23.368 13.0717C24.6593 11.8501 25.3848 10.1934 25.3848 8.46582Z" fill="black"/>
<path d="M5.71161 24.0902C3.37215 26.6613 2.13475 29.6792 1.99939 33.1438C1.99916 33.15 2.00024 33.1562 2.00257 33.1619C2.0049 33.1677 2.00842 33.173 2.01293 33.1774C2.01744 33.1818 2.02284 33.1853 2.02879 33.1876C2.03475 33.19 2.04114 33.1911 2.04757 33.191C7.95442 33.1828 13.8383 33.1828 19.6993 33.191C20.122 33.1915 20.4085 33.3356 20.5588 33.6231C20.6981 33.8895 20.6955 34.1532 20.551 34.4141C20.4334 34.6257 20.241 34.754 19.9737 34.7991C19.9141 34.8088 19.6913 34.8137 19.3053 34.8137C13.0067 34.8137 6.67888 34.8137 0.321798 34.8137C0.300499 34.8137 0.280058 34.8058 0.264917 34.7916C0.249776 34.7774 0.241156 34.7582 0.240929 34.738C0.228885 33.6866 0.281937 32.6745 0.400086 31.7017C0.729869 28.9793 1.71262 26.5135 3.34835 24.3043C3.66896 23.8713 4.02398 23.446 4.41341 23.0282C5.80596 21.533 7.41645 20.2765 9.24488 19.2587C10.4361 18.5952 11.6801 18.0263 12.9769 17.5522C12.9877 17.5483 12.9993 17.5467 13.0108 17.5476C13.0224 17.5484 13.0337 17.5517 13.044 17.557C15.1976 18.6953 17.5093 19.1155 19.9789 18.8176C21.3548 18.6516 22.6705 18.2328 23.926 17.5611C23.9375 17.5547 23.9505 17.5508 23.9639 17.5497C23.9772 17.5486 23.9907 17.5503 24.0034 17.5546C24.2518 17.6403 24.8064 17.8511 25.6672 18.1869C26.8183 18.6356 27.849 19.2001 28.7592 19.8804C28.9892 20.0524 29.1019 20.2624 29.0973 20.5103C29.0933 20.7311 29.0047 20.9273 28.8314 21.0987C28.6244 21.3043 28.3718 21.373 28.0735 21.3046C27.9301 21.272 27.7171 21.1619 27.4343 20.9742C26.4123 20.2966 25.3059 19.751 24.1153 19.3376C24.1019 19.333 24.0878 19.3309 24.0738 19.3314C24.0597 19.332 24.046 19.3352 24.0335 19.3409C21.9218 20.2968 19.6973 20.6815 17.3601 20.4949C15.8202 20.3722 14.3677 19.9982 13.0027 19.3726C12.9743 19.3596 12.9434 19.3525 12.9119 19.3518C12.8804 19.3511 12.8492 19.3568 12.8203 19.3686C10.6174 20.2486 8.6484 21.4348 6.91346 22.9273C6.47298 23.306 6.07236 23.6936 5.71161 24.0902Z" fill="black"/>
<path d="M30.9978 22.2046C31.269 22.012 31.571 21.8712 31.9037 21.7822C32.234 21.6938 32.5638 21.671 32.893 21.7139C33.4975 21.792 34.0392 22.0573 34.5181 22.5098C34.8525 22.8261 35.1866 23.1424 35.5204 23.4587C35.9534 23.8683 36.2419 24.1965 36.3859 24.4434C36.8212 25.1915 36.8177 25.9557 36.3755 26.7358C36.2534 26.9518 36.0466 27.1986 35.7553 27.4764C33.5443 29.589 31.3253 31.6941 29.0982 33.7915C28.8808 33.996 28.6964 34.1653 28.545 34.2993C28.3162 34.5028 28.1066 34.6392 27.9162 34.7086C27.689 34.7911 27.4496 34.8283 27.1978 34.8201C27.0487 34.8158 26.9707 34.8136 26.9638 34.8136C25.62 34.8115 24.2544 34.8134 22.867 34.8193C22.8512 34.8193 22.836 34.8133 22.8247 34.8027C22.8135 34.792 22.807 34.7775 22.8068 34.7624C22.8005 33.3773 22.7988 31.9838 22.8016 30.5819C22.8022 30.2873 22.8791 30.0155 23.0322 29.7664C23.1148 29.6319 23.3038 29.4254 23.5991 29.1471C25.7161 27.1522 27.8353 25.1595 29.9568 23.1689C30.6129 22.5532 30.9599 22.2317 30.9978 22.2046ZM30.3577 25.074C28.4203 26.8986 26.4852 28.725 24.5524 30.5534C24.5428 30.5624 24.5352 30.5731 24.5301 30.585C24.5249 30.5969 24.5222 30.6096 24.5222 30.6226V33.125C24.5222 33.133 24.5239 33.1409 24.5272 33.1483C24.5304 33.1558 24.5352 33.1625 24.5411 33.1681C24.5471 33.1738 24.5542 33.1783 24.5621 33.1814C24.5699 33.1844 24.5783 33.186 24.5868 33.186H27.2167C27.2456 33.186 27.2742 33.1806 27.3007 33.1701C27.3273 33.1597 27.3514 33.1443 27.3716 33.125C29.8097 30.8192 32.2455 28.5151 34.679 26.2126C34.9514 25.9549 35.0426 25.6803 34.9526 25.389C34.9027 25.2295 34.743 25.0222 34.4734 24.7672C34.0656 24.3804 33.6584 23.9933 33.2518 23.6059C32.9931 23.3591 32.7072 23.272 32.394 23.3447C32.2478 23.3789 32.0852 23.4774 31.9062 23.6401C31.3855 24.1138 30.8693 24.5917 30.3577 25.074Z" fill="black"/>
</g>
<defs>
<clipPath id="clip0_2_3667">
<rect width="37" height="35" fill="white"/>
</clipPath>
</defs>
</svg>
