<svg width="40" height="40" viewBox="0 0 40 40" fill="none" xmlns="http://www.w3.org/2000/svg">
<path d="M0 28.8235V4.54611C0.0854167 3.48778 0.529687 2.64455 1.33281 2.01643C1.95312 1.53205 2.68073 1.28986 3.51562 1.28986C11.4521 1.28934 19.3883 1.29038 27.3242 1.29299C28.4341 1.29351 29.3432 1.7107 30.0516 2.54455C30.4781 3.04611 30.7344 3.60419 30.8203 4.21877C30.8599 4.50262 30.8794 4.85419 30.8789 5.27346C30.8659 11.9729 30.8594 18.7081 30.8594 25.4789C30.8593 25.5029 30.8674 25.5261 30.8823 25.5449C30.8972 25.5636 30.9181 25.5767 30.9414 25.5821C32.4591 25.9331 33.9518 26.2847 35.4195 26.6367C35.6659 26.6961 35.8352 26.7748 35.9273 26.8727C36.0664 27.0196 36.0953 27.1946 36.0141 27.3977C35.9714 27.5029 35.8729 27.6326 35.7188 27.7867C35.3401 28.1654 34.9591 28.5464 34.5758 28.9297C34.568 28.9376 34.5618 28.947 34.5576 28.9572C34.5534 28.9675 34.5513 28.9785 34.5514 28.9896C34.5514 29.0007 34.5537 29.0117 34.558 29.022C34.5623 29.0322 34.5686 29.0415 34.5766 29.0492C36.3052 30.7565 38.0271 32.4748 39.7422 34.2039C39.8703 34.3331 39.944 34.4552 39.9633 34.5703C39.9893 34.7271 39.9568 34.8698 39.8656 34.9985C39.8526 35.0167 39.7555 35.1172 39.5742 35.3C38.5159 36.3662 37.4505 37.4253 36.3781 38.4774C36.2604 38.5935 36.1602 38.6633 36.0773 38.6867C35.9904 38.7112 35.9016 38.7125 35.8109 38.6906C35.7417 38.674 35.6701 38.6292 35.5961 38.5563C33.8549 36.8417 32.1013 35.1005 30.3352 33.3328C30.3244 33.3221 30.3115 33.3135 30.2974 33.3078C30.2833 33.302 30.2682 33.299 30.253 33.2991C30.2377 33.2992 30.2226 33.3022 30.2086 33.3082C30.1945 33.3141 30.1818 33.3227 30.1711 33.3336C29.756 33.7576 29.3497 34.1602 28.9523 34.5414C28.8128 34.6753 28.6831 34.7524 28.5633 34.7727C28.3768 34.8039 28.225 34.7472 28.1078 34.6024C28.0432 34.5232 27.9875 34.386 27.9406 34.1906C27.7786 33.5188 27.6206 32.8526 27.4664 32.1922C27.4622 32.1742 27.452 32.1582 27.4376 32.1467C27.4231 32.1352 27.4052 32.129 27.3867 32.1289C19.6107 32.1289 11.8555 32.1289 4.12109 32.1289C3.68568 32.1289 3.35417 32.1164 3.12656 32.0914C2.03542 31.9722 1.1901 31.4753 0.590625 30.6008C0.239062 30.0878 0.0421875 29.4953 0 28.8235ZM1.69609 3.14143C1.28411 3.60028 1.07682 4.14169 1.07422 4.76565C1.07161 5.31721 1.07318 5.8594 1.07891 6.39221C1.07911 6.40637 1.08488 6.41988 1.09497 6.42982C1.10506 6.43976 1.11865 6.44533 1.13281 6.44533H29.7031C29.7245 6.44533 29.7451 6.43688 29.7603 6.42181C29.7755 6.40674 29.7842 6.38628 29.7844 6.36486C29.7911 5.87163 29.7896 5.38856 29.7797 4.91565C29.7708 4.4969 29.7242 4.16799 29.6398 3.92893C29.4206 3.30809 29.0078 2.85497 28.4016 2.56955C28.1953 2.47216 27.9789 2.40913 27.7523 2.38049C27.5555 2.35601 27.3281 2.34377 27.0703 2.34377C19.3969 2.34377 11.7234 2.34377 4.05 2.34377C3.4349 2.34377 3.01641 2.3758 2.79453 2.43986C2.3737 2.56122 2.00755 2.79507 1.69609 3.14143ZM26.768 24.6078C27.7487 24.8375 28.7354 25.0675 29.7281 25.2977C29.7349 25.2992 29.742 25.2992 29.7488 25.2976C29.7556 25.296 29.762 25.293 29.7674 25.2886C29.7729 25.2843 29.7773 25.2788 29.7804 25.2725C29.7835 25.2662 29.7851 25.2593 29.7852 25.2524V7.55158C29.7852 7.54481 29.7838 7.53811 29.7812 7.53185C29.7786 7.5256 29.7748 7.51991 29.7701 7.51512C29.7653 7.51033 29.7596 7.50654 29.7533 7.50395C29.7471 7.50135 29.7404 7.50002 29.7336 7.50002H1.14219C1.12416 7.50002 1.10687 7.50718 1.09413 7.51993C1.08138 7.53267 1.07422 7.54996 1.07422 7.56799C1.07422 14.606 1.0763 21.6276 1.08047 28.6328C1.08047 29.3146 1.30625 29.8875 1.75781 30.3516C2.22031 30.8266 2.79974 31.0646 3.49609 31.0656C11.3805 31.0714 19.2651 31.0742 27.15 31.0742C27.1561 31.0743 27.1621 31.0729 27.1676 31.0703C27.1731 31.0677 27.1779 31.0639 27.1817 31.0592C27.1855 31.0545 27.1883 31.0489 27.1897 31.043C27.1911 31.0371 27.1911 31.031 27.1898 31.025C26.7648 29.1781 26.3341 27.3354 25.8977 25.4969C25.8424 25.2646 25.818 25.1011 25.8242 25.0063C25.8383 24.7802 25.9461 24.6354 26.1477 24.5719C26.2805 24.5302 26.4872 24.5422 26.768 24.6078ZM30.5203 32.0508C30.5938 32.1003 30.6727 32.1669 30.757 32.2508C32.4721 33.9664 34.1896 35.6776 35.9094 37.3844C35.9195 37.3944 35.9331 37.4 35.9473 37.4C35.9615 37.4 35.9751 37.3944 35.9852 37.3844L38.6773 34.6914C38.6818 34.687 38.6853 34.6818 38.6877 34.6761C38.6901 34.6703 38.6913 34.6642 38.6913 34.658C38.6913 34.6518 38.6901 34.6457 38.6877 34.64C38.6853 34.6344 38.6818 34.6293 38.6773 34.625C36.9206 32.8719 35.169 31.1268 33.4227 29.3899C33.2523 29.2206 33.1964 29.0414 33.2547 28.8524C33.2859 28.7518 33.3854 28.6164 33.5531 28.4461C33.8443 28.1518 34.132 27.8617 34.4164 27.5758C34.4617 27.53 34.4531 27.4998 34.3906 27.4852L27.1164 25.7891C27.1082 25.7871 27.0997 25.7873 27.0915 25.7896C27.0834 25.7918 27.076 25.7962 27.0701 25.8021C27.0641 25.8081 27.0598 25.8155 27.0575 25.8236C27.0552 25.8317 27.0551 25.8403 27.057 25.8485L28.7906 33.1563C28.7979 33.186 28.8122 33.1899 28.8336 33.168C29.1461 32.8555 29.45 32.5516 29.7453 32.2563C29.7474 32.2542 29.7758 32.2235 29.8305 32.1641C29.9414 32.0427 30.0758 31.9779 30.2336 31.9696C30.3357 31.9638 30.4312 31.9909 30.5203 32.0508Z" fill="black"/>
<path d="M6.16399 3.86773L4.07961 3.87137C3.80002 3.87186 3.57376 4.09891 3.57425 4.3785L3.57431 4.416C3.5748 4.6956 3.80185 4.92186 4.08145 4.92137L6.16582 4.91773C6.44541 4.91724 6.67167 4.69019 6.67118 4.4106L6.67112 4.3731C6.67063 4.0935 6.44358 3.86724 6.16399 3.86773Z" fill="black"/>
<path d="M10.3094 3.8703H8.22501C7.94585 3.8703 7.71954 4.09661 7.71954 4.37577V4.41327C7.71954 4.69243 7.94585 4.91874 8.22501 4.91874H10.3094C10.5886 4.91874 10.8149 4.69243 10.8149 4.41327V4.37577C10.8149 4.09661 10.5886 3.8703 10.3094 3.8703Z" fill="black"/>
<path d="M14.4836 3.86951H12.4008C12.1212 3.86951 11.8945 4.09616 11.8945 4.37576V4.41326C11.8945 4.69285 12.1212 4.91951 12.4008 4.91951H14.4836C14.7632 4.91951 14.9898 4.69285 14.9898 4.41326V4.37576C14.9898 4.09616 14.7632 3.86951 14.4836 3.86951Z" fill="black"/>
<path d="M16.8228 15.9724C16.8239 16.3121 16.7582 16.6487 16.6293 16.9629C16.5004 17.2772 16.3109 17.563 16.0715 17.8041C15.8321 18.0451 15.5477 18.2367 15.2343 18.3677C14.9209 18.4988 14.5848 18.5669 14.2451 18.5681L13.8966 18.5693C13.5569 18.5705 13.2204 18.5048 12.9061 18.3759C12.5918 18.247 12.306 18.0574 12.0649 17.8181C11.8239 17.5787 11.6324 17.2942 11.5013 16.9808C11.3702 16.6675 11.3021 16.3313 11.3009 15.9916L11.2897 12.7792C11.2885 12.4395 11.3542 12.1029 11.4831 11.7886C11.612 11.4743 11.8016 11.1885 12.0409 10.9474C12.2803 10.7064 12.5648 10.5149 12.8782 10.3838C13.1915 10.2527 13.5277 10.1846 13.8674 10.1834L14.2158 10.1822C14.5555 10.181 14.8921 10.2468 15.2064 10.3757C15.5207 10.5046 15.8065 10.6941 16.0475 10.9334C16.2886 11.1728 16.4801 11.4573 16.6112 11.7707C16.7423 12.0841 16.8103 12.4202 16.8115 12.7599L16.8228 15.9724ZM15.7609 12.7812C15.7609 12.3751 15.5996 11.9856 15.3124 11.6985C15.0252 11.4113 14.6358 11.25 14.2297 11.25H13.9125C13.5064 11.25 13.1169 11.4113 12.8297 11.6985C12.5425 11.9856 12.3812 12.3751 12.3812 12.7812V15.989C12.3812 16.3952 12.5425 16.7846 12.8297 17.0718C13.1169 17.359 13.5064 17.5203 13.9125 17.5203H14.2297C14.6358 17.5203 15.0252 17.359 15.3124 17.0718C15.5996 16.7846 15.7609 16.3952 15.7609 15.989V12.7812Z" fill="black"/>
<path d="M18.7641 18.4906C18.6068 18.3745 18.5279 18.233 18.5273 18.0664C18.5195 15.6383 18.5156 13.2099 18.5156 10.7812C18.5156 10.3578 18.737 10.1502 19.1797 10.1586C19.5958 10.1664 20.0117 10.1716 20.4273 10.1742C20.9727 10.1773 21.3604 10.2153 21.5906 10.2883C21.9073 10.3883 22.1906 10.5487 22.4406 10.7695C22.6714 10.9737 22.8599 11.2291 23.0063 11.5359C23.4172 12.4005 23.3138 13.2403 22.6961 14.0554C22.6915 14.0613 22.6883 14.0681 22.6866 14.0754C22.6848 14.0826 22.6847 14.0902 22.6861 14.0976C22.6875 14.1049 22.6904 14.1119 22.6947 14.1181C22.699 14.1243 22.7045 14.1296 22.7109 14.1336C23.3807 14.5471 23.7773 15.1021 23.9008 15.7984C23.9763 16.2234 23.9435 16.6336 23.8023 17.0289C23.6549 17.4424 23.4047 17.7898 23.0516 18.0711C22.7375 18.3216 22.3841 18.4791 21.9914 18.5437C21.8674 18.564 21.4898 18.5745 20.8586 18.575C20.2258 18.5755 19.6076 18.5737 19.0039 18.5695C18.9154 18.569 18.8354 18.5427 18.7641 18.4906ZM21.9187 13.325C22.226 12.9052 22.2815 12.4794 22.0852 12.0476C21.9799 11.8153 21.8297 11.6278 21.6344 11.4851C21.4203 11.3284 21.1815 11.25 20.918 11.25C20.5013 11.25 20.0721 11.25 19.6305 11.25C19.6219 11.25 19.6134 11.2517 19.6055 11.2549C19.5976 11.2582 19.5904 11.263 19.5843 11.269C19.5783 11.275 19.5735 11.2822 19.5703 11.2901C19.5671 11.2979 19.5655 11.3063 19.5656 11.3148L19.575 13.7843C19.575 13.7948 19.5792 13.8048 19.5866 13.8122C19.5941 13.8197 19.6042 13.824 19.6148 13.8242C19.8518 13.8273 20.0891 13.8289 20.3266 13.8289C20.8146 13.8294 21.0651 13.8289 21.0781 13.8273C21.425 13.7846 21.7052 13.6172 21.9187 13.325ZM19.6031 17.5242C20.199 17.5195 20.7948 17.5177 21.3906 17.5187C21.6812 17.5192 21.9086 17.4864 22.0727 17.4203C22.4799 17.2562 22.7352 16.9656 22.8383 16.5484C22.9154 16.237 22.8896 15.9393 22.7609 15.6554C22.6177 15.3414 22.3831 15.1231 22.057 15.0008C21.8799 14.9341 21.5982 14.9044 21.2117 14.9117C20.6826 14.9216 20.15 14.925 19.6141 14.9218C19.6083 14.9218 19.6026 14.923 19.5973 14.9251C19.592 14.9273 19.5872 14.9304 19.5831 14.9344C19.5791 14.9384 19.5758 14.9432 19.5736 14.9484C19.5714 14.9536 19.5703 14.9592 19.5703 14.9648L19.575 17.4968C19.575 17.5041 19.578 17.5111 19.5832 17.5162C19.5885 17.5213 19.5957 17.5242 19.6031 17.5242Z" fill="black"/>
<path d="M7.80785 17.1242C7.93494 17.0154 8.03181 16.8625 8.09848 16.6656C8.14171 16.537 8.16462 16.3615 8.16723 16.1391C8.18702 14.4198 8.19275 12.7008 8.18442 10.982C8.18389 10.9768 8.18103 10.9214 8.17582 10.8156C8.16488 10.6026 8.23207 10.4385 8.37738 10.3234C8.50134 10.2255 8.64223 10.1844 8.80004 10.2C8.97817 10.2182 9.10968 10.3159 9.19457 10.493C9.2477 10.605 9.27139 10.7438 9.26567 10.9094C9.26046 11.0484 9.25785 11.119 9.25785 11.1211C9.25785 12.7659 9.25785 14.4104 9.25785 16.0547C9.25785 17.1698 8.79093 17.9372 7.85707 18.357C7.5253 18.506 7.19665 18.5805 6.87113 18.5805C6.51176 18.5805 6.17452 18.5003 5.85942 18.3398C5.04171 17.9232 4.6016 17.2565 4.5391 16.3398C4.5266 16.1581 4.55525 16.0138 4.62504 15.907C4.72556 15.7529 4.87192 15.6797 5.0641 15.6875C5.22244 15.6938 5.34926 15.7471 5.44457 15.8477C5.54405 15.9529 5.5977 16.0935 5.60551 16.2695C5.61645 16.5117 5.68806 16.731 5.82035 16.9273C5.94223 17.1081 6.11098 17.2523 6.3266 17.3602C6.83337 17.6143 7.32712 17.5357 7.80785 17.1242Z" fill="black"/>
<path d="M23.6734 20.782H5.17344C4.88349 20.782 4.64844 21.0171 4.64844 21.307V21.3305C4.64844 21.6204 4.88349 21.8555 5.17344 21.8555H23.6734C23.9634 21.8555 24.1984 21.6204 24.1984 21.3305V21.307C24.1984 21.0171 23.9634 20.782 23.6734 20.782Z" fill="black"/>
<path d="M23.6758 24.0625H5.17109C4.88244 24.0625 4.64844 24.2965 4.64844 24.5852V24.5945C4.64844 24.8832 4.88244 25.1172 5.17109 25.1172H23.6758C23.9644 25.1172 24.1984 24.8832 24.1984 24.5945V24.5852C24.1984 24.2965 23.9644 24.0625 23.6758 24.0625Z" fill="black"/>
<path d="M23.6665 27.3242H5.18052C4.88625 27.3242 4.64771 27.5628 4.64771 27.857V27.8664C4.64771 28.1607 4.88625 28.3992 5.18052 28.3992H23.6665C23.9607 28.3992 24.1993 28.1607 24.1993 27.8664V27.857C24.1993 27.5628 23.9607 27.3242 23.6665 27.3242Z" fill="black"/>
</svg>
