<svg width="37" height="35" viewBox="0 0 37 35" fill="none" xmlns="http://www.w3.org/2000/svg">
<path d="M9.3808 0H27.5917L29.7243 1.99678C29.7613 2.03135 29.8104 2.05075 29.8609 2.05078L34.6983 2.05488C34.7145 2.05488 34.73 2.06098 34.7415 2.07186C34.753 2.08274 34.7596 2.09752 34.7598 2.11299C34.768 6.45381 34.7629 10.7566 34.7446 15.0213C34.7422 15.5777 34.7272 16.0332 34.6998 16.3878C34.5056 18.8565 33.8738 21.2083 32.8043 23.4432C31.2602 26.6679 28.9898 29.3624 25.9932 31.5267C23.8166 33.098 21.3294 34.2558 18.5318 35H18.4776C14.9997 34.079 11.9462 32.4714 9.31721 30.1772C8.96551 29.8705 8.62297 29.5499 8.28959 29.2154C5.30357 26.2181 3.40756 22.6889 2.60156 18.6279C2.36598 17.4412 2.24746 16.1709 2.24602 14.8169C2.24216 10.59 2.24023 6.35036 2.24023 2.09795C2.24023 2.09176 2.24152 2.08562 2.24403 2.0799C2.24654 2.07418 2.25021 2.06898 2.25484 2.0646C2.25947 2.06022 2.26497 2.05674 2.27102 2.05437C2.27707 2.052 2.28355 2.05078 2.2901 2.05078L7.16803 2.04668C7.19161 2.04666 7.21396 2.03806 7.23018 2.02275L9.3808 0ZM8.16602 4.0585C8.15208 4.07212 8.13543 4.08295 8.11706 4.09035C8.09869 4.09775 8.07896 4.10156 8.05906 4.10156H4.47107C4.4544 4.10156 4.43841 4.10783 4.42662 4.11898C4.41483 4.13014 4.4082 4.14526 4.4082 4.16104C4.40628 7.60452 4.40748 11.0355 4.41182 14.4539C4.41278 15.0436 4.42266 15.4991 4.44145 15.8204C4.66065 19.4954 5.89326 22.8215 8.13928 25.7988C8.41967 26.1707 8.71355 26.5314 9.02092 26.881C11.5175 29.7183 14.6637 31.708 18.4595 32.8501C18.492 32.8599 18.5268 32.8599 18.5593 32.8501C22.1547 31.7687 25.1783 29.9088 27.63 27.2706C27.9466 26.9297 28.2506 26.5765 28.542 26.211C30.856 23.3067 32.1825 20.032 32.5217 16.3871C32.5559 16.0207 32.5744 15.5657 32.5773 15.022C32.5952 11.4295 32.6 7.81006 32.5918 4.16377C32.5918 4.14727 32.5848 4.13145 32.5723 4.11978C32.5599 4.10812 32.5429 4.10156 32.5253 4.10156H28.9344C28.9108 4.10158 28.888 4.09275 28.8708 4.07695L26.7975 2.11504C26.776 2.09467 26.7504 2.0785 26.7221 2.06748C26.6938 2.05645 26.6635 2.05078 26.6328 2.05078C21.2591 2.05078 15.8743 2.05078 10.4785 2.05078C10.3692 2.05078 10.281 2.07015 10.214 2.10889C10.2078 2.11253 10.1463 2.16882 10.0297 2.27773C9.40007 2.86608 8.77883 3.45967 8.16602 4.0585Z" fill="black" fill-opacity="0.82"/>
<path d="M13.2745 24.733C11.8152 23.4059 11.0311 21.7924 10.9222 19.8924C10.9155 19.773 10.9121 19.3173 10.9121 18.5253C10.9121 16.5059 10.9121 14.475 10.9121 12.4324C10.9121 12.4166 10.9187 12.4015 10.9305 12.3903C10.9423 12.3792 10.9583 12.3729 10.975 12.3729H13.0165C13.0334 12.3729 13.0495 12.3666 13.0615 12.3553C13.0734 12.344 13.0801 12.3287 13.0801 12.3128C13.0801 11.3047 13.0806 10.288 13.0815 9.26256C13.082 8.6569 13.1868 8.07562 13.3959 7.51872C13.5529 7.0999 13.7738 6.69681 14.0586 6.30944C14.7908 5.31185 15.7775 4.64375 17.0186 4.30514C17.4907 4.17617 17.9655 4.10849 18.4429 4.10211C19.4614 4.08844 20.4003 4.32884 21.2598 4.82331C22.7042 5.65501 23.5637 6.84606 23.8383 8.39645C23.8927 8.70224 23.9199 9.15615 23.9199 9.75817C23.9199 10.6013 23.9199 11.4535 23.9199 12.3148C23.9199 12.3224 23.9215 12.33 23.9246 12.337C23.9277 12.3441 23.9322 12.3505 23.9379 12.3559C23.9436 12.3613 23.9504 12.3656 23.9578 12.3685C23.9653 12.3714 23.9733 12.3729 23.9813 12.3729H26.0265C26.0345 12.3729 26.0425 12.3744 26.05 12.3773C26.0574 12.3803 26.0642 12.3845 26.0699 12.3899C26.0756 12.3953 26.0801 12.4017 26.0832 12.4088C26.0863 12.4158 26.0879 12.4234 26.0879 12.431C26.0879 14.7621 26.0872 17.1011 26.0857 19.4481C26.0843 21.1001 25.5796 22.563 24.5718 23.8368C24.2856 24.1986 23.9618 24.5352 23.6005 24.8465C22.2169 26.0386 20.5772 26.6623 18.6814 26.7174C18.19 26.7316 17.7099 26.701 17.2411 26.6258C15.7149 26.3807 14.3927 25.7497 13.2745 24.733ZM20.7446 7.02038C20.0412 6.38327 19.1969 6.10277 18.2117 6.17887C17.7058 6.21806 17.2614 6.34726 16.8784 6.56647C15.7674 7.20312 15.2189 8.15879 15.2329 9.43346C15.243 10.3736 15.248 11.3359 15.248 12.3203C15.248 12.3331 15.2534 12.3455 15.2629 12.3546C15.2724 12.3637 15.2852 12.3688 15.2986 12.3688L21.7021 12.3606C21.7117 12.3606 21.721 12.3569 21.7279 12.3502C21.7348 12.3436 21.7388 12.3345 21.7389 12.3251C21.7587 11.3854 21.7609 10.4454 21.7454 9.50524C21.7373 8.98935 21.6929 8.60358 21.6125 8.34792C21.4535 7.84251 21.1642 7.4 20.7446 7.02038ZM14.9185 23.3829C15.9977 24.2939 17.2575 24.7227 18.698 24.6694C19.1846 24.6512 19.6577 24.5732 20.1173 24.4356C21.2543 24.0947 22.173 23.4708 22.8735 22.5639C23.1655 22.1861 23.3953 21.7874 23.5629 21.3676C23.7995 20.7738 23.918 20.1511 23.9185 19.4994C23.9194 17.8414 23.9199 16.1726 23.9199 14.4927C23.9199 14.4755 23.9127 14.459 23.8998 14.4468C23.8869 14.4346 23.8695 14.4278 23.8513 14.4278L13.1429 14.4237C13.1263 14.4237 13.1103 14.43 13.0985 14.4411C13.0867 14.4523 13.0801 14.4674 13.0801 14.4832C13.0801 15.906 13.0801 17.3363 13.0801 18.7741C13.0801 18.7773 13.0765 18.953 13.0692 19.3011C13.035 20.9532 13.6515 22.3137 14.9185 23.3829Z" fill="black" fill-opacity="0.82"/>
<path d="M19.5428 16.4746H17.4572C17.4345 16.4746 17.416 16.4921 17.416 16.5136V22.588C17.416 22.6095 17.4345 22.627 17.4572 22.627H19.5428C19.5655 22.627 19.584 22.6095 19.584 22.588V16.5136C19.584 16.4921 19.5655 16.4746 19.5428 16.4746Z" fill="black" fill-opacity="0.82"/>
</svg>
