<svg width="40" height="40" viewBox="0 0 40 40" fill="none" xmlns="http://www.w3.org/2000/svg">
<g clip-path="url(#clip0_1_1119)">
<path d="M24.9039 5.27263C27.0227 7.32628 28.3375 9.79034 28.8485 12.6648C28.9396 13.1789 29 13.6958 29.0297 14.2156C29.1818 16.8515 28.6146 19.3354 27.3282 21.6672C27.3207 21.681 27.318 21.6968 27.3205 21.7121C27.3231 21.7275 27.3307 21.7413 27.3422 21.7515C30.5704 24.6547 33.7808 27.544 36.9735 30.4195C37.5079 30.9013 37.8711 31.2724 38.0633 31.5328C38.6737 32.3609 38.9537 33.2974 38.9032 34.3422C38.8771 34.8791 38.7641 35.3846 38.5641 35.8586C38.2454 36.6164 37.7459 37.2401 37.0657 37.7297C36.6678 38.0156 36.2284 38.2284 35.7477 38.3679C35.293 38.4992 34.8157 38.5534 34.3157 38.5304C33.2657 38.482 32.3545 38.1153 31.5821 37.4304C31.4597 37.3221 31.1047 36.9422 30.5172 36.2906C27.7105 33.1807 24.9099 30.0648 22.1157 26.9429C22.1084 26.9347 22.0985 26.9292 22.0875 26.9273C22.0766 26.9255 22.0653 26.9274 22.0555 26.9328C20.2477 27.913 18.3253 28.4646 16.2883 28.5875C15.7763 28.6182 15.2558 28.6179 14.7266 28.5867C11.5667 28.3997 8.80473 27.2578 6.44067 25.1609C5.05838 23.9349 3.96124 22.4539 3.14926 20.7179C2.27687 18.8518 1.86957 16.8482 1.92739 14.707C2.00343 11.8903 2.84405 9.36352 4.44926 7.12654C4.74926 6.70831 5.07713 6.30388 5.43286 5.91326C7.62296 3.50701 10.3433 2.06326 13.5938 1.58201C14.85 1.39607 16.1727 1.41065 17.5618 1.62576C20.4019 2.06534 22.8493 3.28097 24.9039 5.27263ZM27.6383 15.0336C27.6383 11.8108 26.3581 8.71998 24.0792 6.44112C21.8004 4.16226 18.7096 2.88201 15.4868 2.88201C12.264 2.88201 9.17317 4.16226 6.89431 6.44112C4.61545 8.71998 3.3352 11.8108 3.3352 15.0336C3.3352 18.2564 4.61545 21.3472 6.89431 23.626C9.17317 25.9049 12.264 27.1851 15.4868 27.1851C17.0825 27.1851 18.6627 26.8708 20.137 26.2601C21.6113 25.6495 22.9508 24.7544 24.0792 23.626C25.2076 22.4976 26.1027 21.1581 26.7133 19.6838C27.324 18.2095 27.6383 16.6293 27.6383 15.0336ZM29.0422 25.0679C29.0478 25.0623 29.0521 25.0556 29.055 25.0482C29.0578 25.0408 29.0591 25.0329 29.0589 25.0249C29.0586 25.017 29.0567 25.0091 29.0533 25.0019C29.0499 24.9947 29.0451 24.9882 29.0391 24.9828L26.786 22.9539C26.7729 22.9421 26.7559 22.9357 26.7384 22.9361C26.7209 22.9366 26.7044 22.9438 26.6922 22.9562C26.3724 23.2786 26.0571 23.6094 25.7461 23.9484C25.3566 24.3729 24.9482 24.7784 24.5211 25.1648C24.1066 25.5393 23.7086 25.9307 23.3274 26.339C23.3201 26.3467 23.316 26.3568 23.3159 26.3674C23.3158 26.378 23.3196 26.3882 23.3266 26.3961L25.3797 28.6758C25.3837 28.6802 25.3886 28.6838 25.394 28.6864C25.3994 28.6889 25.4053 28.6903 25.4113 28.6905C25.4172 28.6908 25.4232 28.6898 25.4288 28.6876C25.4344 28.6855 25.4395 28.6823 25.4438 28.6781L29.0422 25.0679ZM30.0649 25.9203C30.0567 25.9131 30.0462 25.9092 30.0353 25.9095C30.0244 25.9098 30.014 25.9142 30.0063 25.9219L26.2961 29.6406C26.2889 29.648 26.2847 29.6579 26.2846 29.6684C26.2844 29.6788 26.2883 29.689 26.2954 29.6968C28.0521 31.6614 29.8141 33.6218 31.5813 35.5781C32.1313 36.187 32.4956 36.5573 32.6743 36.689C33.1446 37.0359 33.6789 37.2281 34.2774 37.2656C35.0441 37.3135 35.7146 37.1312 36.2891 36.7187C37.2157 36.0531 37.6654 35.17 37.6383 34.0695C37.6279 33.6351 37.5448 33.2359 37.3891 32.8719C37.2193 32.4745 36.9779 32.1341 36.6649 31.8508C34.4914 29.8825 32.2914 27.9057 30.0649 25.9203Z" fill="black"/>
<path d="M25.8437 15.0344C25.8437 16.3945 25.5758 17.7413 25.0553 18.9979C24.5348 20.2544 23.7719 21.3962 22.8102 22.3579C21.8485 23.3197 20.7067 24.0826 19.4501 24.603C18.1936 25.1235 16.8468 25.3914 15.4867 25.3914C12.7398 25.3914 10.1055 24.3002 8.16314 22.3579C6.22082 20.4156 5.12964 17.7813 5.12964 15.0344C5.12964 12.2875 6.22082 9.65319 8.16314 7.71087C10.1055 5.76855 12.7398 4.67737 15.4867 4.67737C16.8468 4.67737 18.1936 4.94526 19.4501 5.46575C20.7067 5.98624 21.8485 6.74913 22.8102 7.71087C23.7719 8.67261 24.5348 9.81436 25.0553 11.0709C25.5758 12.3275 25.8437 13.6743 25.8437 15.0344ZM20.757 16.7125C21.7294 17.8844 22.2661 19.2584 22.3671 20.8344C22.3734 20.9287 22.4059 20.9388 22.4648 20.8649C24.2289 18.6675 24.8843 16.1992 24.4312 13.4602C24.3442 12.9367 24.2127 12.4341 24.0367 11.9524C23.3841 10.1675 22.2867 8.72398 20.7445 7.6219C20.3169 7.31617 19.869 7.05211 19.4007 6.82971C18.0174 6.17346 16.5635 5.88258 15.039 5.95706C13.3692 6.03883 11.8403 6.54195 10.4523 7.46643C10.0179 7.75549 9.61115 8.08023 9.23198 8.44065C8.04344 9.57034 7.21714 10.9248 6.75308 12.5039C6.60828 12.9977 6.50907 13.5081 6.45542 14.0352C6.20073 16.5253 6.86349 18.7745 8.4437 20.7828C8.48797 20.8391 8.51245 20.8315 8.51714 20.7602C8.61401 19.2893 9.12417 17.9766 10.0476 16.8219C10.7768 15.9104 11.7031 15.2146 12.8265 14.7344C12.8341 14.7311 12.8406 14.7259 12.8456 14.7193C12.8505 14.7126 12.8537 14.7049 12.8547 14.6967C12.8557 14.6885 12.8546 14.6802 12.8514 14.6725C12.8483 14.6649 12.8432 14.6582 12.8367 14.6531C12.1882 14.1641 11.7033 13.5735 11.382 12.8813C11.17 12.424 11.0429 11.9224 11.0007 11.3766C10.9044 10.1271 11.2598 9.03935 12.0671 8.11331C12.4218 7.70653 12.8218 7.37711 13.2671 7.12502C13.888 6.77294 14.5567 6.58544 15.2734 6.56252C16.5541 6.5219 17.6591 6.95992 18.5882 7.87659C19.0361 8.31877 19.37 8.82476 19.5898 9.39456C20.044 10.5706 20.0078 11.7344 19.4812 12.886C19.1619 13.5839 18.6763 14.1774 18.0242 14.6664C18.0198 14.6699 18.0164 14.6744 18.0142 14.6795C18.0121 14.6847 18.0114 14.6903 18.0121 14.6958C18.0128 14.7013 18.0149 14.7065 18.0183 14.711C18.0216 14.7154 18.0261 14.7189 18.0312 14.7211C18.614 14.9716 19.1466 15.2771 19.6289 15.6375C20.0429 15.9464 20.419 16.3047 20.757 16.7125ZM18.6335 11.025C18.6335 10.1778 18.297 9.36524 17.6979 8.76615C17.0988 8.16706 16.2863 7.83049 15.439 7.83049C14.5918 7.83049 13.7792 8.16706 13.1801 8.76615C12.581 9.36524 12.2445 10.1778 12.2445 11.025C12.2445 11.8723 12.581 12.6848 13.1801 13.2839C13.7792 13.883 14.5918 14.2196 15.439 14.2196C16.2863 14.2196 17.0988 13.883 17.6979 13.2839C18.297 12.6848 18.6335 11.8723 18.6335 11.025ZM19.1757 16.9C17.9085 15.8068 16.469 15.3422 14.857 15.5063C14.3216 15.561 13.8171 15.6821 13.3437 15.8696C12.4463 16.2248 11.6809 16.7854 11.0476 17.5516C10.5054 18.2078 10.1411 18.9511 9.95464 19.7813C9.95358 19.7859 9.95357 19.7906 9.95461 19.7952C9.95565 19.7998 9.95771 19.8041 9.96064 19.8078C9.96356 19.8114 9.96729 19.8144 9.97152 19.8165C9.97576 19.8185 9.9804 19.8196 9.98511 19.8196L20.8867 19.8289C20.8934 19.8289 20.9001 19.8273 20.9062 19.8243C20.9122 19.8214 20.9175 19.8171 20.9217 19.8118C20.9258 19.8066 20.9287 19.8004 20.9301 19.7939C20.9314 19.7874 20.9313 19.7807 20.9296 19.7742C20.6375 18.6149 20.0528 17.6568 19.1757 16.9ZM9.26714 21.6336C11.1645 23.3935 13.3955 24.2172 15.9601 24.1047C16.4903 24.0813 17.0054 24.011 17.5054 23.8938C19.257 23.4818 20.7731 22.6227 22.0539 21.3164C22.0554 21.3149 22.0835 21.288 22.1382 21.236C22.258 21.1209 22.2268 21.0709 22.0445 21.086C21.9778 21.0912 21.9299 21.0938 21.9007 21.0938C17.5497 21.0938 13.1919 21.0938 8.82729 21.0938C8.75542 21.0938 8.74266 21.1211 8.78901 21.1758C8.86245 21.2628 8.94552 21.3472 9.03823 21.4289C9.18563 21.5607 9.26193 21.6289 9.26714 21.6336Z" fill="black"/>
<path d="M40 20.9227V21.0008L28.5703 21.0156C28.5604 21.0157 28.5507 21.0136 28.5417 21.0097C28.5326 21.0057 28.5245 20.9998 28.5179 20.9924C28.5113 20.985 28.5063 20.9763 28.5032 20.9669C28.5001 20.9574 28.499 20.9474 28.5 20.9375C28.5229 20.7224 28.5482 20.5018 28.5758 20.2758C28.6075 20.0206 28.6461 19.8023 28.6914 19.6211C29.1325 17.8534 30.1979 16.5544 31.8875 15.7242C31.8943 15.7209 31.9001 15.7159 31.9045 15.7098C31.9089 15.7036 31.9117 15.6965 31.9127 15.689C31.9137 15.6815 31.9129 15.6739 31.9102 15.6669C31.9076 15.6598 31.9033 15.6534 31.8976 15.6484C31.1534 14.987 30.7117 14.2102 30.5726 13.318C30.4924 12.8013 30.5219 12.2854 30.6609 11.7703C30.888 10.9292 31.3693 10.2464 32.1047 9.72187C32.6375 9.34167 33.2255 9.12109 33.8687 9.06015C34.3875 9.0112 34.9013 9.06797 35.4101 9.23047C36.2325 9.49349 36.8885 9.99896 37.3781 10.7469C37.6542 11.1693 37.8336 11.6331 37.9164 12.1383C37.9961 12.6258 37.9807 13.1125 37.8703 13.5984C37.6864 14.4057 37.2622 15.0865 36.5976 15.6406C36.5912 15.646 36.5863 15.6528 36.5831 15.6606C36.58 15.6683 36.5789 15.6767 36.5798 15.6849C36.5808 15.6932 36.5837 15.701 36.5885 15.7077C36.5932 15.7145 36.5996 15.7199 36.607 15.7234C38.5117 16.6599 39.6159 18.1737 39.9195 20.2648C39.9237 20.2945 39.9341 20.4044 39.9508 20.5945C39.9601 20.7049 39.9765 20.8143 40 20.9227ZM36.6976 12.7633C36.6976 12.1131 36.4394 11.4895 35.9796 11.0298C35.5198 10.57 34.8963 10.3117 34.2461 10.3117C33.5959 10.3117 32.9723 10.57 32.5126 11.0298C32.0528 11.4895 31.7945 12.1131 31.7945 12.7633C31.7945 13.4135 32.0528 14.037 32.5126 14.4968C32.9723 14.9566 33.5959 15.2148 34.2461 15.2148C34.8963 15.2148 35.5198 14.9566 35.9796 14.4968C36.4394 14.037 36.6976 13.4135 36.6976 12.7633ZM30.993 17.9062C30.5065 18.4286 30.1656 19.0292 29.9703 19.7078C29.9689 19.7123 29.9687 19.717 29.9695 19.7216C29.9703 19.7262 29.9722 19.7306 29.975 19.7343C29.9778 19.738 29.9815 19.741 29.9857 19.7431C29.9899 19.7451 29.9945 19.7462 29.9992 19.7461L38.4656 19.7508C38.4736 19.7508 38.4815 19.7489 38.4887 19.7452C38.4959 19.7416 38.5021 19.7364 38.5069 19.7299C38.5117 19.7235 38.5149 19.716 38.5162 19.7081C38.5176 19.7002 38.5171 19.6921 38.5148 19.6844C38.2299 18.7583 37.7255 18.0099 37.0015 17.4391C36.588 17.1125 36.1325 16.8664 35.6351 16.7008C34.945 16.4701 34.2385 16.4174 33.5156 16.543C32.5187 16.7159 31.6779 17.1703 30.993 17.9062Z" fill="black"/>
<path d="M3.37261 32.475C3.38294 32.4701 3.39188 32.4627 3.39864 32.4535C3.40539 32.4443 3.40974 32.4335 3.41129 32.4222C3.41284 32.4108 3.41155 32.3993 3.40752 32.3886C3.4035 32.3779 3.39687 32.3684 3.38823 32.3609C3.07209 32.089 2.80672 31.783 2.59214 31.4429C2.38589 31.1169 2.23459 30.7481 2.13823 30.3367C1.82469 28.9976 2.16506 27.8291 3.15933 26.8312C3.75985 26.2276 4.47808 25.8812 5.31401 25.7922C5.83693 25.7364 6.35178 25.7859 6.85855 25.9406C7.58615 26.162 8.18407 26.5692 8.6523 27.1625C8.98459 27.5833 9.21766 28.045 9.35151 28.5476C9.55776 29.3231 9.49943 30.1091 9.17651 30.9054C8.94839 31.4685 8.59006 31.957 8.10151 32.3711C8.09583 32.3759 8.09144 32.3821 8.08874 32.3891C8.08604 32.3961 8.08512 32.4037 8.08605 32.4111C8.08698 32.4185 8.08973 32.4256 8.09407 32.4317C8.0984 32.4378 8.10418 32.4427 8.11089 32.4461C10.252 33.5127 11.3776 35.264 11.4875 37.7C11.4877 37.7051 11.4869 37.7103 11.4851 37.7151C11.4834 37.7199 11.4807 37.7244 11.4773 37.7281C11.4738 37.7318 11.4697 37.7348 11.4652 37.7368C11.4606 37.7388 11.4557 37.7398 11.4507 37.7398L0.0819834 37.7539C0.0725778 37.7539 0.0632682 37.752 0.0546436 37.7482C0.046019 37.7444 0.0382672 37.7389 0.0318786 37.7319C0.0254901 37.7249 0.0206037 37.7167 0.0175288 37.7077C0.0144539 37.6987 0.0132573 37.6891 0.0140147 37.6797C0.0353689 37.4359 0.0601084 37.2138 0.0882334 37.0133C0.38615 34.8898 1.48094 33.3771 3.37261 32.475ZM8.20542 29.4883C8.20542 28.8381 7.94713 28.2145 7.48737 27.7547C7.02762 27.295 6.40405 27.0367 5.75386 27.0367C5.10366 27.0367 4.4801 27.295 4.02034 27.7547C3.56059 28.2145 3.3023 28.8381 3.3023 29.4883C3.3023 30.1384 3.56059 30.762 4.02034 31.2218C4.4801 31.6815 5.10366 31.9398 5.75386 31.9398C6.40405 31.9398 7.02762 31.6815 7.48737 31.2218C7.94713 30.762 8.20542 30.1384 8.20542 29.4883ZM8.77573 34.4078C7.91375 33.6125 6.88954 33.2218 5.70308 33.2359C4.57287 33.2495 3.59318 33.6325 2.76401 34.3851C2.16349 34.9304 1.73771 35.6101 1.48667 36.4242C1.48446 36.4311 1.48391 36.4384 1.48506 36.4456C1.48621 36.4527 1.48903 36.4595 1.49329 36.4654C1.49755 36.4712 1.50313 36.476 1.50959 36.4793C1.51604 36.4826 1.52318 36.4843 1.53042 36.4843H9.9898C9.99457 36.4844 9.99929 36.4834 10.0036 36.4813C10.0079 36.4792 10.0116 36.4761 10.0145 36.4723C10.0174 36.4685 10.0194 36.4641 10.0202 36.4594C10.0211 36.4547 10.0208 36.4499 10.0195 36.4453C9.79709 35.6474 9.3825 34.9682 8.77573 34.4078Z" fill="black"/>
</g>
<defs>
<clipPath id="clip0_1_1119">
<rect width="40" height="40" fill="white"/>
</clipPath>
</defs>
</svg>
