<svg width="37" height="35" viewBox="0 0 37 35" fill="none" xmlns="http://www.w3.org/2000/svg">
<path d="M18.3779 0H18.6308C18.6929 0.0127604 18.7553 0.025293 18.818 0.0375977C18.8806 0.0499023 18.9411 0.0674479 18.9994 0.0902344C25.6887 2.69883 30.4303 4.56003 33.2241 5.67383C33.5893 5.81966 33.8451 6.06097 33.9916 6.39775C34.0576 6.54997 34.092 6.76689 34.0949 7.04854C34.1185 9.33037 34.1197 11.6122 34.0985 13.894C34.0932 14.4368 34.0764 14.8921 34.0479 15.2599C33.6885 19.8983 32.0274 24.0388 29.0645 27.6814C26.4316 30.918 23.0792 33.3266 19.0073 34.907C18.9442 34.9316 18.8782 34.9501 18.8093 34.9624C18.7409 34.9747 18.6725 34.9872 18.6041 35H18.3873C18.2124 34.9758 18.0647 34.9403 17.9443 34.8934C14.8417 33.6784 12.1678 31.9922 9.92279 29.8348C7.32027 27.3333 5.42932 24.4736 4.24994 21.2557C3.34469 18.7852 2.89183 16.2401 2.89135 13.6206C2.89087 11.4044 2.89062 9.18841 2.89062 6.97266C2.89062 6.48138 3.10285 6.08968 3.52729 5.79756C3.61689 5.73603 3.80214 5.65195 4.08301 5.54531C4.43133 5.4127 4.60814 5.34548 4.61344 5.34365C8.81737 3.68936 13.0227 2.0387 17.2296 0.391699C17.232 0.390788 17.3522 0.34043 17.5902 0.240625C17.8431 0.133984 18.1057 0.053776 18.3779 0ZM30.8256 17.5041C31.0882 16.2221 31.2195 14.9276 31.2195 13.6206C31.219 11.712 31.2188 9.80273 31.2188 7.89277C31.2187 7.8778 31.214 7.86319 31.2053 7.85078C31.1965 7.83837 31.1841 7.82872 31.1696 7.82305L18.5311 2.85879C18.5212 2.85488 18.5107 2.85286 18.5 2.85286C18.4893 2.85286 18.4788 2.85488 18.4689 2.85879L5.83979 7.81963C5.82246 7.8263 5.80763 7.83767 5.7972 7.85228C5.78677 7.8669 5.78122 7.88409 5.78125 7.90166C5.78125 9.44111 5.77764 10.9715 5.77041 12.4927C5.76607 13.4187 5.78173 14.1935 5.81738 14.8169C5.94698 17.081 6.47355 19.2742 7.39711 21.3965C7.57729 21.8107 7.77795 22.225 7.99908 22.6393C10.2841 26.924 13.7519 30.0806 18.4024 32.1091C18.4324 32.122 18.4649 32.1286 18.4977 32.1286C18.5305 32.1286 18.5628 32.122 18.5925 32.1091C22.1537 30.5778 25.0564 28.3131 27.3005 25.3148C29.0681 22.9533 30.2432 20.3497 30.8256 17.5041Z" fill="black" fill-opacity="0.8"/>
<path d="M16.8608 18.2569C16.8727 18.268 16.8888 18.2743 16.9056 18.2743C16.9224 18.2743 16.9385 18.268 16.9504 18.2569C18.878 16.4335 20.7716 14.642 22.6312 12.8824C23.0768 12.4614 23.3955 12.2091 23.5873 12.1257C24.0459 11.927 24.5226 11.9881 25.0174 12.3089C25.1711 12.4087 25.2976 12.547 25.3968 12.7239C25.485 12.8806 25.5418 13.0511 25.5674 13.2352C25.6271 13.6672 25.4949 14.0364 25.1706 14.3426C22.8355 16.5515 20.5003 18.7604 18.1652 20.9694C17.9007 21.2196 17.6786 21.3852 17.4989 21.4663C17.0947 21.6482 16.6999 21.6511 16.3145 21.4752C16.1295 21.3905 15.8455 21.1678 15.4625 20.8073C14.2927 19.7054 13.1283 18.5987 11.9691 17.4871C11.7499 17.2766 11.6042 17.0932 11.5319 16.9368C11.3358 16.5107 11.3775 16.0846 11.6569 15.6585C11.7581 15.5049 11.8961 15.3757 12.071 15.2709C12.2295 15.1761 12.4068 15.1112 12.6029 15.0761C13.102 14.9877 13.5366 15.1192 13.9066 15.4705C14.8981 16.4125 15.8828 17.3413 16.8608 18.2569Z" fill="black" fill-opacity="0.8"/>
</svg>
