<svg width="24" height="25" viewBox="0 0 24 25" fill="none" xmlns="http://www.w3.org/2000/svg">
<g clip-path="url(#clip0_24_169)">
<path d="M2.40516 0.667816H14.5927C15.3692 0.725004 15.9828 1.03422 16.4334 1.59547C16.6359 1.84766 16.7822 2.12141 16.8722 2.41672C16.96 2.70485 17.0039 3.02032 17.0039 3.36313C17.0039 5.30438 17.0039 7.24578 17.0039 9.18735C17.0039 9.35485 16.9508 9.48719 16.8445 9.58438C16.747 9.67344 16.6245 9.71766 16.477 9.71704C16.2742 9.71579 16.1308 9.61641 16.0467 9.41891C16.0195 9.35454 16.0041 9.2761 16.0003 9.1836C15.9975 9.11578 15.9961 9.035 15.9961 8.94125C15.9961 7.21625 15.9961 5.49125 15.9961 3.76625C15.9961 3.28594 15.9903 3.00985 15.9788 2.93797C15.9322 2.64516 15.8097 2.3886 15.6112 2.16828C15.4622 2.00266 15.2872 1.87719 15.0863 1.79188C14.8837 1.70594 14.6675 1.66297 14.4375 1.66297C10.4766 1.6636 6.51562 1.66469 2.55469 1.66625C2.08156 1.66657 1.68984 1.84032 1.37953 2.1875C1.16391 2.42875 1.04156 2.71141 1.0125 3.03547C1.00156 3.15485 0.996094 3.33438 0.996094 3.57407C0.996094 8.54657 0.996094 13.5192 0.996094 18.492C0.996094 18.7108 0.9975 18.8984 1.00031 19.055C1.00406 19.2816 1.02859 19.4663 1.07391 19.6091C1.23953 20.1313 1.59766 20.4683 2.14828 20.6202C2.21578 20.6389 2.29266 20.6519 2.37891 20.6591C2.48047 20.6675 2.55859 20.6717 2.61328 20.6717C4.75016 20.6717 6.88688 20.6717 9.02344 20.6717C9.16781 20.6717 9.28562 20.7206 9.37687 20.8184C9.45719 20.9047 9.50141 21.0134 9.50953 21.1447C9.52203 21.3481 9.43703 21.5002 9.25453 21.6008C9.18734 21.6377 9.10578 21.6583 9.00984 21.6627C8.93984 21.6661 8.85453 21.6678 8.75391 21.6678C6.86703 21.6678 4.98016 21.6678 3.09328 21.6678C2.59797 21.6678 2.28609 21.6589 2.15766 21.6411C1.57484 21.5611 1.07922 21.3034 0.670781 20.8681C0.262031 20.4322 0.0384375 19.897 0 19.2627V3.06735C0.0509375 2.31485 0.352656 1.70735 0.905156 1.24485C1.32297 0.89516 1.82297 0.702816 2.40516 0.667816Z" fill="black"/>
<path d="M8.5022 4.66532H3.49782C3.22548 4.66532 3.0047 4.8861 3.0047 5.15844V5.17719C3.0047 5.44954 3.22548 5.67032 3.49782 5.67032H8.5022C8.77455 5.67032 8.99532 5.44954 8.99532 5.17719V5.15844C8.99532 4.8861 8.77455 4.66532 8.5022 4.66532Z" fill="black"/>
<path d="M13.5005 8.67172H3.49548C3.22366 8.67172 3.0033 8.89208 3.0033 9.16391V9.17516C3.0033 9.44699 3.22366 9.66735 3.49548 9.66735H13.5005C13.7723 9.66735 13.9927 9.44699 13.9927 9.17516V9.16391C13.9927 8.89208 13.7723 8.67172 13.5005 8.67172Z" fill="black"/>
<path d="M24 18.0261V18.3308C23.9353 19.9739 23.3659 21.3802 22.2919 22.5495C21.0706 23.8795 19.5297 24.5856 17.6691 24.6678H17.3292C15.9083 24.6094 14.6483 24.1603 13.5492 23.3206C13.302 23.1319 13.0686 22.9248 12.8489 22.6995C11.8989 21.7261 11.3122 20.5727 11.0887 19.2392C10.865 17.9036 11.0436 16.6227 11.6245 15.3964C11.7592 15.112 11.9128 14.8402 12.0853 14.5808C12.7584 13.5683 13.648 12.8017 14.7539 12.2811C15.7952 11.7908 16.9045 11.5955 18.082 11.6952C19.1995 11.7898 20.2253 12.1589 21.1594 12.8023C21.4131 12.9773 21.6567 13.1727 21.8902 13.3883C23.2145 14.6123 23.9178 16.1583 24 18.0261ZM22.9959 18.1677C22.9959 16.71 22.4169 15.3121 21.3862 14.2813C20.3554 13.2506 18.9575 12.6716 17.4998 12.6716C16.0422 12.6716 14.6442 13.2506 13.6135 14.2813C12.5828 15.3121 12.0037 16.71 12.0037 18.1677C12.0037 19.6253 12.5828 21.0233 13.6135 22.054C14.6442 23.0847 16.0422 23.6638 17.4998 23.6638C18.9575 23.6638 20.3554 23.0847 21.3862 22.054C22.4169 21.0233 22.9959 19.6253 22.9959 18.1677Z" fill="black"/>
<path d="M9.50486 12.6688H3.49267C3.2224 12.6688 3.0033 12.8879 3.0033 13.1581V13.1741C3.0033 13.4443 3.2224 13.6634 3.49267 13.6634H9.50486C9.77513 13.6634 9.99423 13.4443 9.99423 13.1741V13.1581C9.99423 12.8879 9.77513 12.6688 9.50486 12.6688Z" fill="black"/>
<path d="M14.2238 18.5769C13.9931 18.405 13.9364 18.1941 14.0536 17.9441C14.1186 17.8056 14.2227 17.7198 14.3658 17.6867C14.4083 17.6767 14.5345 17.6717 14.7445 17.6717C15.482 17.6717 16.2197 17.6717 16.9575 17.6717C16.9698 17.6717 16.9816 17.6668 16.9903 17.6581C16.999 17.6494 17.0039 17.6376 17.0039 17.6253C17.0039 16.8125 17.0039 15.9998 17.0039 15.1873C17.0039 15.022 17.0635 14.8903 17.1825 14.7922C17.3597 14.6463 17.5453 14.6266 17.7394 14.7331C17.9206 14.8328 18.0103 14.9959 18.0085 15.2225C18.0013 16.0341 17.9994 16.8395 18.0028 17.6389C18.0028 17.6476 18.0063 17.656 18.0126 17.6621C18.0188 17.6683 18.0273 17.6717 18.0361 17.6717C18.8124 17.6717 19.5758 17.6717 20.3264 17.6717C20.5239 17.6717 20.6644 17.6945 20.7478 17.7402C20.8581 17.8008 20.9325 17.8939 20.971 18.0195C21.0047 18.1302 20.9995 18.2409 20.9555 18.3519C20.8908 18.5144 20.7741 18.6144 20.6053 18.6519C20.5581 18.6625 20.4147 18.6678 20.175 18.6678C19.4716 18.6678 18.7599 18.6678 18.0399 18.6678C18.0293 18.6678 18.0192 18.672 18.0117 18.6795C18.0042 18.687 18 18.6971 18 18.7077C18 19.513 18.0006 20.3239 18.0019 21.1405C18.0022 21.2745 17.957 21.3905 17.8664 21.4883C17.688 21.6811 17.4874 21.7205 17.2645 21.6064C17.0892 21.5167 17.0017 21.3614 17.002 21.1405C17.0033 20.328 17.0039 19.5144 17.0039 18.6997C17.0039 18.6912 17.0006 18.6831 16.9946 18.6772C16.9886 18.6712 16.9805 18.6678 16.972 18.6678C16.207 18.6678 15.4505 18.6678 14.7024 18.6678C14.6989 18.6678 14.6553 18.6697 14.5716 18.6734C14.4338 18.6794 14.3178 18.6472 14.2238 18.5769Z" fill="black"/>
</g>
<defs>
<clipPath id="clip0_24_169">
<rect width="24" height="24" fill="white" transform="translate(0 0.667816)"/>
</clipPath>
</defs>
</svg>
