<svg width="24" height="25" viewBox="0 0 24 25" fill="none" xmlns="http://www.w3.org/2000/svg">
<path d="M24 13.531V13.8825C23.9128 15.4688 23.3089 16.8139 22.1883 17.918C22.1777 17.9286 22.1714 17.9426 22.1705 17.9574C22.1548 18.2646 22.1514 18.5147 22.1602 18.7078C22.202 19.6247 21.8769 20.3503 21.1847 20.8847C20.9147 21.0928 20.6095 21.2343 20.2692 21.3089C20.0886 21.3483 19.7777 21.368 19.3364 21.368C17.6555 21.368 15.9747 21.368 14.2941 21.368C14.1588 21.368 14.0616 21.3528 14.0025 21.3225C13.8981 21.2685 13.8403 21.1772 13.8291 21.0488C13.8231 20.9841 13.833 20.9253 13.8586 20.8725C13.8867 20.8138 13.9273 20.7666 13.9805 20.731C14.0336 20.6953 14.1095 20.675 14.2083 20.67C14.2748 20.6666 14.3552 20.6649 14.4492 20.6649C16.0158 20.6649 17.5822 20.6649 19.1484 20.6649C19.6537 20.6649 19.9655 20.6527 20.0836 20.6283C20.453 20.5521 20.7702 20.3613 21.0352 20.056C21.3105 19.7378 21.4505 19.3666 21.4552 18.9422C21.4564 18.8132 21.457 18.673 21.457 18.5218C21.457 18.5049 21.4498 18.5011 21.4355 18.5105C20.3592 19.2174 19.1952 19.5475 17.9433 19.501C17.6252 19.4891 17.3152 19.4524 17.0133 19.3908C16.2652 19.2374 15.5603 18.9427 14.8988 18.5068C14.8914 18.5018 14.8825 18.4997 14.8737 18.5006C14.8649 18.5015 14.8566 18.5055 14.8505 18.5119L14.1459 19.2164C14.1399 19.2223 14.1354 19.2297 14.1328 19.2378C14.1303 19.2459 14.1298 19.2545 14.1314 19.2628C14.1652 19.446 14.148 19.6125 14.0798 19.7625C14.0405 19.8488 13.9395 19.9733 13.777 20.1361C12.9964 20.9186 12.2148 21.7003 11.4323 22.4813C11.1267 22.786 10.9542 22.9533 10.9148 22.9833C10.713 23.1358 10.4853 23.2297 10.2319 23.265C9.99281 23.2988 9.76062 23.276 9.53531 23.1966C9.29625 23.1125 9.09734 22.9766 8.93859 22.7888C8.69828 22.505 8.57812 22.1838 8.57812 21.825C8.57812 21.5688 8.63937 21.3343 8.76188 21.1214C8.82594 21.0102 8.97953 20.8314 9.22266 20.5852C10.0927 19.7046 10.9669 18.828 11.8453 17.9555C12.055 17.7474 12.2997 17.6716 12.5794 17.7282C12.5932 17.7309 12.6075 17.7302 12.621 17.7262C12.6345 17.7222 12.6467 17.715 12.6567 17.7052L13.3477 17.0086C13.3543 17.002 13.3584 16.9933 13.3592 16.9839C13.3601 16.9745 13.3576 16.965 13.3523 16.9571C12.6886 15.9677 12.3541 14.8828 12.3488 13.7025C12.3488 13.6936 12.3452 13.685 12.3389 13.6787C12.3325 13.6723 12.324 13.6688 12.315 13.6688H6.50672C6.50173 13.6688 6.4968 13.6698 6.49219 13.6717C6.48758 13.6736 6.4834 13.6764 6.47987 13.6799C6.47635 13.6834 6.47355 13.6876 6.47164 13.6922C6.46973 13.6968 6.46875 13.7018 6.46875 13.7068C6.46875 13.9564 6.46875 14.198 6.46875 14.4314C6.46875 14.8393 6.46266 15.0805 6.45047 15.1552C6.40172 15.4543 6.26672 15.7044 6.04547 15.9057C5.87422 16.0613 5.67984 16.168 5.46234 16.2258C5.22984 16.2874 4.99984 16.2818 4.77234 16.2089C4.31203 16.0614 4.01687 15.771 3.88687 15.3375C3.84281 15.19 3.82078 14.9505 3.82078 14.6189C3.82109 14.3071 3.82 13.9952 3.8175 13.6833C3.81754 13.6769 3.81521 13.6708 3.81097 13.666C3.80673 13.6613 3.80087 13.6582 3.79453 13.6575C2.49547 13.5213 1.47656 12.9311 0.737813 11.8871C0.714687 11.8543 0.703125 11.8578 0.703125 11.8978C0.703125 14.035 0.703125 16.1683 0.703125 18.2977C0.703125 18.8096 0.712969 19.1216 0.732656 19.2338C0.807031 19.6572 1.01406 20.0063 1.35375 20.281C1.51531 20.4116 1.68656 20.5082 1.8675 20.5707C2.05687 20.6363 2.25469 20.6686 2.46094 20.6677C4.12063 20.6602 5.78016 20.6627 7.43953 20.6752C7.57172 20.6764 7.66953 20.6982 7.73297 20.7403C7.85078 20.8185 7.89422 20.9378 7.86328 21.0985C7.84141 21.2125 7.78047 21.2911 7.68047 21.3343C7.62797 21.3568 7.53719 21.368 7.40812 21.368C5.87219 21.368 4.33625 21.368 2.80031 21.368C2.36656 21.368 2.05594 21.3461 1.86844 21.3024C1.51469 21.2199 1.1975 21.065 0.916875 20.8378C0.356875 20.3844 0.05125 19.7828 0 19.0332V7.98238C0.0559375 7.22675 0.369375 6.62316 0.940313 6.1716C1.20375 5.96347 1.50313 5.81691 1.83844 5.73191C2.01219 5.68754 2.2575 5.6641 2.57437 5.6616C3.92906 5.65066 5.29328 5.64785 6.66703 5.65316C6.67329 5.65322 6.67949 5.65204 6.68529 5.64969C6.69109 5.64734 6.69637 5.64386 6.70081 5.63946C6.70526 5.63506 6.70879 5.62982 6.7112 5.62404C6.7136 5.61827 6.71484 5.61207 6.71484 5.60582C6.71484 5.313 6.71484 5.01832 6.71484 4.72175C6.71484 4.35082 6.7325 4.08238 6.76781 3.91644C6.82688 3.638 6.93125 3.38582 7.08094 3.15988C7.5675 2.42613 8.26969 2.05769 9.1875 2.05457C10.4166 2.05019 11.6455 2.05316 12.8742 2.06347C13.2105 2.0666 13.4694 2.0905 13.6509 2.13519C14.3294 2.30332 14.8406 2.70738 15.1847 3.34738C15.3341 3.6255 15.4209 3.93707 15.4453 4.28207C15.4572 4.44988 15.462 4.898 15.4598 5.62644C15.4598 5.63278 15.4623 5.63886 15.4666 5.64335C15.4709 5.64783 15.4767 5.65035 15.4828 5.65035C17.4356 5.65566 18.6262 5.6566 19.0547 5.65316C19.2728 5.65129 19.4752 5.65254 19.6617 5.65691C19.9086 5.66285 20.1098 5.68347 20.2655 5.71879C20.7642 5.83222 21.1839 6.07691 21.5245 6.45285C21.9777 6.95316 22.1895 7.55769 22.1602 8.26644C22.1495 8.51925 22.1531 8.90597 22.1709 9.4266C22.1715 9.44163 22.1779 9.4559 22.1887 9.46644C23.3234 10.5746 23.9272 11.9294 24 13.531ZM14.7398 5.61941C14.7533 5.32316 14.7583 5.03379 14.7548 4.75129C14.7498 4.36472 14.7169 4.07863 14.6559 3.893C14.5366 3.52863 14.3066 3.23738 13.9659 3.01925C13.8266 2.93019 13.6716 2.86316 13.5009 2.81816C13.3806 2.7866 13.2144 2.76957 13.0022 2.76707C11.7253 2.75207 10.4483 2.75207 9.17109 2.76707C8.94703 2.76957 8.77219 2.788 8.64656 2.82238C8.46688 2.87113 8.30437 2.94457 8.15906 3.04269C7.81125 3.27832 7.58437 3.59144 7.47844 3.98207C7.43906 4.12738 7.41953 4.36082 7.41984 4.68238C7.42016 4.99394 7.41656 5.30613 7.40906 5.61894C7.40894 5.62339 7.40972 5.62782 7.41136 5.63196C7.413 5.63611 7.41546 5.63989 7.41861 5.64308C7.42176 5.64627 7.42552 5.64881 7.42968 5.65054C7.43383 5.65227 7.4383 5.65316 7.44281 5.65316H8.12484C8.13628 5.65316 8.14725 5.64862 8.15534 5.64053C8.16343 5.63244 8.16797 5.62147 8.16797 5.61004C8.16797 5.3716 8.16797 5.13379 8.16797 4.8966C8.16797 4.50347 8.17844 4.26691 8.19938 4.18691C8.24813 4.00222 8.34891 3.84847 8.50172 3.72566C8.61422 3.63535 8.74656 3.5755 8.89875 3.54613C9.02531 3.52175 9.17234 3.50925 9.33984 3.50863C10.5542 3.50332 11.7688 3.50644 12.9834 3.518C13.1706 3.51988 13.3166 3.54207 13.4213 3.58457C13.6544 3.67863 13.8203 3.84019 13.9191 4.06925C13.9678 4.18207 13.9945 4.34347 13.9992 4.55347C14.0073 4.90316 14.0077 5.25988 14.0002 5.62363C14.0001 5.62749 14.0008 5.63131 14.0022 5.6349C14.0037 5.63848 14.0058 5.64174 14.0085 5.64448C14.0112 5.64723 14.0144 5.64941 14.018 5.6509C14.0215 5.65239 14.0254 5.65316 14.0292 5.65316H14.7047C14.7138 5.65317 14.7225 5.64966 14.7291 5.64337C14.7356 5.63707 14.7395 5.62849 14.7398 5.61941ZM13.1981 4.25582C13.1281 4.21832 13.0442 4.20175 12.9464 4.20613C12.8592 4.20957 12.8141 4.21129 12.8109 4.21129C11.5797 4.20597 10.3483 4.20972 9.11672 4.22254C9.03547 4.22347 8.97766 4.23941 8.94328 4.27035C8.89516 4.31347 8.87109 4.37597 8.87109 4.45785C8.87109 4.8291 8.87109 5.22222 8.87109 5.63722C8.87109 5.63932 8.87151 5.64139 8.87231 5.64332C8.87311 5.64526 8.87428 5.64701 8.87576 5.64849C8.87724 5.64997 8.879 5.65115 8.88093 5.65195C8.88287 5.65275 8.88494 5.65316 8.88703 5.65316H13.2628C13.2729 5.65316 13.2825 5.64916 13.2897 5.64204C13.2968 5.63492 13.3008 5.62526 13.3008 5.61519C13.3008 5.21082 13.3011 4.82504 13.3017 4.45785C13.3017 4.36004 13.2672 4.29269 13.1981 4.25582ZM2.21578 12.3652C2.67047 12.6827 3.18391 12.8763 3.75609 12.946C3.76476 12.947 3.77355 12.9461 3.78184 12.9434C3.79013 12.9406 3.79773 12.9361 3.80408 12.93C3.81043 12.924 3.81539 12.9166 3.8186 12.9084C3.82181 12.9003 3.82319 12.8915 3.82266 12.8827C3.79641 12.4793 3.89312 12.1371 4.11281 11.8561C4.23469 11.7005 4.38438 11.5774 4.56187 11.4868C4.74906 11.3908 4.94328 11.3447 5.14453 11.3485C5.57578 11.3563 5.91875 11.5207 6.17344 11.8416C6.29219 11.9913 6.37516 12.1569 6.42234 12.3385C6.46922 12.5182 6.48406 12.7072 6.46688 12.9057C6.46622 12.9133 6.46717 12.921 6.46966 12.9283C6.47215 12.9355 6.47612 12.9422 6.48132 12.9478C6.48652 12.9535 6.49284 12.958 6.49988 12.9611C6.50691 12.9641 6.51451 12.9657 6.52219 12.9657H12.3483C12.3604 12.9657 12.3721 12.9613 12.3812 12.9534C12.3903 12.9455 12.3963 12.9345 12.398 12.9225C12.5789 11.6325 13.1211 10.5249 14.0245 9.59957C14.763 8.84301 15.6505 8.32769 16.687 8.05363C16.9877 7.97426 17.2952 7.92035 17.6095 7.89191C18.9845 7.76785 20.2566 8.08754 21.4256 8.85097C21.4387 8.85972 21.4458 8.85644 21.4467 8.84113C21.452 8.73019 21.4555 8.50347 21.457 8.16097C21.4592 7.72285 21.3316 7.34238 21.0741 7.01957C20.7675 6.6355 20.3677 6.42019 19.8745 6.37363C19.7517 6.36207 19.5644 6.35629 19.3125 6.35629C13.8125 6.35629 8.3125 6.35394 2.8125 6.34925C2.58656 6.34894 2.40687 6.35519 2.27344 6.368C1.91156 6.40238 1.58641 6.54207 1.29797 6.78707C0.896094 7.128 0.696719 7.58597 0.699844 8.16097C0.702031 8.58285 0.702812 9.00472 0.702187 9.4266C0.700625 10.68 1.20516 11.6596 2.21578 12.3652ZM23.2941 13.6875C23.2941 12.3293 22.7545 11.0268 21.7941 10.0664C20.8337 9.10598 19.5312 8.56644 18.173 8.56644C16.8148 8.56644 15.5122 9.10598 14.5518 10.0664C13.5914 11.0268 13.0519 12.3293 13.0519 13.6875C13.0519 15.0457 13.5914 16.3483 14.5518 17.3087C15.5122 18.2691 16.8148 18.8086 18.173 18.8086C19.5312 18.8086 20.8337 18.2691 21.7941 17.3087C22.7545 16.3483 23.2941 15.0457 23.2941 13.6875ZM5.50969 12.1786C5.39906 12.098 5.28 12.0569 5.1525 12.0553C5.03094 12.0538 4.91625 12.0883 4.80844 12.1589C4.68594 12.2393 4.60266 12.3493 4.55859 12.4889C4.53516 12.5633 4.52344 12.6947 4.52344 12.8832C4.52344 13.2022 4.52344 13.5175 4.52344 13.8291C4.52344 13.8363 4.5263 13.8432 4.5314 13.8483C4.5365 13.8534 4.54341 13.8563 4.55062 13.8563H5.74266C5.74567 13.8563 5.74866 13.8557 5.75145 13.8545C5.75423 13.8534 5.75676 13.8517 5.7589 13.8496C5.76103 13.8474 5.76272 13.8449 5.76388 13.8421C5.76503 13.8393 5.76562 13.8363 5.76562 13.8333C5.76562 13.4461 5.76281 13.0553 5.75719 12.661C5.75437 12.4575 5.67188 12.2968 5.50969 12.1786ZM4.79109 15.4397C4.91234 15.5253 5.04125 15.5647 5.17781 15.5578C5.30625 15.5513 5.42453 15.5055 5.53266 15.4205C5.70828 15.283 5.78844 15.0857 5.77313 14.8285C5.76813 14.7466 5.76562 14.6705 5.76562 14.6002C5.76562 14.5894 5.76133 14.579 5.75368 14.5714C5.74603 14.5637 5.73566 14.5594 5.72484 14.5594H4.55438C4.54658 14.5594 4.53909 14.5624 4.53349 14.5679C4.52789 14.5733 4.52462 14.5807 4.52437 14.5885C4.51937 14.7528 4.52297 14.9072 4.53516 15.0516C4.54766 15.1988 4.63297 15.3282 4.79109 15.4397ZM14.2954 18.0693C14.2992 18.0655 14.3014 18.0602 14.3014 18.0547C14.3014 18.0493 14.2992 18.044 14.2953 18.0402L13.8199 17.5663C13.8179 17.5644 13.8157 17.5629 13.8132 17.5619C13.8106 17.5609 13.808 17.5603 13.8053 17.5603C13.8025 17.5603 13.7999 17.5609 13.7974 17.5619C13.7949 17.563 13.7926 17.5645 13.7907 17.5664L13.209 18.1501C13.2051 18.154 13.203 18.1592 13.203 18.1647C13.203 18.1702 13.2052 18.1754 13.2091 18.1793L13.6845 18.6531C13.6864 18.655 13.6887 18.6565 13.6912 18.6576C13.6937 18.6586 13.6964 18.6591 13.6991 18.6591C13.7018 18.6591 13.7045 18.6586 13.707 18.6575C13.7095 18.6565 13.7118 18.655 13.7137 18.653L14.2954 18.0693ZM12.4683 18.4425C12.4607 18.435 12.4517 18.429 12.4418 18.425C12.4318 18.421 12.4211 18.419 12.4102 18.4192C12.3994 18.4194 12.3886 18.4217 12.3785 18.426C12.3685 18.4303 12.3593 18.4366 12.3516 18.4444L12.0164 18.7791C12.0074 18.7882 12.0024 18.8005 12.0024 18.8133C12.0024 18.8261 12.0074 18.8384 12.0164 18.8475L13.028 19.8586C13.0303 19.861 13.033 19.8629 13.0361 19.8643C13.0391 19.8656 13.0423 19.8664 13.0455 19.8664C13.0488 19.8665 13.052 19.866 13.0549 19.8648C13.0578 19.8636 13.0605 19.8618 13.0627 19.8596L13.4391 19.478C13.4475 19.4693 13.4521 19.4576 13.4519 19.4453C13.4516 19.433 13.4465 19.4212 13.4377 19.4124L12.4683 18.4425ZM9.58547 22.4218C9.81828 22.5905 10.0598 22.6243 10.3102 22.523C10.3792 22.4952 10.452 22.4496 10.5286 22.3861C10.5955 22.3305 10.6597 22.2718 10.7213 22.2099C11.3197 21.6096 11.9228 21.0055 12.5306 20.3977C12.5333 20.3951 12.5354 20.3921 12.5368 20.3887C12.5383 20.3853 12.539 20.3816 12.539 20.3779C12.539 20.3742 12.5383 20.3705 12.5368 20.3671C12.5354 20.3636 12.5333 20.3605 12.5306 20.3578L11.5195 19.3468C11.5149 19.3421 11.5094 19.3385 11.5034 19.336C11.4974 19.3335 11.4909 19.3322 11.4844 19.3322C11.4778 19.3322 11.4714 19.3335 11.4653 19.336C11.4593 19.3385 11.4538 19.3421 11.4492 19.3468C10.8027 19.993 10.1611 20.6307 9.52453 21.2597C9.35734 21.425 9.27625 21.6213 9.28125 21.8485C9.28656 22.0875 9.38797 22.2786 9.58547 22.4218Z" fill="black"/>
<path d="M14.9152 16.3608C14.1683 15.4621 13.8567 14.4124 13.9805 13.2118C14.0745 12.2983 14.4505 11.4907 15.1083 10.7888C15.7983 10.0529 16.6464 9.62317 17.6527 9.49973C17.9608 9.46192 18.2725 9.45926 18.5878 9.49176C19.8388 9.61989 20.843 10.1988 21.6005 11.2285C21.9074 11.6454 22.1285 12.119 22.2638 12.6493C22.2953 12.7736 22.3042 12.8704 22.2905 12.9394C22.2667 13.0569 22.1977 13.1372 22.0833 13.1804C22.0049 13.21 21.9285 13.215 21.8541 13.1954C21.7691 13.1729 21.7041 13.1227 21.6591 13.0449C21.6231 12.9824 21.5888 12.8894 21.556 12.766C21.3753 12.0879 21.0219 11.5182 20.4956 11.0569C19.8847 10.5213 19.1856 10.2285 18.3985 10.1785C18.0863 10.1585 17.7755 10.1799 17.4661 10.2427C16.6767 10.4033 16.0158 10.7963 15.4833 11.4216C15.1852 11.7719 14.9656 12.1674 14.8247 12.608C14.731 12.9005 14.6764 13.2072 14.6611 13.5282C14.6214 14.3563 14.8467 15.1033 15.337 15.7693C15.8658 16.488 16.5639 16.9397 17.4314 17.1244C17.742 17.1907 18.0525 17.2158 18.3628 17.1999C19.0953 17.1624 19.7527 16.916 20.3349 16.4607C20.9624 15.97 21.3797 15.3319 21.5869 14.5463C21.621 14.4175 21.6567 14.3305 21.6942 14.2852C21.7664 14.198 21.8611 14.1596 21.9783 14.1699C22.0783 14.1786 22.1577 14.2163 22.2164 14.2829C22.2608 14.3332 22.288 14.3933 22.298 14.4633C22.3045 14.5108 22.2985 14.5741 22.2797 14.6532C22.1316 15.2838 21.8564 15.8454 21.4542 16.3379C20.8424 17.0866 20.075 17.5707 19.1522 17.79C18.8503 17.8619 18.5406 17.8993 18.2231 17.9021C17.2338 17.9111 16.3547 17.6149 15.586 17.0133C15.3406 16.8211 15.117 16.6036 14.9152 16.3608Z" fill="black"/>
</svg>
