<svg width="20" height="20" viewBox="0 0 20 20" fill="none" xmlns="http://www.w3.org/2000/svg">
<g clip-path="url(#clip0_2_1171)">
<path d="M2.0043 0H12.1605C12.8077 0.0476563 13.319 0.305339 13.6945 0.773047C13.8633 0.983203 13.9852 1.21133 14.0602 1.45742C14.1333 1.69753 14.1699 1.96042 14.1699 2.24609C14.1699 3.8638 14.1699 5.48164 14.1699 7.09961C14.1699 7.23919 14.1257 7.34948 14.0371 7.43047C13.9559 7.50469 13.8538 7.54154 13.7309 7.54102C13.5618 7.53997 13.4423 7.45716 13.3723 7.29258C13.3496 7.23893 13.3367 7.17357 13.3336 7.09648C13.3313 7.03997 13.3301 6.97266 13.3301 6.89453C13.3301 5.45703 13.3301 4.01953 13.3301 2.58203C13.3301 2.18177 13.3253 1.95169 13.3156 1.8918C13.2768 1.64779 13.1747 1.43398 13.0094 1.25039C12.8852 1.11237 12.7393 1.00781 12.5719 0.936719C12.4031 0.865104 12.2229 0.829297 12.0312 0.829297C8.73047 0.829818 5.42969 0.830729 2.12891 0.832031C1.73464 0.832292 1.4082 0.977083 1.14961 1.26641C0.969922 1.46745 0.867969 1.70299 0.84375 1.97305C0.834635 2.07253 0.830078 2.22214 0.830078 2.42188C0.830078 6.56563 0.830078 10.7095 0.830078 14.8535C0.830078 15.0358 0.83125 15.1922 0.833594 15.3227C0.836719 15.5115 0.857161 15.6654 0.894922 15.7844C1.03294 16.2195 1.33138 16.5004 1.79023 16.627C1.84648 16.6426 1.91055 16.6534 1.98242 16.6594C2.06706 16.6664 2.13216 16.6699 2.17773 16.6699C3.95846 16.6699 5.73906 16.6699 7.51953 16.6699C7.63984 16.6699 7.73802 16.7107 7.81406 16.7922C7.88099 16.8641 7.91784 16.9547 7.92461 17.0641C7.93503 17.2336 7.86419 17.3603 7.71211 17.4441C7.65612 17.4749 7.58815 17.4921 7.5082 17.4957C7.44987 17.4986 7.37878 17.5 7.29492 17.5C5.72253 17.5 4.15013 17.5 2.57773 17.5C2.16497 17.5 1.90508 17.4926 1.79805 17.4777C1.31237 17.4111 0.899349 17.1964 0.558984 16.8336C0.218359 16.4703 0.0320312 16.0243 0 15.4957V1.99961C0.0424479 1.37253 0.29388 0.866276 0.754297 0.480859C1.10247 0.189453 1.51914 0.0291667 2.0043 0Z" fill="white"/>
<path d="M7.08516 3.3313H2.91484C2.68789 3.3313 2.50391 3.51528 2.50391 3.74224V3.75786C2.50391 3.98482 2.68789 4.1688 2.91484 4.1688H7.08516C7.31211 4.1688 7.49609 3.98482 7.49609 3.75786V3.74224C7.49609 3.51528 7.31211 3.3313 7.08516 3.3313Z" fill="white"/>
<path d="M11.2504 6.66992H2.9129C2.68638 6.66992 2.50275 6.85356 2.50275 7.08008V7.08945C2.50275 7.31598 2.68638 7.49961 2.9129 7.49961H11.2504C11.4769 7.49961 11.6606 7.31598 11.6606 7.08945V7.08008C11.6606 6.85356 11.4769 6.66992 11.2504 6.66992Z" fill="white"/>
<path d="M20 14.4653V14.7192C19.9461 16.0885 19.4716 17.2603 18.5765 18.2348C17.5588 19.3432 16.2747 19.9316 14.7242 20.0001H14.441C13.2569 19.9514 12.2069 19.5771 11.291 18.8774C11.085 18.7201 10.8905 18.5476 10.7074 18.3598C9.91574 17.5486 9.42681 16.5874 9.24061 15.4762C9.05415 14.3632 9.20298 13.2958 9.6871 12.2739C9.79934 12.0369 9.92733 11.8103 10.0711 11.5942C10.632 10.7504 11.3733 10.1116 12.2949 9.67779C13.1626 9.2692 14.0871 9.10644 15.0683 9.18951C15.9996 9.26842 16.8544 9.57597 17.6328 10.1122C17.8443 10.258 18.0473 10.4208 18.2418 10.6004C19.3454 11.6205 19.9315 12.9088 20 14.4653ZM19.1633 14.5833C19.1633 13.3685 18.6807 12.2036 17.8218 11.3447C16.9629 10.4857 15.7979 10.0032 14.5832 10.0032C13.3685 10.0032 12.2035 10.4857 11.3446 11.3447C10.4857 12.2036 10.0031 13.3685 10.0031 14.5833C10.0031 15.798 10.4857 16.9629 11.3446 17.8219C12.2035 18.6808 13.3685 19.1633 14.5832 19.1633C15.7979 19.1633 16.9629 18.6808 17.8218 17.8219C18.6807 16.9629 19.1633 15.798 19.1633 14.5833Z" fill="white"/>
<path d="M7.92072 10.0007H2.91056C2.68533 10.0007 2.50275 10.1833 2.50275 10.4085V10.4218C2.50275 10.6471 2.68533 10.8296 2.91056 10.8296H7.92072C8.14594 10.8296 8.32853 10.6471 8.32853 10.4218V10.4085C8.32853 10.1833 8.14594 10.0007 7.92072 10.0007Z" fill="white"/>
<path d="M11.8531 14.9241C11.661 14.7809 11.6137 14.6051 11.7113 14.3968C11.7655 14.2814 11.8522 14.2099 11.9715 14.1823C12.0069 14.174 12.1121 14.1698 12.2871 14.1698C12.9017 14.1698 13.5164 14.1698 14.1313 14.1698C14.1415 14.1698 14.1514 14.1658 14.1586 14.1585C14.1659 14.1513 14.1699 14.1414 14.1699 14.1312C14.1699 13.4538 14.1699 12.7766 14.1699 12.0995C14.1699 11.9618 14.2195 11.852 14.3188 11.7702C14.4664 11.6486 14.6211 11.6322 14.7828 11.721C14.9339 11.8041 15.0086 11.94 15.007 12.1288C15.0011 12.8051 14.9995 13.4763 15.0024 14.1425C15.0024 14.1497 15.0053 14.1567 15.0105 14.1618C15.0157 14.167 15.0227 14.1698 15.0301 14.1698C15.677 14.1698 16.3132 14.1698 16.9387 14.1698C17.1033 14.1698 17.2203 14.1888 17.2899 14.2269C17.3818 14.2774 17.4438 14.355 17.4758 14.4597C17.5039 14.5519 17.4996 14.6442 17.4629 14.7366C17.409 14.8721 17.3117 14.9554 17.1711 14.9866C17.1318 14.9955 17.0123 14.9999 16.8125 14.9999C16.2263 14.9999 15.6332 14.9999 15.0332 14.9999C15.0244 14.9999 15.016 15.0034 15.0097 15.0096C15.0035 15.0159 15 15.0243 15 15.0331C15 15.7042 15.0005 16.38 15.0016 17.0605C15.0018 17.1722 14.9642 17.2688 14.8887 17.3503C14.74 17.511 14.5728 17.5438 14.3871 17.4487C14.241 17.374 14.1681 17.2446 14.1684 17.0605C14.1694 16.3834 14.1699 15.7054 14.1699 15.0265C14.1699 15.0194 14.1671 15.0127 14.1622 15.0077C14.1572 15.0027 14.1504 14.9999 14.1434 14.9999C13.5059 14.9999 12.8754 14.9999 12.252 14.9999C12.2491 14.9999 12.2128 15.0015 12.143 15.0046C12.0281 15.0096 11.9315 14.9827 11.8531 14.9241Z" fill="white"/>
</g>
<defs>
<clipPath id="clip0_2_1171">
<rect width="20" height="20" fill="white"/>
</clipPath>
</defs>
</svg>
