<svg width="20" height="20" viewBox="0 0 20 20" fill="none" xmlns="http://www.w3.org/2000/svg">
<path d="M20 10.7152V11.0082C19.9273 12.33 19.4241 13.451 18.4902 14.3711C18.4814 14.3799 18.4761 14.3916 18.4754 14.4039C18.4624 14.6599 18.4595 14.8683 18.4668 15.0293C18.5017 15.7933 18.2307 16.398 17.6539 16.8433C17.4289 17.0168 17.1746 17.1346 16.891 17.1968C16.7405 17.2297 16.4814 17.2461 16.1137 17.2461C14.7129 17.2461 13.3122 17.2461 11.9117 17.2461C11.799 17.2461 11.718 17.2334 11.6687 17.2082C11.5818 17.1631 11.5336 17.0871 11.5242 16.98C11.5193 16.9261 11.5275 16.8772 11.5488 16.8332C11.5723 16.7842 11.6061 16.7449 11.6504 16.7152C11.6947 16.6855 11.7579 16.6686 11.8402 16.6644C11.8957 16.6616 11.9626 16.6601 12.041 16.6601C13.3465 16.6601 14.6518 16.6601 15.957 16.6601C16.3781 16.6601 16.6379 16.65 16.7363 16.6297C17.0441 16.5661 17.3085 16.4071 17.5293 16.1527C17.7587 15.8876 17.8754 15.5782 17.8793 15.2246C17.8803 15.117 17.8809 15.0002 17.8809 14.8742C17.8809 14.8601 17.8749 14.857 17.8629 14.8648C16.966 15.4539 15.996 15.729 14.9527 15.6902C14.6876 15.6803 14.4293 15.6497 14.1777 15.5984C13.5543 15.4705 12.9669 15.225 12.4156 14.8617C12.4095 14.8576 12.4021 14.8558 12.3947 14.8566C12.3874 14.8573 12.3805 14.8607 12.3754 14.866L11.7883 15.4531C11.7832 15.458 11.7795 15.4641 11.7774 15.4709C11.7753 15.4776 11.7748 15.4848 11.7762 15.4918C11.8043 15.6444 11.79 15.7832 11.7332 15.9082C11.7004 15.98 11.6163 16.0838 11.4809 16.2195C10.8303 16.8716 10.179 17.523 9.52695 18.1738C9.27227 18.4277 9.12852 18.5672 9.0957 18.5922C8.92747 18.7192 8.73776 18.7975 8.52656 18.8269C8.32734 18.855 8.13385 18.836 7.94609 18.7699C7.74687 18.6998 7.58112 18.5866 7.44883 18.43C7.24857 18.1936 7.14844 17.9259 7.14844 17.6269C7.14844 17.4134 7.19948 17.2179 7.30156 17.0406C7.35495 16.9479 7.48294 16.7989 7.68555 16.5937C8.41055 15.8599 9.13906 15.1294 9.87109 14.4023C10.0458 14.2289 10.2497 14.1657 10.4828 14.2129C10.4944 14.2151 10.5063 14.2146 10.5175 14.2113C10.5287 14.2079 10.539 14.2019 10.5473 14.1937L11.123 13.6133C11.1286 13.6078 11.132 13.6005 11.1327 13.5926C11.1334 13.5848 11.1314 13.5769 11.127 13.5703C10.5738 12.7458 10.2951 11.8418 10.2906 10.8582C10.2906 10.8507 10.2877 10.8436 10.2824 10.8383C10.2771 10.833 10.27 10.83 10.2625 10.83H5.42227C5.41811 10.83 5.414 10.8309 5.41016 10.8325C5.40632 10.834 5.40283 10.8364 5.39989 10.8393C5.39695 10.8423 5.39462 10.8457 5.39303 10.8496C5.39144 10.8534 5.39062 10.8575 5.39062 10.8617C5.39062 11.0698 5.39062 11.2711 5.39062 11.4656C5.39062 11.8054 5.38555 12.0065 5.37539 12.0687C5.33477 12.3179 5.22227 12.5264 5.03789 12.6941C4.89518 12.8238 4.7332 12.9127 4.55195 12.9609C4.3582 13.0122 4.16654 13.0075 3.97695 12.9468C3.59336 12.8239 3.3474 12.5819 3.23906 12.2207C3.20234 12.0978 3.18398 11.8981 3.18398 11.6218C3.18424 11.3619 3.18333 11.1021 3.18125 10.8422C3.18128 10.8368 3.17934 10.8317 3.17581 10.8277C3.17227 10.8238 3.16739 10.8213 3.16211 10.8207C2.07956 10.7071 1.23047 10.2153 0.614844 9.34528C0.595573 9.31794 0.585938 9.32093 0.585938 9.35427C0.585938 11.1353 0.585938 12.913 0.585938 14.6875C0.585938 15.114 0.594141 15.3741 0.610547 15.4675C0.672526 15.8204 0.845052 16.1113 1.12812 16.3402C1.26276 16.4491 1.40547 16.5295 1.55625 16.5816C1.71406 16.6363 1.87891 16.6632 2.05078 16.6625C3.43385 16.6562 4.8168 16.6583 6.19961 16.6687C6.30977 16.6698 6.39128 16.6879 6.44414 16.723C6.54232 16.7881 6.57852 16.8876 6.55273 17.0215C6.53451 17.1165 6.48372 17.182 6.40039 17.2179C6.35664 17.2367 6.28099 17.2461 6.17344 17.2461C4.89349 17.2461 3.61354 17.2461 2.33359 17.2461C1.97214 17.2461 1.71328 17.2278 1.55703 17.1914C1.26224 17.1226 0.997917 16.9936 0.764062 16.8043C0.297396 16.4264 0.0427083 15.9251 0 15.3004V6.09137C0.0466146 5.46169 0.307812 4.95869 0.783594 4.58239C1.00312 4.40895 1.2526 4.28682 1.53203 4.21598C1.67682 4.17901 1.88125 4.15947 2.14531 4.15739C3.27422 4.14828 4.41107 4.14593 5.55586 4.15036C5.56107 4.15041 5.56625 4.14943 5.57108 4.14747C5.57591 4.14551 5.5803 4.14261 5.58401 4.13894C5.58772 4.13527 5.59066 4.13091 5.59266 4.1261C5.59467 4.12128 5.5957 4.11612 5.5957 4.11091C5.5957 3.8669 5.5957 3.62132 5.5957 3.37419C5.5957 3.06507 5.61042 2.84137 5.63984 2.70309C5.68906 2.47106 5.77604 2.26091 5.90078 2.07263C6.30625 1.46117 6.89141 1.15414 7.65625 1.15153C8.68047 1.14789 9.70456 1.15036 10.7285 1.15895C11.0087 1.16156 11.2245 1.18148 11.3758 1.21872C11.9411 1.35882 12.3672 1.69554 12.6539 2.22888C12.7784 2.46065 12.8508 2.72028 12.8711 3.00778C12.881 3.14763 12.885 3.52106 12.8832 4.12809C12.8832 4.13338 12.8852 4.13844 12.8888 4.14218C12.8924 4.14592 12.8973 4.14802 12.9023 4.14802C14.5297 4.15244 15.5219 4.15322 15.8789 4.15036C16.0607 4.1488 16.2293 4.14984 16.3848 4.15348C16.5905 4.15843 16.7582 4.17562 16.8879 4.20505C17.3035 4.29958 17.6533 4.50348 17.9371 4.81677C18.3147 5.23369 18.4913 5.73747 18.4668 6.32809C18.4579 6.53877 18.4609 6.86104 18.4758 7.29489C18.4763 7.30742 18.4816 7.31931 18.4906 7.32809C19.4362 8.25153 19.9393 9.38057 20 10.7152ZM12.2832 4.12223C12.2944 3.87536 12.2986 3.63421 12.2957 3.3988C12.2915 3.07666 12.2641 2.83825 12.2133 2.68356C12.1138 2.37992 11.9221 2.13721 11.6383 1.95544C11.5221 1.88122 11.393 1.82536 11.2508 1.78786C11.1505 1.76156 11.012 1.74736 10.8352 1.74528C9.77109 1.73278 8.7069 1.73278 7.64258 1.74528C7.45586 1.74736 7.31016 1.76273 7.20547 1.79138C7.05573 1.832 6.92031 1.8932 6.79922 1.97497C6.50938 2.17132 6.32031 2.43226 6.23203 2.75778C6.19922 2.87888 6.18294 3.07341 6.1832 3.34138C6.18346 3.60101 6.18047 3.86117 6.17422 4.12184C6.17411 4.12555 6.17476 4.12924 6.17613 4.13269C6.1775 4.13615 6.17955 4.1393 6.18218 4.14196C6.1848 4.14462 6.18793 4.14673 6.1914 4.14817C6.19486 4.14962 6.19858 4.15036 6.20234 4.15036H6.7707C6.78023 4.15036 6.78938 4.14657 6.79611 4.13983C6.80285 4.13309 6.80664 4.12395 6.80664 4.11442C6.80664 3.91572 6.80664 3.71755 6.80664 3.51989C6.80664 3.19229 6.81536 2.99515 6.83281 2.92848C6.87344 2.77458 6.95742 2.64645 7.08477 2.54411C7.17852 2.46885 7.2888 2.41898 7.41562 2.3945C7.52109 2.37419 7.64362 2.36377 7.7832 2.36325C8.79518 2.35882 9.80729 2.36143 10.8195 2.37106C10.9755 2.37263 11.0971 2.39111 11.1844 2.42653C11.3786 2.50492 11.5169 2.63955 11.5992 2.83044C11.6398 2.92445 11.6621 3.05895 11.666 3.23395C11.6728 3.52536 11.673 3.82263 11.6668 4.12575C11.6667 4.12896 11.6673 4.13215 11.6685 4.13514C11.6697 4.13812 11.6715 4.14084 11.6738 4.14313C11.676 4.14542 11.6787 4.14724 11.6817 4.14848C11.6846 4.14972 11.6878 4.15036 11.691 4.15036H12.2539C12.2615 4.15037 12.2688 4.14744 12.2742 4.1422C12.2797 4.13695 12.2829 4.1298 12.2832 4.12223ZM10.9984 2.98591C10.9401 2.95466 10.8702 2.94085 10.7887 2.9445C10.716 2.94736 10.6784 2.9488 10.6758 2.9488C9.64974 2.94437 8.62357 2.94749 7.59727 2.95817C7.52956 2.95895 7.48138 2.97223 7.45273 2.99802C7.41263 3.03395 7.39258 3.08604 7.39258 3.15427C7.39258 3.46364 7.39258 3.79124 7.39258 4.13708C7.39258 4.13882 7.39292 4.14055 7.39359 4.14216C7.39426 4.14377 7.39523 4.14524 7.39647 4.14647C7.3977 4.1477 7.39917 4.14868 7.40078 4.14935C7.40239 4.15002 7.40412 4.15036 7.40586 4.15036H11.0523C11.0607 4.15036 11.0688 4.14703 11.0747 4.14109C11.0807 4.13516 11.084 4.12711 11.084 4.11872C11.084 3.78174 11.0842 3.46026 11.0848 3.15427C11.0848 3.07276 11.056 3.01664 10.9984 2.98591ZM1.84648 9.74372C2.22539 10.0083 2.65325 10.1696 3.13008 10.2277C3.1373 10.2286 3.14463 10.2278 3.15154 10.2256C3.15845 10.2233 3.16477 10.2195 3.17006 10.2144C3.17536 10.2094 3.17949 10.2033 3.18216 10.1964C3.18484 10.1896 3.18599 10.1823 3.18555 10.175C3.16367 9.83877 3.24427 9.55361 3.42734 9.3195C3.52891 9.18981 3.65365 9.08721 3.80156 9.01169C3.95755 8.93174 4.1194 8.89333 4.28711 8.89645C4.64648 8.90296 4.93229 9.03994 5.14453 9.30739C5.24349 9.43213 5.31263 9.57015 5.35195 9.72145C5.39102 9.87119 5.40339 10.0287 5.38906 10.1941C5.38852 10.2005 5.38931 10.2069 5.39138 10.213C5.39346 10.219 5.39677 10.2246 5.4011 10.2293C5.40544 10.234 5.4107 10.2377 5.41657 10.2403C5.42243 10.2428 5.42876 10.2441 5.43516 10.2441H10.2902C10.3003 10.2441 10.31 10.2405 10.3177 10.2339C10.3253 10.2273 10.3302 10.2181 10.3316 10.2082C10.4824 9.13317 10.9342 8.21013 11.6871 7.43903C12.3025 6.80856 13.0421 6.37914 13.9059 6.15075C14.1564 6.0846 14.4126 6.03968 14.6746 6.01598C15.8204 5.9126 16.8805 6.17901 17.8547 6.8152C17.8656 6.82249 17.8715 6.81976 17.8723 6.807C17.8767 6.71455 17.8796 6.52562 17.8809 6.2402C17.8827 5.8751 17.7763 5.55804 17.5617 5.28903C17.3062 4.96898 16.973 4.78955 16.5621 4.75075C16.4598 4.74111 16.3036 4.7363 16.0938 4.7363C11.5104 4.7363 6.92708 4.73434 2.34375 4.73044C2.15547 4.73018 2.00573 4.73539 1.89453 4.74606C1.59297 4.77471 1.32201 4.89111 1.08164 5.09528C0.746745 5.3794 0.580599 5.76104 0.583203 6.2402C0.585026 6.59177 0.585677 6.94333 0.585156 7.29489C0.583854 8.33942 1.0043 9.1557 1.84648 9.74372ZM19.4117 10.8457C19.4117 9.71384 18.9621 8.62837 18.1618 7.82804C17.3614 7.02771 16.276 6.57809 15.1441 6.57809C14.0123 6.57809 12.9268 7.02771 12.1265 7.82804C11.3262 8.62837 10.8766 9.71384 10.8766 10.8457C10.8766 11.9775 11.3262 13.063 12.1265 13.8633C12.9268 14.6636 14.0123 15.1132 15.1441 15.1132C16.276 15.1132 17.3614 14.6636 18.1618 13.8633C18.9621 13.063 19.4117 11.9775 19.4117 10.8457ZM4.59141 9.58825C4.49922 9.52106 4.4 9.48682 4.29375 9.48552C4.19245 9.48421 4.09688 9.51299 4.00703 9.57184C3.90495 9.63877 3.83555 9.73044 3.79883 9.84684C3.7793 9.90882 3.76953 10.0183 3.76953 10.1754C3.76953 10.4412 3.76953 10.704 3.76953 10.9636C3.76953 10.9697 3.77192 10.9754 3.77617 10.9797C3.78042 10.9839 3.78618 10.9863 3.79219 10.9863H4.78555C4.78806 10.9863 4.79055 10.9858 4.79287 10.9848C4.79519 10.9839 4.7973 10.9825 4.79908 10.9807C4.80086 10.9789 4.80227 10.9768 4.80323 10.9745C4.80419 10.9722 4.80469 10.9697 4.80469 10.9672C4.80469 10.6445 4.80234 10.3188 4.79766 9.9902C4.79531 9.82067 4.72656 9.68669 4.59141 9.58825ZM3.99258 12.3058C4.09362 12.3772 4.20104 12.41 4.31484 12.4043C4.42188 12.3988 4.52044 12.3606 4.61055 12.2898C4.7569 12.1752 4.8237 12.0108 4.81094 11.7965C4.80677 11.7282 4.80469 11.6648 4.80469 11.6062C4.80469 11.5972 4.80111 11.5886 4.79473 11.5822C4.78836 11.5758 4.77972 11.5722 4.7707 11.5722H3.79531C3.78882 11.5722 3.78257 11.5748 3.77791 11.5793C3.77324 11.5838 3.77052 11.59 3.77031 11.5965C3.76615 11.7334 3.76914 11.8621 3.7793 11.9824C3.78971 12.105 3.86081 12.2129 3.99258 12.3058ZM11.9128 14.4972C11.916 14.4939 11.9178 14.4896 11.9178 14.485C11.9178 14.4804 11.916 14.4761 11.9128 14.4729L11.5165 14.078C11.5149 14.0764 11.513 14.0752 11.511 14.0743C11.5089 14.0734 11.5066 14.073 11.5044 14.073C11.5021 14.073 11.4999 14.0735 11.4978 14.0743C11.4957 14.0752 11.4938 14.0765 11.4922 14.0781L11.0075 14.5645C11.0043 14.5677 11.0025 14.5721 11.0025 14.5766C11.0025 14.5812 11.0043 14.5856 11.0075 14.5888L11.4038 14.9836C11.4054 14.9852 11.4073 14.9865 11.4094 14.9874C11.4114 14.9882 11.4137 14.9887 11.4159 14.9887C11.4182 14.9887 11.4204 14.9882 11.4225 14.9873C11.4246 14.9865 11.4265 14.9852 11.4281 14.9836L11.9128 14.4972ZM10.3902 14.8082C10.3839 14.8019 10.3764 14.7969 10.3681 14.7936C10.3598 14.7902 10.3509 14.7886 10.3419 14.7887C10.3328 14.7889 10.3238 14.7908 10.3155 14.7944C10.3071 14.798 10.2994 14.8032 10.293 14.8097L10.0137 15.0886C10.0062 15.0962 10.002 15.1065 10.002 15.1172C10.002 15.1278 10.0062 15.1381 10.0137 15.1457L10.8566 15.9882C10.8586 15.9902 10.8609 15.9918 10.8634 15.993C10.8659 15.9941 10.8686 15.9947 10.8713 15.9948C10.874 15.9948 10.8766 15.9944 10.8791 15.9934C10.8815 15.9924 10.8837 15.9909 10.8855 15.989L11.1992 15.6711C11.2063 15.6638 11.2101 15.6541 11.2099 15.6438C11.2097 15.6336 11.2054 15.6237 11.198 15.6164L10.3902 14.8082ZM7.98789 18.1242C8.1819 18.2648 8.3832 18.2929 8.5918 18.2086C8.64935 18.1854 8.71003 18.1474 8.77383 18.0945C8.82956 18.0481 8.88307 17.9992 8.93437 17.9476C9.43307 17.4474 9.93568 16.944 10.4422 16.4375C10.4444 16.4353 10.4462 16.4328 10.4473 16.43C10.4485 16.4271 10.4492 16.4241 10.4492 16.421C10.4492 16.4179 10.4485 16.4148 10.4473 16.412C10.4462 16.4091 10.4444 16.4065 10.4422 16.4043L9.59961 15.5617C9.59576 15.5578 9.5912 15.5548 9.58617 15.5527C9.58114 15.5506 9.57575 15.5495 9.57031 15.5495C9.56487 15.5495 9.55948 15.5506 9.55445 15.5527C9.54943 15.5548 9.54486 15.5578 9.54102 15.5617C9.00221 16.1002 8.46758 16.6316 7.93711 17.1558C7.79779 17.2936 7.73021 17.4571 7.73438 17.6465C7.7388 17.8457 7.82331 18.0049 7.98789 18.1242Z" fill="white"/>
<path d="M12.4293 13.0733C11.8069 12.3244 11.5473 11.4496 11.6504 10.4491C11.7288 9.6879 12.0421 9.01486 12.5902 8.42996C13.1652 7.81668 13.872 7.45861 14.7106 7.35574C14.9673 7.32423 15.2271 7.32202 15.4899 7.3491C16.5323 7.45587 17.3692 7.93829 18.0004 8.79637C18.2561 9.14376 18.4404 9.53842 18.5531 9.98035C18.5794 10.084 18.5869 10.1646 18.5754 10.2221C18.5556 10.3201 18.4981 10.387 18.4027 10.4229C18.3374 10.4477 18.2737 10.4518 18.2117 10.4354C18.1409 10.4167 18.0867 10.3749 18.0492 10.31C18.0193 10.258 17.9906 10.1805 17.9633 10.0776C17.8128 9.51251 17.5182 9.03777 17.0797 8.6534C16.5706 8.20704 15.988 7.96303 15.332 7.92137C15.0719 7.9047 14.8129 7.92254 14.5551 7.97488C13.8973 8.10874 13.3465 8.43621 12.9027 8.9573C12.6543 9.24923 12.4714 9.57879 12.3539 9.94597C12.2758 10.1897 12.2304 10.4453 12.2176 10.7128C12.1845 11.4029 12.3723 12.0254 12.7809 12.5803C13.2215 13.1793 13.8033 13.5557 14.5262 13.7096C14.785 13.7649 15.0438 13.7858 15.3024 13.7725C15.9128 13.7413 16.4606 13.5359 16.9457 13.1565C17.4686 12.7477 17.8164 12.2159 17.9891 11.5612C18.0175 11.4539 18.0473 11.3814 18.0785 11.3436C18.1387 11.271 18.2176 11.2389 18.3152 11.2475C18.3986 11.2548 18.4647 11.2862 18.5137 11.3417C18.5507 11.3836 18.5733 11.4337 18.5817 11.4921C18.5871 11.5317 18.582 11.5844 18.5664 11.6503C18.443 12.1758 18.2137 12.6438 17.8785 13.0542C17.3686 13.6781 16.7292 14.0815 15.9602 14.2643C15.7086 14.3242 15.4505 14.3553 15.186 14.3577C14.3615 14.3652 13.6289 14.1184 12.9883 13.6171C12.7839 13.4569 12.5975 13.2757 12.4293 13.0733Z" fill="white"/>
</svg>
