<svg width="20" height="20" viewBox="0 0 20 20" fill="none" xmlns="http://www.w3.org/2000/svg">
<path d="M9.84608 0H10.1586C11.6133 0.0739583 12.8282 0.617839 13.8035 1.63164C13.9871 1.82227 14.1532 2.02227 14.3019 2.23164C14.8569 3.01211 15.1742 3.88281 15.2539 4.84375C15.3341 5.81198 15.1551 6.73971 14.7168 7.62695C14.3243 8.42122 13.7555 9.07865 13.0101 9.59922C12.7958 9.74896 12.572 9.88125 12.3387 9.99609C11.3879 10.4641 10.3821 10.6322 9.32147 10.5004C9.06548 10.4684 8.81079 10.4154 8.55741 10.3414C7.21392 9.94844 6.18189 9.15352 5.46132 7.95664C4.98684 7.1681 4.7427 6.29987 4.72889 5.35195C4.72525 5.09362 4.74152 4.83385 4.77772 4.57266C4.9621 3.23932 5.56431 2.13581 6.58436 1.26211C7.50441 0.474349 8.59165 0.0536458 9.84608 0ZM14.0988 5.27305C14.0988 4.18597 13.667 3.14342 12.8983 2.37474C12.1296 1.60606 11.0871 1.17422 9.99999 1.17422C8.91291 1.17422 7.87036 1.60606 7.10168 2.37474C6.333 3.14342 5.90116 4.18597 5.90116 5.27305C5.90116 6.36012 6.333 7.40268 7.10168 8.17136C7.87036 8.94004 8.91291 9.37187 9.99999 9.37187C11.0871 9.37187 12.1296 8.94004 12.8983 8.17136C13.667 7.40268 14.0988 6.36012 14.0988 5.27305Z" fill="white"/>
<path d="M18.2594 20H1.73593C1.4388 19.9263 1.26705 19.7645 1.2207 19.5148C1.20742 19.444 1.21236 19.2329 1.23554 18.8816C1.32903 17.4761 1.77968 16.1916 2.58749 15.0281C3.23072 14.1018 4.03567 13.3477 5.00234 12.766C5.92734 12.2095 6.94596 11.8739 8.0582 11.7593C8.25403 11.7393 8.51393 11.7276 8.83788 11.7242C9.59622 11.7161 10.3547 11.7125 11.1133 11.7132C12.5529 11.7145 13.872 12.0802 15.0707 12.8101C15.9142 13.3237 16.6391 13.9829 17.2453 14.7878C17.4029 14.9967 17.5484 15.2126 17.682 15.4355C18.375 16.5915 18.7427 17.8505 18.7852 19.2125C18.7914 19.4166 18.772 19.5674 18.7269 19.6648C18.6434 19.8453 18.4875 19.957 18.2594 20ZM15.2875 14.4054C14.1133 13.4132 12.7349 12.9112 11.1523 12.8992C10.3937 12.8934 9.63528 12.8907 8.87695 12.891C7.74882 12.8915 6.70117 13.1595 5.73398 13.6949C5.50663 13.8209 5.28736 13.961 5.07617 14.1152C4.2358 14.7285 3.57617 15.505 3.09726 16.4449C2.71835 17.1884 2.49049 17.9707 2.41367 18.7918C2.41323 18.7964 2.41375 18.801 2.41521 18.8054C2.41666 18.8098 2.41901 18.8139 2.4221 18.8173C2.42519 18.8207 2.42896 18.8234 2.43315 18.8253C2.43735 18.8272 2.44189 18.8281 2.44648 18.8281H17.5582C17.5622 18.8281 17.5661 18.8273 17.5698 18.8257C17.5734 18.824 17.5767 18.8217 17.5794 18.8187C17.5821 18.8157 17.5841 18.8122 17.5854 18.8084C17.5866 18.8045 17.5871 18.8005 17.5867 18.7964C17.4352 17.303 16.8572 16.0187 15.8527 14.9437C15.6741 14.7523 15.4857 14.5729 15.2875 14.4054Z" fill="white"/>
</svg>
