<svg width="20" height="20" viewBox="0 0 20 20" fill="none" xmlns="http://www.w3.org/2000/svg">
<path id='referral' d="M15.9105 0H16.0863C17.0999 0.0356771 17.9642 0.378255 18.6793 1.02773C19.523 1.7944 19.9633 2.77096 20 3.95742V4.00625C19.987 4.35807 19.9512 4.65026 19.8926 4.88281C19.6176 5.9763 19.0174 6.80729 18.0922 7.37578C17.8706 7.51198 17.6368 7.62526 17.391 7.71563C16.4632 8.05625 15.5363 8.05365 14.6105 7.70781C14.3605 7.61458 14.1272 7.50013 13.9105 7.36445C13.4387 7.0694 13.0432 6.69063 12.7242 6.22813C12.7183 6.21964 12.7094 6.21363 12.6993 6.21125C12.6892 6.20887 12.6786 6.21029 12.6695 6.21523L9.19883 8.06953C9.15586 8.09271 9.1431 8.12695 9.16055 8.17227C9.64466 9.42695 9.64076 10.6574 9.14883 11.8637C9.1449 11.8732 9.14465 11.8838 9.14811 11.8935C9.15158 11.9031 9.15851 11.9112 9.16758 11.916L12.6664 13.7863C12.677 13.7919 12.6891 13.7934 12.7007 13.7907C12.7122 13.788 12.7222 13.7811 12.7289 13.7715C13.1849 13.1108 13.7832 12.6292 14.5238 12.3266C15.4616 11.9437 16.4246 11.929 17.4129 12.2824C17.5444 12.3296 17.6328 12.4046 17.6781 12.5074C17.7393 12.646 17.7299 12.7716 17.65 12.8844C17.5995 12.9555 17.535 13.0057 17.4566 13.0352C17.3717 13.0669 17.2853 13.0676 17.1973 13.0371C16.202 12.6928 15.2773 12.7635 14.4234 13.2492C14.1909 13.3815 13.9822 13.5362 13.7973 13.7133C13.4259 14.0687 13.1565 14.4905 12.9891 14.9785C12.9044 15.2251 12.8513 15.4793 12.8297 15.741C12.7766 16.3861 12.9087 17.003 13.2262 17.5918C13.2382 17.6139 13.249 17.6134 13.2586 17.5902C13.4953 17.0082 13.9341 16.6267 14.575 16.4457C14.5796 16.4444 14.5838 16.4421 14.5874 16.4389C14.591 16.4358 14.5938 16.4319 14.5956 16.4275C14.5974 16.4231 14.5983 16.4183 14.598 16.4136C14.5978 16.4088 14.5964 16.4042 14.5941 16.4C14.4697 16.1721 14.399 15.9398 14.382 15.7031C14.3706 15.5388 14.3711 15.375 14.3836 15.2117C14.3979 15.0299 14.4288 14.8699 14.4762 14.7316C14.5905 14.3986 14.7911 14.1332 15.0781 13.9355C15.4432 13.684 15.8352 13.5918 16.2539 13.659C16.5156 13.7009 16.7543 13.7988 16.9699 13.9527C17.371 14.2392 17.5947 14.6535 17.641 15.1957C17.6595 15.4118 17.6546 15.6272 17.6262 15.8418C17.5996 16.0434 17.5346 16.2316 17.4312 16.4066C17.4291 16.4103 17.4279 16.4144 17.4276 16.4187C17.4274 16.4229 17.4281 16.4272 17.4298 16.4311C17.4315 16.435 17.434 16.4384 17.4372 16.4412C17.4405 16.4439 17.4443 16.4459 17.4484 16.4469C18.0576 16.6 18.4982 16.9792 18.7703 17.5844C18.7805 17.6068 18.7913 17.6072 18.8027 17.5855C19.2259 16.7874 19.3203 15.9665 19.0859 15.123C19.0789 15.0975 19.0538 15.0232 19.0105 14.9C18.9733 14.7938 18.9581 14.7164 18.9648 14.668C18.9878 14.5021 19.0652 14.3908 19.1973 14.334C19.2892 14.2944 19.3829 14.2893 19.4785 14.3187C19.584 14.351 19.6594 14.4194 19.7047 14.5238C19.8802 14.9301 19.9786 15.3891 20 15.9008V16.1156C19.9586 17.0953 19.6323 17.9336 19.0211 18.6305C18.2544 19.5039 17.2648 19.9604 16.0523 20H15.984C14.7642 19.9555 13.7715 19.4947 13.0059 18.6176C12.8301 18.4163 12.6792 18.2044 12.5531 17.982C12.1714 17.3086 12.0026 16.5719 12.0469 15.7719C12.0708 15.3396 12.1643 14.9201 12.3273 14.5133C12.3294 14.5083 12.3295 14.5027 12.3276 14.4976C12.3257 14.4924 12.322 14.4882 12.3172 14.4855L8.79609 12.6C8.78806 12.5956 8.77869 12.5944 8.7698 12.5966C8.76091 12.5987 8.75316 12.6041 8.74805 12.6117C8.09622 13.5737 7.22904 14.2212 6.14648 14.5543C5.89492 14.6316 5.64089 14.687 5.38437 14.7203C4.60885 14.8211 3.85651 14.7378 3.12734 14.4703C2.15234 14.1125 1.37109 13.494 0.783594 12.6148C0.288021 11.8729 0.0268229 11.0331 0 10.0953V9.8707C0.0304687 9.15534 0.209505 8.46602 0.537109 7.80273C0.602734 7.66992 0.695573 7.58854 0.815625 7.55859C0.925781 7.53125 1.03398 7.55299 1.14023 7.62383C1.31654 7.74154 1.3474 7.91914 1.23281 8.15664C0.635156 9.39596 0.64375 10.6379 1.25859 11.8824C1.26979 11.9053 1.2806 11.9051 1.29102 11.8816C1.63685 11.0882 2.23164 10.6068 3.07539 10.4375C3.08191 10.4362 3.088 10.4333 3.09313 10.4291C3.09826 10.4249 3.10226 10.4194 3.10477 10.4133C3.10729 10.4071 3.10824 10.4004 3.10754 10.3938C3.10685 10.3872 3.10452 10.3809 3.10078 10.3754C2.92839 10.1233 2.81927 9.83867 2.77344 9.52148C2.75104 9.36706 2.74323 9.16068 2.75 8.90234C2.75651 8.66016 2.78307 8.45677 2.82969 8.29219C2.99297 7.71536 3.34609 7.29258 3.88906 7.02383C4.38724 6.77721 4.8888 6.74323 5.39375 6.92187C5.64063 7.00911 5.8655 7.13737 6.06836 7.30664C6.47253 7.64388 6.7056 8.08268 6.76758 8.62305C6.78997 8.81758 6.79128 9.05169 6.77148 9.32539C6.75586 9.54492 6.72253 9.72969 6.67148 9.87969C6.61107 10.0581 6.52825 10.2286 6.42305 10.3914C6.42081 10.3949 6.41946 10.3989 6.41911 10.4031C6.41876 10.4072 6.41942 10.4114 6.42103 10.4152C6.42264 10.4191 6.42516 10.4225 6.42837 10.4251C6.43158 10.4278 6.43538 10.4296 6.43945 10.4305C6.62096 10.4693 6.7974 10.524 6.96875 10.5945C7.14896 10.6685 7.3099 10.757 7.45156 10.8602C7.80312 11.1164 8.06341 11.4543 8.23242 11.8738C8.24727 11.9108 8.26393 11.9116 8.28242 11.8762C8.44961 11.5538 8.57279 11.212 8.65195 10.8508C8.70664 10.6 8.73646 10.3421 8.74141 10.077C8.76016 9.06654 8.44479 8.18073 7.79531 7.41953C7.17656 6.69427 6.39336 6.24961 5.4457 6.08555C5.18242 6.04023 4.92331 6.02031 4.66836 6.02578C4.06029 6.03906 3.48047 6.18503 2.92891 6.46367C2.88568 6.48555 2.84089 6.50313 2.79453 6.51641C2.74714 6.53021 2.69987 6.53398 2.65273 6.52773C2.49336 6.50664 2.38815 6.42747 2.33711 6.29023C2.29857 6.18685 2.30013 6.08893 2.3418 5.99648C2.38398 5.90273 2.46029 5.82852 2.5707 5.77383C3.50456 5.31185 4.4694 5.1513 5.46523 5.29219C5.72331 5.32891 5.97643 5.38802 6.22461 5.46953C7.25898 5.80964 8.09883 6.44766 8.74414 7.38359C8.75069 7.39311 8.7605 7.39989 8.77167 7.40263C8.78284 7.40537 8.7946 7.40387 8.80469 7.39844L12.3055 5.52461C12.3133 5.52041 12.3193 5.51352 12.3224 5.50524C12.3255 5.49697 12.3255 5.48787 12.3223 5.47969C11.9551 4.52135 11.9402 3.56471 12.2777 2.60977C12.3285 2.46602 12.4104 2.36992 12.5234 2.32148C12.6326 2.27487 12.7449 2.28268 12.8605 2.34492C12.9936 2.4168 13.0568 2.53008 13.05 2.68477C13.0482 2.72643 13.0189 2.84232 12.9621 3.03242C12.703 3.90065 12.7908 4.74284 13.2254 5.55898C13.2379 5.58242 13.2491 5.5819 13.259 5.55742C13.5066 4.95352 13.9475 4.57292 14.5816 4.41563C14.5855 4.4147 14.5891 4.41289 14.5921 4.41033C14.5951 4.40778 14.5975 4.40455 14.5991 4.4009C14.6006 4.39726 14.6013 4.3933 14.6011 4.38935C14.6008 4.38539 14.5997 4.38155 14.5977 4.37813C14.5065 4.21901 14.4445 4.05169 14.4117 3.87617C14.3859 3.73737 14.3727 3.56172 14.3719 3.34922C14.3711 3.14219 14.3949 2.96003 14.4434 2.80273C14.6204 2.22799 14.9883 1.85365 15.5469 1.67969C15.8062 1.59896 16.0668 1.58529 16.3285 1.63867C16.5809 1.68997 16.8103 1.7957 17.0168 1.95586C17.2418 2.13034 17.4103 2.35182 17.5223 2.62031C17.5822 2.76406 17.6216 2.92995 17.6406 3.11797C17.6578 3.2888 17.6616 3.46055 17.652 3.6332C17.6374 3.88581 17.566 4.13151 17.4379 4.37031C17.4355 4.37482 17.4341 4.37981 17.4339 4.38492C17.4338 4.39003 17.4347 4.39511 17.4368 4.39978C17.4389 4.40445 17.442 4.40858 17.4459 4.41187C17.4498 4.41516 17.4544 4.41751 17.4594 4.41875C18.0849 4.57682 18.5208 4.95482 18.7672 5.55273C18.7786 5.58034 18.7915 5.58099 18.8059 5.55469C18.9309 5.32552 19.028 5.08685 19.0973 4.83867C19.1639 4.59987 19.2001 4.34661 19.2059 4.07891C19.2262 3.13229 18.9029 2.33607 18.2359 1.69023C18.0448 1.5056 17.8376 1.34883 17.6145 1.21992C16.9738 0.85013 16.2764 0.71901 15.5223 0.826562C15.4176 0.841406 15.2812 0.873568 15.1133 0.923047C15.0187 0.950911 14.924 0.977604 14.8289 1.00313C14.7312 1.02943 14.6492 1.03385 14.5828 1.01641C14.4411 0.979427 14.3521 0.891927 14.3156 0.753906C14.2878 0.648177 14.2979 0.551693 14.3461 0.464453C14.3964 0.373307 14.4784 0.307161 14.5922 0.266016C15.0307 0.107943 15.4702 0.0192708 15.9105 0ZM15.3676 2.6918C15.2496 2.82565 15.1824 3.0026 15.166 3.22266C15.1535 3.38958 15.157 3.54049 15.1766 3.67539C15.2 3.83503 15.2553 3.97214 15.3426 4.08672C15.4556 4.23568 15.6021 4.33542 15.782 4.38594C15.9477 4.43229 16.1158 4.42734 16.2863 4.37109C16.5535 4.28281 16.7328 4.10013 16.8242 3.82305C16.8526 3.73685 16.8691 3.62786 16.8738 3.49609C16.879 3.35156 16.8762 3.24089 16.8652 3.16406C16.8254 2.8862 16.7036 2.67878 16.5 2.5418C16.326 2.42461 16.1354 2.37526 15.9281 2.39375C15.7125 2.41302 15.5257 2.51237 15.3676 2.6918ZM14.148 5.56406C13.9803 5.78568 13.9038 6.05404 13.9184 6.36914C13.9188 6.38102 13.9219 6.39268 13.9273 6.40332C13.9327 6.41397 13.9403 6.42336 13.9496 6.43086C14.5574 6.9293 15.2423 7.18047 16.0043 7.18437C16.2707 7.18568 16.5286 7.15547 16.7781 7.09375C17.2474 6.97734 17.6751 6.76172 18.0613 6.44687C18.0975 6.41719 18.1155 6.37904 18.1152 6.33242C18.1126 5.76628 17.862 5.39049 17.3633 5.20508C17.2547 5.16471 17.0495 5.11081 16.7477 5.04336C16.7352 5.04058 16.7224 5.04181 16.7109 5.04687C16.2443 5.25365 15.7776 5.25378 15.3109 5.04727C15.2993 5.04195 15.2862 5.04058 15.2738 5.04336C15.1642 5.06888 15.0552 5.09661 14.9469 5.12656C14.7482 5.18125 14.634 5.21419 14.6043 5.22539C14.4184 5.29466 14.2663 5.40755 14.148 5.56406ZM5.57891 7.91719C5.36042 7.72526 5.11758 7.62109 4.85039 7.60469C4.59648 7.58932 4.35443 7.65013 4.12422 7.78711C3.81563 7.97044 3.62578 8.25378 3.55469 8.63711C3.54167 8.70716 3.53516 8.79583 3.53516 8.90312C3.53516 8.99219 3.53529 9.08112 3.53555 9.16992C3.53607 9.68789 3.7362 10.065 4.13594 10.3012C4.29818 10.397 4.46602 10.4551 4.63945 10.4754C4.82747 10.4973 5.00872 10.4747 5.1832 10.4078C5.64336 10.2313 5.91107 9.89023 5.98633 9.38477C6.01211 9.21159 6.01289 9.0082 5.98867 8.77461C5.96862 8.5806 5.93099 8.42513 5.87578 8.3082C5.80573 8.15977 5.70677 8.02943 5.57891 7.91719ZM1.95078 12.8156C2.775 13.6047 3.73958 13.9917 4.84453 13.9766C5.11016 13.9729 5.36836 13.9434 5.61914 13.8879C6.37409 13.7207 7.03138 13.3595 7.59102 12.8043C7.60005 12.7955 7.60536 12.7835 7.60586 12.7707C7.61784 12.3827 7.51497 12.054 7.29727 11.7848C7.07435 11.5087 6.79089 11.325 6.44687 11.2336C6.19974 11.1682 5.95625 11.1064 5.71641 11.048C5.69795 11.0435 5.67838 11.0454 5.66094 11.0535C5.05339 11.3298 4.45482 11.3297 3.86523 11.0531C3.85385 11.0478 3.84093 11.0464 3.82852 11.0492C3.50951 11.1203 3.2319 11.193 2.9957 11.2672C2.47409 11.4305 2.13503 11.7775 1.97852 12.3082C1.93945 12.4408 1.92148 12.5901 1.92461 12.7562C1.92486 12.7674 1.9273 12.7784 1.93179 12.7886C1.93628 12.7988 1.94273 12.808 1.95078 12.8156ZM15.4762 16.252C15.6475 16.3918 15.8333 16.4579 16.0336 16.4504C16.2221 16.4431 16.3949 16.3784 16.552 16.2563C16.779 16.0794 16.8854 15.8233 16.8711 15.4879C16.8685 15.4251 16.8668 15.3622 16.866 15.2992C16.8647 15.2177 16.8599 15.1552 16.8516 15.1117C16.8107 14.8958 16.7053 14.7243 16.5355 14.5973C16.3345 14.4465 16.1217 14.3897 15.8973 14.427C15.6863 14.4621 15.5109 14.5586 15.3711 14.7164C15.2289 14.8763 15.1564 15.0783 15.1535 15.3223C15.152 15.4671 15.1561 15.5875 15.166 15.6836C15.19 15.9133 15.2934 16.1027 15.4762 16.252ZM13.9422 18.4531C14.7422 19.1023 15.6482 19.3348 16.6602 19.1504C17.1784 19.0559 17.656 18.8201 18.093 18.443C18.0977 18.4389 18.1015 18.4339 18.1043 18.4283C18.107 18.4228 18.1086 18.4167 18.109 18.4105C18.1366 17.7699 17.8457 17.3656 17.2363 17.1977C17.0743 17.1529 16.9113 17.1118 16.7473 17.0746C16.7351 17.0718 16.7223 17.0731 16.7109 17.0781C16.2443 17.2833 15.7776 17.2835 15.3109 17.0785C15.2993 17.0732 15.2862 17.072 15.2738 17.075C15.1139 17.1141 14.9543 17.1547 14.7949 17.1969C14.2113 17.3516 13.9184 17.7516 13.916 18.3969C13.9159 18.4076 13.9182 18.4182 13.9227 18.428C13.9272 18.4377 13.9339 18.4463 13.9422 18.4531Z" fill="white"/>
</svg>
