<svg width="161" height="52" viewBox="0 0 161 52" fill="none" xmlns="http://www.w3.org/2000/svg">
<path d="M79.75 20.0387C78.7433 19.212 77.6466 19.032 76.46 19.4987" stroke="#834FF6" stroke-width="2"/>
<path d="M80.06 0C80.6467 0 81.23 0 81.81 0C85.2833 0.366667 88.6633 1.12667 91.95 2.28C93.5033 2.82667 94.3767 3.80667 94.57 5.22C94.6233 5.62 94.5633 6.81 94.39 8.79C93.61 17.47 89.58 24.6067 82.3 30.2C81.2267 31.0333 80.1267 31.07 79 30.31C71.3 25.13 67.0967 17.03 66.39 6.01C66.29 4.48333 66.9267 3.38 68.3 2.7C71.56 1.08667 75.48 0.186667 80.06 0ZM91.21 3.9C83.59 0.866667 76.0867 1.07667 68.7 4.53C68.42 4.67 68.24 4.94 68.23 5.25C67.89 15.1833 71.7133 23.04 79.7 28.82C80.11 29.12 80.67 29.12 81.09 28.83C88.53 23.63 92.5067 16.26 93.02 6.72C93.0867 5.34667 92.4833 4.40667 91.21 3.9Z" fill="white"/>
<path d="M76.76 15.1401C76.13 14.8801 75.77 14.2301 75.88 13.5601C76.3867 10.4734 77.8033 8.15009 80.13 6.59009C80.4233 6.39009 80.74 6.29675 81.08 6.31009C82.3 6.36342 82.35 6.77342 81.23 7.54009C80.95 7.73009 80.75 7.99009 80.66 8.28009C80.1 10.1201 79.77 12.0068 79.67 13.9401C79.59 15.4934 78.62 15.8934 76.76 15.1401Z" fill="#E1A3FF" fill-opacity="0.996"/>
<path d="M87.77 16.7891C86.6366 18.6091 85.9233 18.6991 85.63 17.0591C85.58 16.7891 85.75 16.5291 86.03 16.4291C86.77 16.1625 87.2333 15.6825 87.42 14.9891C87.49 14.7091 87.35 14.3991 87.07 14.2291C85.8433 13.5158 84.5267 13.0991 83.12 12.9791C82.12 12.8925 81.4433 12.7425 81.09 12.5291C80.1166 11.9491 80.15 11.1558 81.19 10.1491C81.42 9.92913 81.73 9.79913 82.06 9.80913C83.44 9.84247 84.67 10.2425 85.75 11.0091C86.85 11.7891 87.6167 12.5191 88.05 13.1991C88.71 14.2325 88.6166 15.4291 87.77 16.7891Z" fill="#FF9DAA"/>
<path d="M79.75 20.0396C78.7434 19.2129 77.6467 19.0329 76.46 19.4996C76.18 19.1196 75.4634 18.4329 74.31 17.4396C72.07 15.5063 71.9534 13.4963 73.96 11.4096C74.19 11.1696 74.5 11.0496 74.81 11.0896C76.11 11.2363 75.7567 11.9763 73.75 13.3096C73.23 13.6496 73.24 14.4196 73.76 14.7596C76.0934 16.2596 78.6767 16.8863 81.51 16.6396C84.4967 16.3729 85.1267 17.2263 83.4 19.1996C83.21 19.4096 82.92 19.5596 82.57 19.6096L79.75 20.0396Z" fill="#5460FF"/>
<path d="M79.75 20.0387C79.99 21.372 80.7066 21.892 81.9 21.5987C82.19 21.5287 82.45 21.5487 82.59 21.6487C82.83 21.8153 82.67 22.002 82.11 22.2087C79.4166 23.1953 77.5333 22.292 76.46 19.4987C77.6466 19.032 78.7433 19.212 79.75 20.0387Z" fill="#E1A3FF" fill-opacity="0.996"/>
<path d="M0.5 37.6896C0.5 37.023 0.5 36.3563 0.5 35.6896C2.48667 34.5763 3.47333 34.993 3.46 36.9396C3.46 37.2896 3.34 37.6096 3.12 37.8296C2.38 38.583 1.50667 38.5363 0.5 37.6896Z" fill="#FF9DAA"/>
<path d="M92.3 39.4187C93.8533 39.4187 94.31 40.1087 93.67 41.4887C93.55 41.7287 93.27 41.8887 92.94 41.8787C92.1733 41.8587 91.83 42.2387 91.91 43.0187C91.97 43.592 92 43.912 92 43.9787C92 45.392 92 46.8054 92 48.2187C92 48.272 92.0266 48.622 92.08 49.2687C92.1933 50.582 91.4033 51.0554 89.71 50.6887C89.29 50.5987 89 50.2287 89 49.7987L88.95 42.8087C88.95 42.5387 88.77 42.2687 88.47 42.1087C87.73 41.7087 87.52 41.0954 87.84 40.2687C87.93 40.0487 88.17 39.8087 88.51 39.6087C89.0766 39.2754 89.3566 38.7554 89.35 38.0487C89.35 37.6587 89.42 37.3287 89.55 37.1187C90.3233 35.8387 91.4933 35.2587 93.06 35.3787C93.38 35.3987 93.65 35.6087 93.74 35.8987C94.06 36.9187 93.7433 37.5954 92.79 37.9287C92.36 38.0787 92.05 38.2787 92 38.4387L91.81 38.9387C91.73 39.1787 91.98 39.4187 92.3 39.4187Z" fill="white"/>
<path d="M27.69 39.5213C29.83 40.0146 29.8066 40.9713 27.62 42.3913C27.39 42.5413 27.25 42.8013 27.25 43.0713C27.25 44.898 27.25 46.7413 27.25 48.6013C27.25 48.6613 27.27 48.9246 27.31 49.3913C27.4033 50.6313 26.6 51.058 24.9 50.6713C24.62 50.6113 24.42 50.3413 24.42 50.0413L24.46 43.0613C24.46 42.7813 24.31 42.4913 24.04 42.2613C23.0533 41.4346 23 40.548 23.88 39.6013C24.12 39.3513 24.27 39.0613 24.34 38.7713C24.6066 37.5913 25.2033 36.688 26.13 36.0613C26.75 35.6413 27.41 35.4746 28.11 35.5613C29.51 35.728 29.29 36.778 27.45 38.7113C27.0566 39.1246 27.1366 39.3946 27.69 39.5213Z" fill="white"/>
<path d="M118.81 48.1718L119.97 48.3718C120.25 48.4118 120.51 48.6618 120.65 49.0218C121.09 50.1418 120.627 50.7618 119.26 50.8818C117.32 51.0418 116.087 50.2285 115.56 48.4418C115.187 47.1552 115.16 45.8618 115.48 44.5618C115.833 43.1685 115.443 42.2118 114.31 41.6918C113.217 41.1852 113.177 40.6852 114.19 40.1918C115.183 39.6985 115.657 38.9018 115.61 37.8018C115.6 37.4718 115.75 37.1918 116 37.0818C116.82 36.7152 117.463 36.8552 117.93 37.5018C118.08 37.7118 118.14 38.0518 118.08 38.4318C117.927 39.4918 118.407 39.8952 119.52 39.6418C119.86 39.5618 120.19 39.6418 120.38 39.8418C121.033 40.5152 120.963 41.1452 120.17 41.7318C119.97 41.8818 119.64 41.9418 119.26 41.9018C118.333 41.7952 117.89 42.2452 117.93 43.2518C117.99 44.7318 118.1 46.2118 118.26 47.6918C118.28 47.9218 118.51 48.1218 118.81 48.1718Z" fill="white"/>
<path d="M11.37 43.7799L11.38 49.6999C11.38 50.0499 11.25 50.3499 11.03 50.4799C10.4233 50.8533 9.81665 50.8566 9.20999 50.4899C8.94999 50.3299 8.79999 50.0299 8.79999 49.6899V40.0599C8.79999 39.7899 9.03999 39.5699 9.31999 39.5899C10.08 39.6366 10.84 39.6766 11.6 39.7099C12.14 39.7299 12.89 39.6333 13.85 39.4199C15.65 39.0266 17.0533 39.4699 18.06 40.7499C18.6933 41.5566 19.01 42.8099 19.01 44.5099C19.0167 46.3166 18.9967 48.1266 18.95 49.9399C18.94 50.2599 18.77 50.5399 18.5 50.6699C17.7933 51.0166 17.29 51.0566 16.99 50.7899C16.09 49.9899 15.7333 48.9966 15.92 47.8099C16.5933 43.6033 15.75 41.5899 13.39 41.7699C12.0433 41.8699 11.37 42.5399 11.37 43.7799Z" fill="white"/>
<path d="M0.5 50.4399C0.5 46.9399 0.5 43.4399 0.5 39.9399C1.36667 39.3533 2.21 39.2966 3.03 39.7699C3.29 39.9199 3.45 40.2299 3.45 40.5599V49.9299C3.45 50.2499 3.26 50.5399 2.98 50.6399C2.15333 50.9399 1.32667 50.8733 0.5 50.4399Z" fill="white"/>
<path d="M41.54 40.0018C42.37 40.2318 42.94 40.9918 42.93 41.8518C42.89 45.3718 41.52 48.2085 38.82 50.3618C38.12 50.9118 37.13 50.9018 36.45 50.3218C33.9634 48.2152 32.64 45.3518 32.48 41.7318C32.44 40.9718 32.94 40.2818 33.67 40.0818C36.39 39.3285 39.0134 39.3018 41.54 40.0018ZM38.72 46.7918C41.5534 42.8118 40.5267 41.2352 35.64 42.0618C35.15 42.1418 34.84 42.6018 35 43.0018L36.48 46.7218C37.0267 48.0952 37.7734 48.1185 38.72 46.7918Z" fill="white"/>
<path d="M52.69 47.0602C51.7567 46.5869 50.7967 46.1869 49.81 45.8602C48.49 45.4336 47.6134 44.9469 47.18 44.4002C46.4 43.4202 46.3534 42.3802 47.04 41.2802C47.5134 40.5202 48.2534 39.9702 49.26 39.6302C51.8734 38.7569 53.8 39.5602 55.04 42.0402C55.18 42.3202 55.1 42.6602 54.86 42.8202C54.08 43.3269 53.19 43.1569 52.19 42.3102C50.7834 41.1236 49.8634 41.2536 49.43 42.7002C49.35 42.9802 49.49 43.2802 49.77 43.3902L53.84 45.0202C54.9534 45.4602 55.5067 46.2636 55.5 47.4302C55.4867 49.3902 54.5934 50.4936 52.82 50.7402C51.5667 50.9069 50.5267 50.8802 49.7 50.6602C48.7534 50.4069 47.8334 49.7902 46.94 48.8102C45.8 47.5769 46.2834 47.0702 48.39 47.2902C48.73 47.3302 49.05 47.4702 49.3 47.6902C50.3 48.5702 51.3867 48.7769 52.56 48.3102C53.5267 47.9302 53.57 47.5136 52.69 47.0602Z" fill="white"/>
<path d="M65.19 50.9994C64.6033 50.9994 64.02 50.9994 63.44 50.9994C59.92 49.746 58.5967 47.226 59.47 43.4394C59.7767 42.106 60.44 41.106 61.46 40.4394C62.2933 39.886 63.3733 39.616 64.7 39.6294C68.0733 39.6494 69.76 41.5194 69.76 45.2394C69.76 45.5294 69.54 45.7794 69.25 45.8294C67.49 46.096 65.72 46.1527 63.94 45.9994C62.02 45.8327 61.6933 46.5527 62.96 48.1594C63.49 48.8394 64.47 48.9694 65.17 48.4494C66.03 47.8094 67 47.406 68.08 47.2394C69.26 47.0527 69.5667 47.486 69 48.5394C68.2667 49.886 66.9967 50.706 65.19 50.9994ZM66.06 42.4394C64.54 41.046 63.4367 40.9827 62.75 42.2494C61.91 43.7894 62.33 44.4894 64.01 44.3494C64.5967 44.3027 65.09 44.2727 65.49 44.2594C67.1433 44.206 67.3333 43.5994 66.06 42.4394Z" fill="white"/>
<path d="M79.69 51.0016C79.1034 51.0016 78.52 51.0016 77.94 51.0016C75.0867 50.0616 73.6067 48.315 73.5 45.7616C73.4134 43.7416 74.0234 42.0883 75.33 40.8016C76.8434 39.315 78.88 39.0683 81.44 40.0616C82.6667 40.5416 83.4134 41.4383 83.68 42.7516C83.74 43.0416 83.56 43.3316 83.27 43.4116C82.0434 43.7383 81.03 43.4216 80.23 42.4616C80 42.1816 79.71 42.0116 79.43 41.9716C77.63 41.745 76.6334 42.6683 76.44 44.7416C76.2 47.3883 77.2234 48.5816 79.51 48.3216C79.78 48.2916 80.07 48.1416 80.33 47.8816C81.0234 47.175 81.8834 46.8183 82.91 46.8116C83.9634 46.805 84.2267 47.2583 83.7 48.1716C82.8 49.7183 81.4634 50.6616 79.69 51.0016Z" fill="white"/>
<path d="M105.46 50.2406C100.907 51.8139 98.6967 50.0673 98.83 45.0006C98.8634 43.5939 98.7967 42.1973 98.63 40.8106C98.59 40.4606 98.68 40.1406 98.88 39.9306C99.5067 39.2839 100.243 39.2139 101.09 39.7206C101.29 39.8406 101.44 40.1306 101.46 40.5006L101.95 47.2006C101.97 47.4906 102.17 47.7806 102.49 47.9506C103.617 48.5773 104.577 48.5639 105.37 47.9106C105.923 47.4639 106.207 46.7139 106.22 45.6606C106.233 44.2806 106.187 42.8973 106.08 41.5106C105.94 39.8373 106.797 39.1773 108.65 39.5306C109 39.5906 109.25 39.8906 109.25 40.2406L109.2 49.9406C109.2 50.2606 109.01 50.5306 108.74 50.6206C107.913 50.8939 107.12 50.8039 106.36 50.3506C106.07 50.1806 105.74 50.1406 105.46 50.2406Z" fill="white"/>
<path d="M129.52 48.1191C130.473 48.4391 131.387 48.3791 132.26 47.9391C132.53 47.7991 132.73 47.5291 132.81 47.2091C133.19 45.6357 133.337 43.6491 133.25 41.2491C133.177 39.2891 133.933 38.7991 135.52 39.7791C135.79 39.9491 135.95 40.2391 135.95 40.5591L136 49.5991C136 50.5491 134.97 51.1491 134.13 50.6791C133.437 50.2991 132.713 50.1957 131.96 50.3691C130.767 50.6557 130.103 50.7991 129.97 50.7991C126.95 50.7657 125.453 49.0824 125.48 45.7491C125.493 44.1691 125.5 42.3857 125.5 40.3991C125.5 40.0691 125.7 39.7691 126.01 39.6591C127.89 38.9391 128.663 39.6391 128.33 41.7591C128.023 43.7457 128.207 45.6524 128.88 47.4791C128.99 47.7891 129.23 48.0291 129.52 48.1191Z" fill="white"/>
<path d="M143.6 40.1191C143.84 40.4791 144.34 40.5591 144.67 40.2791C145.45 39.6191 146.103 39.4125 146.63 39.6591C147.103 39.8858 147.34 40.3691 147.34 41.1091C147.347 42.1758 146.81 42.6558 145.73 42.5491C144.41 42.4158 143.75 43.0125 143.75 44.3391C143.75 46.1125 143.82 47.6591 143.96 48.9791C144.127 50.5258 143.283 51.0925 141.43 50.6791C141.14 50.6091 140.93 50.3491 140.93 50.0491L141.06 40.5691C141.06 40.2291 141.2 39.9191 141.44 39.7491C142.3 39.1158 143.02 39.2391 143.6 40.1191Z" fill="white"/>
<path d="M160.5 44.0584C160.5 44.5584 160.5 45.0584 160.5 45.5584C158.233 46.1784 156.317 46.3251 154.75 45.9984C152.77 45.5851 152.123 46.1484 152.81 47.6884C153.57 49.3684 154.697 49.5351 156.19 48.1884C156.99 47.4618 158.077 47.1618 159.45 47.2884C160.123 47.3551 160.26 47.6584 159.86 48.1984C158.747 49.7184 157.357 50.6518 155.69 50.9984C155.023 50.9984 154.357 50.9984 153.69 50.9984C150.037 49.4384 148.807 46.6851 150 42.7384C150.52 41.0251 151.663 40.0084 153.43 39.6884C157.163 39.0018 159.52 40.4584 160.5 44.0584ZM157.02 42.8784C155.013 41.6251 153.56 41.6684 152.66 43.0084C152.35 43.4784 152.62 44.1084 153.18 44.1984C154.787 44.4518 156.047 44.3584 156.96 43.9184C157.607 43.6051 157.627 43.2584 157.02 42.8784Z" fill="white"/>
</svg>
