<svg width="40" height="40" viewBox="0 0 40 40" fill="none" xmlns="http://www.w3.org/2000/svg">
<g clip-path="url(#clip0_286_509)">
<path d="M4.94932 0H26.0827C28.2871 1.60889 30.2542 3.46578 31.984 5.57067C32 5.59022 32.1387 5.74844 32.4 6.04533C32.7875 6.48444 32.9822 6.89689 32.984 7.28267C33.0142 15.4107 32.9973 23.5173 32.9333 31.6027C32.9316 31.8147 32.8562 32.0193 32.72 32.1813C32.5031 32.4356 32.3333 32.4578 32.2107 32.248C32.1591 32.1609 32.1324 32.0347 32.1307 31.8693C32.0542 24.0933 31.9893 16.3173 31.936 8.54133C31.9342 8.25333 31.8951 8.03378 31.8187 7.88267C31.7067 7.65867 31.5404 7.49422 31.32 7.38933C31.1191 7.29333 30.8169 7.29422 30.4133 7.392C29.1351 7.70311 27.8684 7.63289 26.6133 7.18133C26.1831 7.02667 25.9511 6.72356 25.9173 6.272L25.6053 2.05867C25.5751 1.66756 25.3662 1.47111 24.9787 1.46933L6.39732 1.4C5.91554 1.39822 5.67288 1.63911 5.66932 2.12267C5.5911 13.1538 5.54577 24.072 5.53332 34.8773C5.53332 35.1956 5.58043 35.4444 5.67465 35.624C5.80443 35.8729 5.98665 36.0658 6.22132 36.2027C6.44532 36.3342 6.7991 36.3991 7.28265 36.3973C14.8169 36.36 22.3511 36.3387 29.8853 36.3333C29.9049 36.3333 30.0693 36.344 30.3787 36.3653C30.9813 36.408 31.3947 36.1351 31.6187 35.5467C31.7289 35.2551 31.8684 34.9787 32.0373 34.7173C32.2222 34.4329 32.4124 34.3618 32.608 34.504C32.7164 34.5822 32.8 34.72 32.8587 34.9173C32.9724 35.296 33.0373 35.6818 33.0533 36.0747C33.0711 36.4676 32.9627 36.7671 32.728 36.9733C32.4542 37.2133 32.1155 37.3236 31.712 37.304C31.3209 37.2862 31.1138 37.2773 31.0907 37.2773C23.7378 37.5493 16.3831 37.5982 9.02665 37.424C8.70843 37.4169 8.4951 37.4693 8.38665 37.5813C8.22132 37.7538 8.21332 38.0267 8.36265 38.4C8.50665 38.7556 8.76976 38.9333 9.15199 38.9333C17.0453 38.9582 24.9867 38.9804 32.976 39C33.2747 39 33.5058 38.9618 33.6693 38.8853C33.904 38.7733 34.0862 38.6107 34.216 38.3973C34.3387 38.1964 34.4009 37.8738 34.4027 37.4293C34.4613 26.6382 34.4987 15.8471 34.5147 5.056C34.5164 4.672 34.4613 4.38933 34.3493 4.208C34.1698 3.91289 33.8933 3.75644 33.52 3.73867C33.2267 3.72444 32.9369 3.68089 32.6507 3.608C32.2258 3.50133 32.0542 3.32178 32.136 3.06933C32.1911 2.90044 32.3253 2.768 32.5387 2.672C32.848 2.53333 33.2462 2.46489 33.7333 2.46667C34.3911 2.47022 34.88 2.65956 35.2 3.03467C35.4204 3.29067 35.5333 3.74133 35.5387 4.38667C35.5529 6.03467 35.5955 9.46133 35.6667 14.6667C35.7715 22.3609 35.5662 30.8053 35.0507 40H7.85065C7.17154 39.6267 6.83643 39.0551 6.84532 38.2853C6.84536 38.1887 6.82096 38.1023 6.77599 38.04C6.5431 37.7271 6.19554 37.536 5.73332 37.4667C5.12177 37.3742 4.70843 37.0862 4.49332 36.6027C4.3831 36.352 4.35377 35.9004 4.40532 35.248C4.4551 34.6276 4.47554 33.9004 4.46665 33.0667C4.34577 22.6436 4.50665 11.6213 4.94932 0ZM27.9413 2.952C27.568 2.62311 27.3218 2.70133 27.2027 3.18667C27.0853 3.672 27.0427 4.15733 27.0747 4.64267C27.1013 5.04267 27.1947 5.352 27.3547 5.57067C27.5644 5.85511 27.8667 6.02933 28.2613 6.09333C28.9155 6.20356 29.5627 6.17244 30.2027 6C30.2408 5.98967 30.2759 5.97029 30.3049 5.9435C30.3339 5.91671 30.356 5.88331 30.3694 5.84613C30.3827 5.80895 30.3869 5.7691 30.3816 5.72996C30.3762 5.69083 30.3615 5.65356 30.3387 5.62133C29.5991 4.59911 28.8 3.70933 27.9413 2.952Z" fill="black"/>
<path d="M18.672 11.2613C18.672 12.5669 18.1534 13.819 17.2302 14.7421C16.307 15.6653 15.0549 16.184 13.7493 16.184C12.4438 16.184 11.1917 15.6653 10.2685 14.7421C9.3453 13.819 8.82666 12.5669 8.82666 11.2613C8.82666 9.95572 9.3453 8.70362 10.2685 7.78044C11.1917 6.85726 12.4438 6.33862 13.7493 6.33862C15.0549 6.33862 16.307 6.85726 17.2302 7.78044C18.1534 8.70362 18.672 9.95572 18.672 11.2613ZM15.056 7.81862C14.208 7.48973 13.3227 7.50573 12.4 7.86662C10.8195 8.48529 10.0747 9.6444 10.1653 11.344C10.1671 11.36 10.1662 11.6195 10.1627 12.1226C10.1609 12.6204 10.3564 12.9742 10.7493 13.184C11.7627 13.7208 12.6195 13.5155 13.32 12.568C13.3395 12.5414 13.3536 12.5113 13.3614 12.4793C13.3691 12.4473 13.3705 12.4141 13.3652 12.3815C13.36 12.349 13.3484 12.3179 13.331 12.2899C13.3136 12.2619 13.2908 12.2377 13.264 12.2186C12.8444 11.9164 12.488 11.5768 12.1947 11.2C11.8693 10.7857 11.8009 10.4008 11.9893 10.0453C12.1209 9.79462 12.3858 9.58662 12.784 9.42129C13.1431 9.27196 13.5333 9.16529 13.9547 9.10129C14.3867 9.03373 14.7395 9.17062 15.0133 9.51196C15.8275 10.5271 15.6844 11.4097 14.584 12.16C14.5325 12.1953 14.4893 12.2413 14.4573 12.295C14.4253 12.3486 14.4053 12.4085 14.3987 12.4706C14.3921 12.5327 14.3991 12.5955 14.4191 12.6547C14.4391 12.7138 14.4717 12.7679 14.5147 12.8133C14.9307 13.2524 15.4729 13.496 16.1413 13.544C16.6178 13.5777 16.9431 13.3724 17.1173 12.928C17.6293 11.632 17.5733 10.4657 16.9493 9.42929C16.4907 8.66662 15.8595 8.12973 15.056 7.81862ZM13.4293 10.1813C13.2462 10.4497 13.2551 10.7111 13.456 10.9653C13.7333 11.3208 13.9698 11.2453 14.1653 10.7386C14.2036 10.6389 14.219 10.5317 14.2102 10.4251C14.2014 10.3185 14.1688 10.2151 14.1147 10.1226C13.9173 9.78485 13.6889 9.8044 13.4293 10.1813ZM12.92 15.016C13.3058 15.112 13.6835 15.1146 14.0533 15.024C14.3164 14.9582 14.4995 14.8328 14.6027 14.648C14.7431 14.3973 14.7102 14.1422 14.504 13.8826C14.4508 13.8173 14.3729 13.7736 14.2853 13.76C13.608 13.6675 13.0844 13.9208 12.7147 14.52C12.6872 14.5643 12.6707 14.6145 12.6666 14.6665C12.6624 14.7185 12.6707 14.7708 12.6907 14.8192C12.7107 14.8676 12.7419 14.9106 12.7818 14.9448C12.8216 14.979 12.869 15.0034 12.92 15.016Z" fill="black"/>
<path d="M28.2492 9.39136L21.1618 9.47796C20.9379 9.48069 20.7587 9.66437 20.7614 9.88821L20.7645 10.1442C20.7673 10.368 20.951 10.5473 21.1748 10.5445L28.2623 10.458C28.4861 10.4552 28.6654 10.2715 28.6626 10.0477L28.6595 9.79172C28.6568 9.56787 28.4731 9.38863 28.2492 9.39136Z" fill="black"/>
<path d="M26.8827 12.5308H21.336C21.0135 12.5308 20.752 12.7922 20.752 13.1148V13.1468C20.752 13.4693 21.0135 13.7308 21.336 13.7308H26.8827C27.2052 13.7308 27.4667 13.4693 27.4667 13.1468V13.1148C27.4667 12.7922 27.2052 12.5308 26.8827 12.5308Z" fill="black"/>
<path d="M28.2907 18.2666H9.23468C9.02997 18.2666 8.86401 18.4326 8.86401 18.6373V18.9626C8.86401 19.1673 9.02997 19.3333 9.23468 19.3333H28.2907C28.4954 19.3333 28.6613 19.1673 28.6613 18.9626V18.6373C28.6613 18.4326 28.4954 18.2666 28.2907 18.2666Z" fill="black"/>
<path d="M25.7061 21.2953L9.33286 21.2381C9.05009 21.2371 8.82006 21.4656 8.81907 21.7483L8.81833 21.9617C8.81734 22.2444 9.04577 22.4745 9.32854 22.4754L25.7018 22.5326C25.9845 22.5336 26.2146 22.3052 26.2156 22.0224L26.2163 21.8091C26.2173 21.5263 25.9889 21.2963 25.7061 21.2953Z" fill="black"/>
<path d="M21.3227 24.4692H9.22668C9.02197 24.4692 8.85602 24.6352 8.85602 24.8399V25.0959C8.85602 25.3006 9.02197 25.4666 9.22668 25.4666H21.3227C21.5274 25.4666 21.6934 25.3006 21.6934 25.0959V24.8399C21.6934 24.6352 21.5274 24.4692 21.3227 24.4692Z" fill="black"/>
<path d="M25.5936 27.5138L9.25762 27.5423C9.0426 27.5427 8.86859 27.7173 8.86897 27.9323L8.86971 28.359C8.87009 28.574 9.0447 28.748 9.25972 28.7476L25.5957 28.7191C25.8107 28.7187 25.9847 28.5441 25.9843 28.3291L25.9836 27.9024C25.9832 27.6874 25.8086 27.5134 25.5936 27.5138Z" fill="black"/>
</g>
<defs>
<clipPath id="clip0_286_509">
<rect width="40" height="40" fill="white"/>
</clipPath>
</defs>
</svg>
