<svg width="24" height="25" viewBox="0 0 24 25" fill="none" xmlns="http://www.w3.org/2000/svg">
<g clip-path="url(#clip0_286_370)">
<path d="M18.75 2.79001L18.49 3.14001C18.3349 3.33405 18.2464 3.61726 18.24 3.94001L18.04 19.5C18.08 20.3333 17.65 20.75 16.75 20.75C12.0833 20.75 7.41333 20.75 2.74 20.75C2.47744 20.75 2.22563 20.6457 2.03996 20.46C1.8543 20.2744 1.75 20.0226 1.75 19.76C1.75 16.9533 1.75 14.1467 1.75 11.34C1.75 11.0867 1.77667 10.86 1.83 10.66C2.09667 9.67334 2.37667 9.75334 2.67 10.9C2.72333 11.1133 2.75 11.35 2.75 11.61C2.75 14.1567 2.75 16.6967 2.75 19.23C2.75 19.3918 2.81743 19.5469 2.93745 19.6613C3.05748 19.7757 3.22026 19.84 3.39 19.84L15.75 19.9C16.1497 19.9002 16.5333 19.7471 16.8178 19.4738C17.1023 19.2006 17.2647 18.8292 17.27 18.44L17.44 3.04001C17.4413 2.84572 17.4048 2.65312 17.3328 2.47349C17.2607 2.29386 17.1545 2.13081 17.0204 1.9939C16.8863 1.857 16.727 1.74899 16.5518 1.6762C16.3765 1.60341 16.189 1.56731 16 1.57001L3.95 1.75001C3.77787 1.75222 3.60803 1.78968 3.45112 1.86003C3.29421 1.93039 3.15361 2.03212 3.03813 2.15886C2.92266 2.28561 2.83479 2.43462 2.78005 2.59657C2.72531 2.75852 2.70486 2.92992 2.72 3.10001C2.84 4.54668 2.78667 5.85001 2.56 7.01001C2.42 7.72334 2.2 7.88334 1.9 7.49001C1.8 7.35668 1.75 7.18001 1.75 6.96001C1.75 5.68001 1.75 4.12334 1.75 2.29001C1.74974 1.95131 1.87753 1.62617 2.10579 1.38481C2.33405 1.14346 2.64446 1.00524 2.97 1.00001L17.46 0.760011C17.6029 0.759702 17.7408 0.814003 17.8463 0.91216C17.9519 1.01032 18.0174 1.14517 18.03 1.29001C18.1033 1.99668 18.3433 2.49668 18.75 2.79001Z" fill="#010001" fill-opacity="0.973"/>
<path d="M18.75 2.78999L19.56 2.73999L18.96 19.75C18.7 19.53 18.3934 19.4467 18.04 19.5L18.24 3.93999C18.2465 3.61724 18.335 3.33403 18.49 3.13999L18.75 2.78999Z" fill="#010000" fill-opacity="0.498"/>
<path d="M19.5601 2.73999C20.0468 10.0067 19.9901 17.2567 19.3901 24.49C19.0568 23.45 18.5101 22.9467 17.7501 22.98C14.7501 23.1133 11.7468 23.1833 8.74008 23.19C8.64008 23.19 8.36008 23.1633 7.90008 23.11C7.34008 23.0433 7.09675 23.24 7.17008 23.7C7.18996 23.8316 7.26525 23.9521 7.38249 24.04C7.49973 24.1279 7.65129 24.1776 7.81008 24.18L18.2501 24.46C14.8301 24.78 11.4001 24.8833 7.96008 24.77C7.70008 24.7567 7.39342 24.77 7.04008 24.81C5.79342 24.9433 5.48675 24.7 6.12008 24.08C6.22032 23.9821 6.28836 23.8559 6.31516 23.7184C6.34195 23.5808 6.32623 23.4384 6.27008 23.31C5.88342 22.41 6.30008 22.02 7.52008 22.14C8.32675 22.2133 8.82008 22.2533 9.00008 22.26C11.7801 22.28 14.5568 22.26 17.3301 22.2C18.0701 22.1867 18.5701 22 18.8301 21.64C19.1634 21.1733 19.2067 20.5433 18.9601 19.75L19.5601 2.73999Z" fill="#010001" fill-opacity="0.973"/>
<path d="M6.97002 9.52C6.09002 9.84 5.37002 9.71333 4.81002 9.14C4.7119 9.03842 4.63393 8.90734 4.58069 8.75449C4.52745 8.60164 4.50002 8.4301 4.50002 8.25V4.6C4.49945 4.53644 4.51265 4.47351 4.53875 4.41537C4.56484 4.35723 4.60325 4.30519 4.65143 4.26267C4.69961 4.22016 4.75648 4.18814 4.81829 4.16872C4.88009 4.1493 4.94544 4.14292 5.01002 4.15C6.46335 4.34333 7.69668 4.28666 8.71002 3.98C8.85373 3.93704 9.00497 3.93947 9.13805 3.98687C9.27112 4.03427 9.37782 4.12371 9.44002 4.24C10.2534 5.78 10.3234 7.36 9.65002 8.98C9.59206 9.1201 9.49255 9.23872 9.36531 9.31936C9.23807 9.4 9.08942 9.43867 8.94002 9.43L7.93002 9.37C7.61002 9.35 7.29002 9.4 6.97002 9.52ZM8.32002 8.42C8.46401 8.3992 8.59931 8.33854 8.71064 8.24489C8.82197 8.15123 8.90488 8.0283 8.95002 7.89C9.69002 5.59 8.69335 4.75 5.96002 5.37C5.80873 5.40665 5.67022 5.48368 5.55927 5.59286C5.44832 5.70205 5.36908 5.83931 5.33002 5.99C4.82335 8.00333 5.82002 8.81333 8.32002 8.42Z" fill="#010001" fill-opacity="0.973"/>
<path d="M14.23 4.5399C13.7166 4.48657 13.2133 4.60657 12.72 4.8999C12.6548 4.93872 12.5843 4.96726 12.5127 4.98379C12.4412 5.00033 12.37 5.00452 12.3036 4.9961C12.2372 4.98769 12.177 4.96684 12.1265 4.93483C12.076 4.90283 12.0364 4.86032 12.01 4.8099C11.8233 4.46324 11.9966 4.2299 12.53 4.1099C15.2966 3.48324 16.2433 4.43324 15.37 6.9599C15.1966 7.44657 15.01 7.5099 14.81 7.1499C14.6033 6.7699 14.52 6.02657 14.56 4.9199C14.563 4.82662 14.5307 4.73562 14.4695 4.66515C14.4083 4.59468 14.3228 4.54994 14.23 4.5399Z" fill="#010001" fill-opacity="0.973"/>
<path d="M21.63 4.94011C21.6434 4.49344 21.7667 4.38011 22 4.60011C22.0627 4.65623 22.1123 4.73021 22.1452 4.81669C22.178 4.90316 22.1933 4.99998 22.19 5.10011L22.08 23.3101C22.0798 23.4615 22.0379 23.6108 21.9588 23.7426C21.8798 23.8744 21.7663 23.984 21.63 24.0601C19.8834 25.0334 19.65 24.7234 20.93 23.1301C21.1374 22.8773 21.2536 22.5673 21.26 22.2501C21.3734 16.4768 21.4967 10.7068 21.63 4.94011Z" fill="#010001" fill-opacity="0.973"/>
<path d="M12.84 6.11003C13.9733 6.5367 14.0167 6.8167 12.97 6.95003C12.8253 6.97091 12.6779 6.95212 12.5439 6.8957C12.41 6.83928 12.2945 6.74739 12.21 6.63003C11.7367 5.95003 11.9467 5.7767 12.84 6.11003Z" fill="#010001" fill-opacity="0.973"/>
<path d="M14.54 9.25003C14.42 9.08337 14.41 8.90003 14.51 8.70003C14.5409 8.63996 14.5849 8.58752 14.6392 8.54603C14.6935 8.50453 14.7569 8.47487 14.8254 8.4589C14.894 8.44294 14.9662 8.44102 15.0375 8.45326C15.1089 8.4655 15.1778 8.49164 15.24 8.53003C15.7 8.8167 15.7466 9.0867 15.38 9.34003C15.2417 9.43587 15.076 9.48016 14.9188 9.46332C14.7616 9.44647 14.6255 9.36985 14.54 9.25003Z" fill="#010001" fill-opacity="0.973"/>
<path d="M13.15 9.48C12.69 9.73334 12.42 9.59334 12.34 9.06001C12.3282 8.98671 12.3309 8.91174 12.348 8.84034C12.3651 8.76894 12.3962 8.70283 12.4391 8.64663C12.4819 8.59044 12.5355 8.54552 12.5961 8.51501C12.6568 8.4845 12.7229 8.46914 12.79 8.47001C13.0366 8.47001 13.2266 8.56 13.36 8.74C13.402 8.79337 13.43 8.85625 13.4421 8.92433C13.4543 8.9924 13.4502 9.06406 13.4302 9.13437C13.4103 9.20468 13.3749 9.27198 13.3265 9.33164C13.2781 9.39131 13.2179 9.44192 13.15 9.48Z" fill="#010001" fill-opacity="0.973"/>
<path d="M6.63012 13.57C4.10346 13.3167 4.05679 12.89 6.49012 12.29C6.70345 12.2367 6.96345 12.0933 7.27012 11.86C7.65679 11.56 7.79345 11.85 7.68012 12.73C7.64735 12.9802 7.51936 13.2079 7.32332 13.3648C7.12727 13.5216 6.87861 13.5952 6.63012 13.57Z" fill="#010001" fill-opacity="0.973"/>
<path d="M15.2809 12.2541L10.5009 12.2457C10.2358 12.2452 10.0205 12.4598 10.02 12.7249L10.02 12.7649C10.0195 13.03 10.234 13.2452 10.4991 13.2457L15.2791 13.2541C15.5442 13.2545 15.7595 13.04 15.76 12.7749L15.76 12.7349C15.7605 12.4698 15.546 12.2545 15.2809 12.2541Z" fill="#010001" fill-opacity="0.973"/>
<path d="M5.58002 15.84C7.79336 15.5867 8.24336 15.95 6.93002 16.93C5.98336 17.63 5.33336 17.64 4.98002 16.96C4.92424 16.8476 4.89603 16.7234 4.89778 16.5981C4.89954 16.4727 4.93121 16.3498 4.99011 16.2399C5.04901 16.1299 5.13339 16.0362 5.23609 15.9665C5.3388 15.8969 5.45678 15.8535 5.58002 15.84Z" fill="#010001" fill-opacity="0.973"/>
<path d="M15.2987 15.7919L10.5194 15.7084C10.282 15.7043 10.0861 15.8934 10.082 16.1309L10.0788 16.3108C10.0747 16.5483 10.2638 16.7441 10.5013 16.7483L15.2805 16.8317C15.518 16.8358 15.7138 16.6467 15.718 16.4093L15.7211 16.2293C15.7253 15.9918 15.5361 15.796 15.2987 15.7919Z" fill="#010001" fill-opacity="0.973"/>
<path d="M19.39 24.4901L18.25 24.4601L7.80996 24.1801C7.65117 24.1776 7.49961 24.128 7.38237 24.0401C7.26513 23.9522 7.18984 23.8316 7.16996 23.7001C7.09663 23.2401 7.33996 23.0434 7.89996 23.1101C8.35996 23.1634 8.63996 23.1901 8.73996 23.1901C11.7466 23.1834 14.75 23.1134 17.75 22.9801C18.51 22.9467 19.0566 23.4501 19.39 24.4901Z" fill="#010000" fill-opacity="0.498"/>
</g>
<defs>
<clipPath id="clip0_286_370">
<rect width="24" height="25" fill="white"/>
</clipPath>
</defs>
</svg>
