<svg width="40" height="40" viewBox="0 0 40 40" fill="none" xmlns="http://www.w3.org/2000/svg">
<g clip-path="url(#clip0_286_521)">
<g clip-path="url(#clip1_286_521)">
<path d="M3.816 0H21.816C23.3644 1.536 24.9173 3.06667 26.4747 4.592C26.88 4.98844 27.432 5.50222 28.1307 6.13333C29.0356 6.94578 29.5644 7.48444 29.7173 7.74933C30.16 8.51911 30.4364 9.33867 30.5467 10.208C30.5893 10.5298 30.5849 10.9671 30.5333 11.52C30.4924 11.9573 30.4604 12.3964 30.4373 12.8373C30.4196 13.2 30.4462 13.5164 30.5173 13.7867C30.6276 14.1956 30.7716 14.4836 30.9493 14.6507C31.9822 15.616 32.7271 16.36 33.184 16.8827C33.7671 17.5511 34.2347 18.3209 34.5867 19.192C34.9102 19.9956 35.0907 20.864 35.128 21.7973C35.1831 23.1876 34.9902 24.5529 34.5493 25.8933C34.544 25.9058 34.4809 26.0622 34.36 26.3627C34.104 27.0009 34.2009 27.552 34.6507 28.016C36.4444 29.872 38.2276 31.7387 40 33.616V34.5493C39.0862 35.0062 38.264 34.8676 37.5333 34.1333C36.2604 32.8551 34.72 31.3991 32.912 29.7653C32.4818 29.3778 32.1476 29.1378 31.9093 29.0453C31.2853 28.8036 30.8764 29.1049 30.6827 29.9493C30.4533 30.9502 30.3502 32.0631 30.3733 33.288C30.4 34.8578 30.3796 35.8098 30.312 36.144C29.96 37.8631 28.9396 39.1484 27.2507 40H3.45067C1.74756 39.3547 0.597333 38.1716 0 36.4507V3.65067C0.611556 1.74667 1.88356 0.529778 3.816 0ZM27.6747 30.632C27.3244 30.5502 26.944 30.496 26.5333 30.4693C25.0116 30.368 23.664 29.9004 22.4907 29.0667C21.7191 28.5191 21.0329 27.7733 20.432 26.8293C19.8258 25.8782 19.4204 24.9298 19.216 23.984C18.8836 22.4373 18.9947 20.9591 19.5493 19.5493C20.0258 18.3404 20.7209 17.2569 21.6347 16.2987C22.1324 15.776 22.6791 15.3627 23.2747 15.0587C23.9289 14.7227 24.5876 14.4978 25.2507 14.384C25.5191 14.336 26.2524 14.2516 27.4507 14.1307C27.4935 14.1265 27.5348 14.1139 27.572 14.0937C27.6091 14.0735 27.6413 14.0462 27.6667 14.0133C28.4613 13.0071 28.5467 11.9227 27.9227 10.76C27.7787 10.4916 27.5538 10.3511 27.248 10.3387C25.7653 10.2782 24.3111 10.2524 22.8853 10.2613C22.0853 10.2649 21.6729 10.2658 21.648 10.264C21.1093 10.1911 20.7556 9.92178 20.5867 9.456C20.5333 9.31556 20.4747 8.78667 20.4107 7.86933C20.2969 6.26756 20.1822 4.66489 20.0667 3.06133C20.0418 2.70933 19.8524 2.53333 19.4987 2.53333C14.5671 2.53333 9.60089 2.54311 4.6 2.56267C3.36978 2.56622 2.624 3.02311 2.36267 3.93333C2.29867 4.15556 2.26667 4.91289 2.26667 6.20533C2.26844 15.6027 2.28089 25.0009 2.304 34.4C2.30578 34.9013 2.38044 35.3902 2.528 35.8667C2.76622 36.6293 3.19644 37.1707 3.81867 37.4907C4.20267 37.688 4.83911 37.7831 5.728 37.776C17.0951 37.6889 23.808 37.6747 25.8667 37.7333C27.2089 37.7707 27.888 37.1262 27.904 35.8C27.9236 34.2444 27.9333 32.6311 27.9333 30.96C27.9336 30.8842 27.9081 30.8105 27.8612 30.7509C27.8142 30.6914 27.7485 30.6495 27.6747 30.632ZM23.9147 5.416C23.664 5.18667 23.3902 4.97244 23.0933 4.77333C22.8284 4.59556 22.6889 4.66667 22.6747 4.98667C22.6462 5.57511 22.6516 6.13333 22.6907 6.66133C22.7191 7.056 22.8178 7.34578 22.9867 7.53067C23.2142 7.77778 23.5236 7.91022 23.9147 7.928C24.4764 7.95289 25.0338 7.904 25.5867 7.78133C26.0489 7.68 26.1253 7.44978 25.816 7.09067C25.5209 6.74578 25.152 6.40978 24.7093 6.08267C24.4693 5.90489 24.2044 5.68267 23.9147 5.416ZM33.0267 22.28C33.0267 20.7502 32.419 19.2831 31.3373 18.2014C30.2556 17.1197 28.7884 16.512 27.2587 16.512C25.7289 16.512 24.2618 17.1197 23.1801 18.2014C22.0984 19.2831 21.4907 20.7502 21.4907 22.28C21.4907 23.0375 21.6399 23.7875 21.9297 24.4873C22.2196 25.1871 22.6445 25.823 23.1801 26.3586C24.2618 27.4403 25.7289 28.048 27.2587 28.048C28.7884 28.048 30.2556 27.4403 31.3373 26.3586C32.419 25.2769 33.0267 23.8098 33.0267 22.28Z" fill="black"/>
<path d="M19.0661 12.5261L5.98349 12.5033C5.33401 12.5021 4.80658 13.0277 4.80544 13.6772L4.80521 13.8106C4.80408 14.46 5.32967 14.9875 5.97916 14.9886L19.0618 15.0114C19.7113 15.0126 20.2387 14.487 20.2399 13.8375L20.2401 13.7042C20.2412 13.0547 19.7156 12.5272 19.0661 12.5261Z" fill="black"/>
<path d="M16.0907 17.2666H5.8507C5.24098 17.2666 4.7467 17.7609 4.7467 18.3706V18.4186C4.7467 19.0283 5.24098 19.5226 5.8507 19.5226H16.0907C16.7004 19.5226 17.1947 19.0283 17.1947 18.4186V18.3706C17.1947 17.7609 16.7004 17.2666 16.0907 17.2666Z" fill="black"/>
<path d="M16.672 22.0347C17.4026 22.7103 17.4675 23.3201 16.8666 23.8641C16.6213 24.0863 16.2746 24.2027 15.8266 24.2134C12.6409 24.2792 9.45419 24.2899 6.26664 24.2454C5.18397 24.2294 4.70486 23.7699 4.8293 22.8667C4.87908 22.4987 5.0213 22.2267 5.25597 22.0507C5.47464 21.8854 5.7333 21.8125 6.03197 21.8321C6.33597 21.8534 6.49241 21.8641 6.5013 21.8641C9.52175 21.8285 12.7111 21.8072 16.0693 21.8001C16.2918 21.7983 16.5074 21.8823 16.672 22.0347Z" fill="black"/>
<path d="M16.1253 26.6815L5.8642 26.7531C5.281 26.7572 4.81153 27.2333 4.8156 27.8165L4.81661 27.9605C4.82068 28.5437 5.29675 29.0131 5.87995 29.0091L16.141 28.9374C16.7242 28.9334 17.1937 28.4573 17.1896 27.8741L17.1886 27.7301C17.1846 27.1469 16.7085 26.6774 16.1253 26.6815Z" fill="black"/>
</g>
</g>
<defs>
<clipPath id="clip0_286_521">
<rect width="40" height="40" fill="white"/>
</clipPath>
<clipPath id="clip1_286_521">
<rect width="40" height="40" fill="white"/>
</clipPath>
</defs>
</svg>
