<svg width="20" height="20" viewBox="0 0 20 20" fill="none" xmlns="http://www.w3.org/2000/svg">
<path d="M2.64002 0H13.015C14.3167 0.936667 15.4259 1.99917 16.3425 3.1875C16.4853 3.37393 16.5626 3.60237 16.5625 3.8375C16.5625 7.92583 16.5542 11.8967 16.5375 15.75C16.5342 16.2467 16.37 16.3533 16.045 16.07C16.016 16.0449 15.9927 16.013 15.9768 15.9763C15.9608 15.9396 15.9525 15.8991 15.9525 15.8575L15.9375 3.9525C15.9375 3.897 15.9144 3.8437 15.8733 3.80399C15.8322 3.76428 15.7763 3.74131 15.7175 3.74L13.455 3.7C13.0334 3.69167 12.8184 3.44417 12.81 2.9575L12.775 0.7325C12.7743 0.699525 12.7602 0.668081 12.7355 0.644772C12.7107 0.621464 12.6774 0.608105 12.6425 0.6075L3.07252 0.5625C3.03882 0.56217 3.0054 0.568521 2.97417 0.581188C2.94294 0.593855 2.91454 0.612586 2.89059 0.636298C2.86665 0.66001 2.84764 0.688233 2.83467 0.719335C2.8217 0.750437 2.81502 0.783801 2.81502 0.8175L2.81252 18.035C2.81252 18.0628 2.82358 18.0896 2.84328 18.1092C2.86297 18.1289 2.88967 18.14 2.91752 18.14L15.6125 18.19C15.6671 18.1903 15.7211 18.1785 15.7705 18.1553C15.82 18.1322 15.8637 18.0983 15.8984 18.0562C15.9331 18.014 15.958 17.9647 15.9712 17.9117C15.9845 17.8588 15.9858 17.8035 15.975 17.75C15.8984 17.3717 15.9592 17.1008 16.1575 16.9375C16.1799 16.9192 16.2064 16.9066 16.2347 16.9008C16.2631 16.8951 16.2925 16.8963 16.3204 16.9044C16.3484 16.9125 16.3741 16.9272 16.3953 16.9473C16.4166 16.9674 16.4328 16.9924 16.4425 17.02C16.6742 17.695 16.6184 18.2217 16.275 18.6C16.2497 18.6277 16.218 18.6499 16.1819 18.6654C16.1458 18.6809 16.106 18.6893 16.065 18.69L4.26502 18.7675C4.22639 18.7676 4.18911 18.7781 4.15794 18.7977C4.12677 18.8173 4.10312 18.8451 4.09002 18.8775C3.93335 19.2542 4.03002 19.4292 4.38002 19.4025C4.60502 19.3858 4.72835 19.3775 4.75002 19.3775C8.73169 19.4175 12.8075 19.4375 16.9775 19.4375C17.0332 19.4375 17.0866 19.4156 17.126 19.3767C17.1654 19.3378 17.1875 19.285 17.1875 19.23V2.105C17.1875 2.0539 17.1758 2.00349 17.1534 1.95756C17.131 1.91162 17.0985 1.87137 17.0583 1.83983C17.0181 1.8083 16.9713 1.7863 16.9213 1.7755C16.8714 1.76471 16.8197 1.76539 16.77 1.7775C16.2317 1.90917 15.9717 1.87167 15.99 1.665C15.9984 1.57076 16.0394 1.4824 16.1061 1.41527C16.1728 1.34814 16.2608 1.30648 16.355 1.2975C17.0767 1.22417 17.5317 1.35333 17.72 1.685C17.7817 1.79333 17.8125 2.17583 17.8125 2.8325C17.8125 8.32583 17.8125 13.8192 17.8125 19.3125C17.8125 19.6192 17.6617 19.8483 17.36 20H3.86002C3.48835 19.7333 3.34085 19.3933 3.41752 18.98C3.42296 18.9498 3.42148 18.9188 3.4132 18.8894C3.40492 18.8599 3.39006 18.8328 3.36976 18.81C3.34946 18.7873 3.32428 18.7697 3.29615 18.7584C3.26802 18.7471 3.23769 18.7425 3.20752 18.745C2.64419 18.785 2.31169 18.6108 2.21002 18.2225C2.19502 18.1642 2.18752 17.8492 2.18752 17.2775C2.17585 8.00583 2.18085 2.43917 2.20252 0.5775C2.20585 0.345833 2.35169 0.153333 2.64002 0ZM15.3925 2.9875L13.595 1.1875C13.49 1.0825 13.4375 1.105 13.4375 1.255V2.985C13.4375 3.02213 13.4523 3.05774 13.4785 3.08399C13.5048 3.11025 13.5404 3.125 13.5775 3.125H15.335C15.4667 3.125 15.4859 3.07917 15.3925 2.9875Z" fill="white"/>
<path d="M9.33251 5.61508C9.33251 6.27083 9.07202 6.89972 8.60833 7.3634C8.14465 7.82708 7.51576 8.08758 6.86001 8.08758C6.20426 8.08758 5.57537 7.82708 5.11169 7.3634C4.64801 6.89972 4.38751 6.27083 4.38751 5.61508C4.38751 4.95933 4.64801 4.33044 5.11169 3.86676C5.57537 3.40307 6.20426 3.14258 6.86001 3.14258C7.51576 3.14258 8.14465 3.40307 8.60833 3.86676C9.07202 4.33044 9.33251 4.95933 9.33251 5.61508ZM7.08251 6.41758C7.46085 6.48424 7.81085 6.62758 8.13251 6.84758C8.16051 6.86689 8.19451 6.8751 8.22722 6.87042C8.25994 6.86575 8.28876 6.84857 8.30751 6.82258C8.77418 6.17924 8.87918 5.55508 8.62251 4.95008C8.38751 4.39674 7.97501 4.02174 7.38501 3.82508C6.87501 3.65341 6.38751 3.71341 5.92251 4.00508C5.50418 4.26841 5.22335 4.62425 5.08001 5.07258C4.89668 5.65091 5.00501 6.23175 5.40501 6.81508C5.42613 6.84613 5.45825 6.86791 5.49462 6.87584C5.53099 6.88377 5.56877 6.87722 5.60001 6.85758C5.85501 6.69924 6.09168 6.57674 6.31001 6.49008C6.55668 6.39341 6.81418 6.36924 7.08251 6.41758ZM7.62499 7.26775C7.62522 7.23558 7.6063 7.20359 7.56933 7.1736C7.53235 7.14361 7.47803 7.11622 7.40948 7.09299C7.34092 7.06976 7.25947 7.05115 7.16977 7.03821C7.08008 7.02527 6.98389 7.01826 6.88671 7.01758C6.69046 7.01621 6.50207 7.04071 6.36298 7.08568C6.22389 7.13066 6.14549 7.19243 6.14504 7.2574C6.14481 7.28958 6.16372 7.32157 6.2007 7.35156C6.23768 7.38154 6.29199 7.40893 6.36055 7.43216C6.4291 7.45539 6.51056 7.47401 6.60025 7.48695C6.68995 7.49989 6.78613 7.5069 6.88331 7.50758C7.07956 7.50895 7.26796 7.48445 7.40705 7.43947C7.54614 7.3945 7.62453 7.33273 7.62499 7.26775Z" fill="white"/>
<path d="M7.78252 5.30508C7.78252 5.54709 7.68638 5.77919 7.51525 5.95031C7.34413 6.12144 7.11203 6.21758 6.87002 6.21758C6.75019 6.21758 6.63153 6.19398 6.52082 6.14812C6.41011 6.10226 6.30952 6.03505 6.22478 5.95031C6.14005 5.86558 6.07284 5.76499 6.02698 5.65428C5.98112 5.54357 5.95752 5.42491 5.95752 5.30508C5.95752 5.18525 5.98112 5.06659 6.02698 4.95588C6.07284 4.84517 6.14005 4.74458 6.22478 4.65984C6.30952 4.57511 6.41011 4.5079 6.52082 4.46204C6.63153 4.41618 6.75019 4.39258 6.87002 4.39258C7.11203 4.39258 7.34413 4.48872 7.51525 4.65984C7.68638 4.83097 7.78252 5.06307 7.78252 5.30508ZM6.61002 5.16758C6.54835 5.40091 6.61085 5.54175 6.79752 5.59008C6.83502 5.60024 6.87518 5.60125 6.915 5.59303C6.95482 5.5848 6.99328 5.56756 7.02752 5.54258C7.25919 5.37258 7.24335 5.20091 6.98002 5.02758C6.94773 5.00652 6.91093 4.99338 6.87261 4.98922C6.83429 4.98506 6.79553 4.99 6.75948 5.00365C6.72343 5.01729 6.6911 5.03924 6.66513 5.06773C6.63916 5.09621 6.62028 5.13042 6.61002 5.16758Z" fill="white"/>
<path d="M14.1146 4.69985L10.5897 4.67524C10.4779 4.67446 10.3866 4.76449 10.3858 4.87632L10.3844 5.08132C10.3836 5.19315 10.4736 5.28445 10.5854 5.28523L14.1104 5.30984C14.2222 5.31062 14.3135 5.22059 14.3143 5.10875L14.3157 4.90376C14.3165 4.79192 14.2265 4.70063 14.1146 4.69985Z" fill="white"/>
<path d="M13.4731 6.26519L10.6082 6.23519C10.4881 6.23393 10.3897 6.33028 10.3885 6.4504L10.3867 6.61539C10.3855 6.7355 10.4818 6.8339 10.602 6.83515L13.4668 6.86516C13.5869 6.86641 13.6853 6.77006 13.6866 6.64995L13.6883 6.48496C13.6895 6.36484 13.5932 6.26645 13.4731 6.26519Z" fill="white"/>
<path d="M14.0525 9.06494H4.73249C4.56543 9.06494 4.42999 9.20038 4.42999 9.36744V9.38244C4.42999 9.54951 4.56543 9.68494 4.73249 9.68494H14.0525C14.2196 9.68494 14.355 9.54951 14.355 9.38244V9.36744C14.355 9.20038 14.2196 9.06494 14.0525 9.06494Z" fill="white"/>
<path d="M12.8105 10.6396L4.68054 10.6254C4.54385 10.6252 4.43285 10.7358 4.43261 10.8725L4.43241 10.9875C4.43217 11.1242 4.54279 11.2352 4.67948 11.2354L12.8095 11.2496C12.9462 11.2499 13.0572 11.1392 13.0574 11.0026L13.0576 10.8876C13.0578 10.7509 12.9472 10.6399 12.8105 10.6396Z" fill="white"/>
<path d="M10.66 12.25H4.645C4.52902 12.25 4.435 12.344 4.435 12.46V12.6C4.435 12.716 4.52902 12.81 4.645 12.81H10.66C10.776 12.81 10.87 12.716 10.87 12.6V12.46C10.87 12.344 10.776 12.25 10.66 12.25Z" fill="white"/>
<path d="M12.864 13.7856L4.63903 13.8143C4.53272 13.8146 4.44683 13.9011 4.44721 14.0074L4.44787 14.1974C4.44824 14.3038 4.53472 14.3896 4.64104 14.3893L12.866 14.3606C12.9723 14.3602 13.0582 14.2737 13.0578 14.1674L13.0572 13.9774C13.0568 13.8711 12.9703 13.7852 12.864 13.7856Z" fill="white"/>
</svg>
